GentiumPlus-Italic.ufo
<glyph name="LtnSmF" format="1">
  <advance width="559"/>
  <unicode hex="0066"/>
  <outline>
    <contour>
      <point x="653" y="877" type="curve"/>
      <point x="633" y="905" type="line"/>
      <point x="154" y="905" type="line"/>
      <point x="53" y="846" type="line"/>
      <point x="68" y="815" type="line"/>
      <point x="373" y="815" type="line" smooth="yes"/>
      <point x="473" y="815"/>
      <point x="512" y="807"/>
      <point x="526" y="770" type="curve"/>
      <point x="553" y="784"/>
      <point x="627" y="840"/>
    </contour>
    <contour>
      <point x="903" y="1403" type="curve"/>
      <point x="862" y="1417"/>
      <point x="791" y="1520"/>
      <point x="674" y="1520" type="curve" smooth="yes"/>
      <point x="592" y="1520"/>
      <point x="530" y="1479"/>
      <point x="459" y="1427" type="curve" smooth="yes"/>
      <point x="289" y="1300"/>
      <point x="256" y="1116"/>
      <point x="229" y="899" type="curve" smooth="yes"/>
      <point x="141" y="139" type="line" smooth="yes"/>
      <point x="117" y="-80"/>
      <point x="33" y="-348"/>
      <point x="-100" y="-422" type="curve"/>
      <point x="-74" y="-485" type="line"/>
      <point x="123" y="-365"/>
      <point x="260" y="-100"/>
      <point x="295" y="193" type="curve" smooth="yes"/>
      <point x="383" y="952" type="line" smooth="yes"/>
      <point x="401" y="1122"/>
      <point x="446" y="1417"/>
      <point x="596" y="1417" type="curve" smooth="yes"/>
      <point x="672" y="1417"/>
      <point x="702" y="1305"/>
      <point x="737" y="1305" type="curve" smooth="yes"/>
      <point x="770" y="1305"/>
      <point x="846" y="1362"/>
    </contour>
    <contour>
      <point x="-50" y="-450" type="move" name="H"/>
    </contour>
    <contour>
      <point x="390" y="-100" type="move" name="L"/>
    </contour>
    <contour>
      <point x="580" y="1640" type="move" name="U"/>
    </contour>
  </outline>
</glyph>
<glyph name="LtnSmQ" format="1">
  <advance width="918"/>
  <unicode hex="0071"/>
  <outline>
    <contour>
      <point x="829" y="848" type="curve"/>
      <point x="784" y="854"/>
      <point x="702" y="936"/>
      <point x="612" y="936" type="curve" smooth="yes"/>
      <point x="528" y="936"/>
      <point x="428" y="891"/>
      <point x="354" y="842" type="curve" smooth="yes"/>
      <point x="166" y="719"/>
      <point x="53" y="516"/>
      <point x="53" y="305" type="curve" smooth="yes"/>
      <point x="53" y="55"/>
      <point x="188" y="-41"/>
      <point x="276" y="-41" type="curve" smooth="yes"/>
      <point x="383" y="-41"/>
      <point x="510" y="106"/>
      <point x="604" y="262" type="curve"/>
      <point x="639" y="449" type="line"/>
      <point x="547" y="281"/>
      <point x="420" y="96"/>
      <point x="348" y="96" type="curve" smooth="yes"/>
      <point x="270" y="96"/>
      <point x="182" y="207"/>
      <point x="182" y="379" type="curve" smooth="yes"/>
      <point x="182" y="537"/>
      <point x="330" y="831"/>
      <point x="512" y="831" type="curve" smooth="yes"/>
      <point x="633" y="831"/>
      <point x="713" y="721"/>
      <point x="748" y="721" type="curve" smooth="yes"/>
      <point x="780" y="721"/>
      <point x="772" y="809"/>
    </contour>
    <contour>
      <point x="895" y="901" type="curve"/>
      <point x="872" y="936" type="line"/>
      <point x="782" y="893"/>
      <point x="696" y="831"/>
      <point x="686" y="770" type="curve" smooth="yes"/>
      <point x="608" y="303"/>
      <point x="509" y="-318"/>
      <point x="488" y="-471" type="curve"/>
      <point x="523" y="-500" type="line"/>
      <point x="556" y="-484"/>
      <point x="636" y="-459"/>
      <point x="672" y="-447" type="curve"/>
      <point x="629" y="-359"/>
      <point x="733" y="229"/>
      <point x="821" y="760" type="curve"/>
      <point x="838" y="850"/>
      <point x="850" y="864"/>
    </contour>
    <contour>
      <point x="305" y="-600" type="move" name="L"/>
    </contour>
    <contour>
      <point x="952" y="870" type="move" name="R"/>
    </contour>
    <contour>
      <point x="525" y="1000" type="move" name="U"/>
    </contour>
  </outline>
</glyph>
<glyph name="Hyphen_Soft" format="1">
  <advance width="641"/>
  <unicode hex="00AD"/>
  <outline>
    <component base="HyphenMinus"/>
    <contour>
      <point x="365" y="1000" type="move" name="U"/>
    </contour>
  </outline>
</glyph>
<glyph name="LtnCapAAcute" format="1">
  <advance width="1147"/>
  <unicode hex="00C1"/>
  <outline>
    <component base="LtnCapA"/>
    <component base="CombAcute.LP" xOffset="1049" yOffset="320"/>
    <contour>
      <point x="514" y="0" type="move" name="H"/>
    </contour>
    <contour>
      <point x="502" y="-100" type="move" name="L"/>
    </contour>
    <contour>
      <point x="846" y="0" type="move" name="O"/>
    </contour>
    <contour>
      <point x="740" y="1640" type="move" name="U"/>
    </contour>
  </outline>
</glyph>
<glyph name="LtnCapCCedilla" format="1">
  <advance width="995"/>
  <unicode hex="00C7"/>
  <outline>
    <component base="LtnCapC"/>
    <component base="CombCedilla" xOffset="952"/>
    <contour>
      <point x="383" y="-600" type="move" name="L"/>
    </contour>
    <contour>
      <point x="686" y="1320" type="move" name="U"/>
    </contour>
  </outline>
</glyph>
<glyph name="LtnCapEDiaer" format="1">
  <advance width="946"/>
  <unicode hex="00CB"/>
  <outline>
    <component base="LtnCapE"/>
    <component base="CombDiaer.LP" xOffset="946" yOffset="320"/>
    <contour>
      <point x="411" y="0" type="move" name="H"/>
    </contour>
    <contour>
      <point x="397" y="-100" type="move" name="L"/>
    </contour>
    <contour>
      <point x="621" y="0" type="move" name="O"/>
    </contour>
    <contour>
      <point x="972" y="1072" type="move" name="R"/>
    </contour>
    <contour>
      <point x="635" y="1640" type="move" name="U"/>
    </contour>
  </outline>
</glyph>
<glyph name="LtnCapIGrave" format="1">
  <advance width="573"/>
  <unicode hex="00CC"/>
  <outline>
    <component base="LtnCapI"/>
    <component base="CombGrave.LP" xOffset="681" yOffset="320"/>
    <contour>
      <point x="225" y="0" type="move" name="H"/>
    </contour>
    <contour>
      <point x="211" y="-100" type="move" name="L"/>
    </contour>
    <contour>
      <point x="285" y="0" type="move" name="O"/>
    </contour>
    <contour>
      <point x="568" y="1072" type="move" name="R"/>
    </contour>
    <contour>
      <point x="449" y="1640" type="move" name="U"/>
    </contour>
  </outline>
</glyph>
<glyph name="LtnCapICircum" format="1">
  <advance width="573"/>
  <unicode hex="00CE"/>
  <outline>
    <component base="LtnCapI"/>
    <component base="CombCircum.LP" xOffset="758" yOffset="320"/>
    <contour>
      <point x="225" y="0" type="move" name="H"/>
    </contour>
    <contour>
      <point x="211" y="-100" type="move" name="L"/>
    </contour>
    <contour>
      <point x="285" y="0" type="move" name="O"/>
    </contour>
    <contour>
      <point x="568" y="1072" type="move" name="R"/>
    </contour>
    <contour>
      <point x="465" y="1735" type="move" name="U"/>
    </contour>
  </outline>
</glyph>
<glyph name="LtnCapOAcute" format="1">
  <advance width="1116"/>
  <unicode hex="00D3"/>
  <outline>
    <component base="LtnCapO"/>
    <component base="CombAcute.LP" xOffset="1053" yOffset="320"/>
    <contour>
      <point x="500" y="0" type="move" name="H"/>
    </contour>
    <contour>
      <point x="505" y="-100" type="move" name="L"/>
    </contour>
    <contour>
      <point x="560" y="0" type="move" name="O"/>
    </contour>
    <contour>
      <point x="1202" y="1072" type="move" name="R"/>
    </contour>
    <contour>
      <point x="744" y="1640" type="move" name="U"/>
    </contour>
  </outline>
</glyph>
<glyph name="LtnSmAAcute" format="1">
  <advance width="922"/>
  <unicode hex="00E1"/>
  <outline>
    <component base="LtnSmA"/>
    <component base="CombAcute" xOffset="903"/>
    <contour>
      <point x="368" y="0" type="move" name="H"/>
    </contour>
    <contour>
      <point x="400" y="-100" type="move" name="L"/>
    </contour>
    <contour>
      <point x="723" y="0" type="move" name="O"/>
    </contour>
    <contour>
      <point x="933" y="870" type="move" name="R"/>
    </contour>
    <contour>
      <point x="601" y="1370" type="move" name="U"/>
    </contour>
  </outline>
</glyph>
<glyph name="LtnSmACircum" format="1">
  <advance width="922"/>
  <unicode hex="00E2"/>
  <outline>
    <component base="LtnSmA"/>
    <component base="CombCircum" xOffset="902"/>
    <contour>
      <point x="368" y="0" type="move" name="H"/>
    </contour>
    <contour>
      <point x="933" y="870" type="move" name="R"/>
    </contour>
    <contour>
      <point x="623" y="1490" type="move" name="U"/>
    </contour>
    <contour>
      <point x="400" y="-100" type="move" name="L"/>
    </contour>
    <contour>
      <point x="723" y="0" type="move" name="O"/>
    </contour>
  </outline>
</glyph>
<glyph name="LtnSmCCedilla" format="1">
  <advance width="795"/>
  <unicode hex="00E7"/>
  <outline>
    <component base="LtnSmC"/>
    <component base="CombCedilla" xOffset="840"/>
    <contour>
      <point x="870" y="870" type="move" name="R"/>
    </contour>
    <contour>
      <point x="530" y="1000" type="move" name="U"/>
    </contour>
    <contour>
      <point x="271" y="-600" type="move" name="L"/>
    </contour>
  </outline>
</glyph>
<glyph name="LtnSmEGrave" format="1">
  <advance width="805"/>
  <unicode hex="00E8"/>
  <outline>
    <component base="LtnSmE"/>
    <component base="CombGrave" xOffset="785"/>
    <contour>
      <point x="358" y="0" type="move" name="H"/>
    </contour>
    <contour>
      <point x="344" y="-100" type="move" name="L"/>
    </contour>
    <contour>
      <point x="408" y="0" type="move" name="O"/>
    </contour>
    <contour>
      <point x="884" y="870" type="move" name="R"/>
    </contour>
    <contour>
      <point x="560" y="1370" type="move" name="U"/>
    </contour>
  </outline>
</glyph>
<glyph name="LtnSmIGrave" format="1">
  <advance width="504"/>
  <unicode hex="00EC"/>
  <outline>
    <component base="LtnSmDotlessI"/>
    <component base="CombGrave" xOffset="609"/>
    <contour>
      <point x="210" y="0" type="move" name="H"/>
    </contour>
    <contour>
      <point x="212" y="-100" type="move" name="L"/>
    </contour>
    <contour>
      <point x="272" y="0" type="move" name="O"/>
    </contour>
    <contour>
      <point x="520" y="870" type="move" name="R"/>
    </contour>
    <contour>
      <point x="384" y="1370" type="move" name="U"/>
    </contour>
  </outline>
</glyph>
<glyph name="LtnSmNTilde" format="1">
  <advance width="1012"/>
  <unicode hex="00F1"/>
  <outline>
    <component base="LtnSmN"/>
    <component base="CombTilde" xOffset="939"/>
    <contour>
      <point x="720" y="0" type="move" name="H"/>
    </contour>
    <contour>
      <point x="633" y="1353" type="move" name="U"/>
    </contour>
    <contour>
      <point x="433" y="-100" type="move" name="L"/>
    </contour>
  </outline>
</glyph>
<glyph name="LtnSmOGrave" format="1">
  <advance width="864"/>
  <unicode hex="00F2"/>
  <outline>
    <component base="LtnSmO"/>
    <component base="CombGrave" xOffset="780"/>
    <contour>
      <point x="374" y="0" type="move" name="H"/>
    </contour>
    <contour>
      <point x="354" y="-100" type="move" name="L"/>
    </contour>
    <contour>
      <point x="429" y="0" type="move" name="O"/>
    </contour>
    <contour>
      <point x="920" y="870" type="move" name="R"/>
    </contour>
    <contour>
      <point x="555" y="1370" type="move" name="U"/>
    </contour>
  </outline>
</glyph>
<glyph name="LtnSmOAcute" format="1">
  <advance width="864"/>
  <unicode hex="00F3"/>
  <outline>
    <component base="LtnSmO"/>
    <component base="CombAcute" xOffset="858"/>
    <contour>
      <point x="374" y="0" type="move" name="H"/>
    </contour>
    <contour>
      <point x="354" y="-100" type="move" name="L"/>
    </contour>
    <contour>
      <point x="429" y="0" type="move" name="O"/>
    </contour>
    <contour>
      <point x="920" y="870" type="move" name="R"/>
    </contour>
    <contour>
      <point x="556" y="1370" type="move" name="U"/>
    </contour>
  </outline>
</glyph>
<glyph name="LtnSmOTilde" format="1">
  <advance width="864"/>
  <unicode hex="00F5"/>
  <outline>
    <component base="LtnSmO"/>
    <component base="CombTilde" xOffset="860"/>
    <contour>
      <point x="374" y="0" type="move" name="H"/>
    </contour>
    <contour>
      <point x="354" y="-100" type="move" name="L"/>
    </contour>
    <contour>
      <point x="429" y="0" type="move" name="O"/>
    </contour>
    <contour>
      <point x="920" y="870" type="move" name="R"/>
    </contour>
    <contour>
      <point x="554" y="1353" type="move" name="U"/>
    </contour>
  </outline>
</glyph>
<glyph name="LtnSmUGrave" format="1">
  <advance width="1022"/>
  <unicode hex="00F9"/>
  <outline>
    <component base="LtnSmU"/>
    <component base="CombGrave" xOffset="856"/>
    <contour>
      <point x="408" y="0" type="move" name="H"/>
    </contour>
    <contour>
      <point x="430" y="-100" type="move" name="L"/>
    </contour>
    <contour>
      <point x="797" y="0" type="move" name="O"/>
    </contour>
    <contour>
      <point x="1000" y="870" type="move" name="R"/>
    </contour>
    <contour>
      <point x="631" y="1370" type="move" name="U"/>
    </contour>
  </outline>
</glyph>
<glyph name="LtnSmYAcute" format="1">
  <advance width="926"/>
  <unicode hex="00FD"/>
  <outline>
    <component base="LtnSmY"/>
    <component base="CombAcute" xOffset="918"/>
    <contour>
      <point x="988" y="870" type="move" name="R"/>
    </contour>
    <contour>
      <point x="616" y="1370" type="move" name="U"/>
    </contour>
    <contour>
      <point x="620" y="-100" type="move" name="L"/>
    </contour>
  </outline>
</glyph>
<glyph name="LtnSmAOgonek" format="1">
  <advance width="922"/>
  <unicode hex="0105"/>
  <outline>
    <component base="LtnSmA"/>
    <component base="CombOgonek" xOffset="1179"/>
    <contour>
      <point x="368" y="0" type="move" name="H"/>
    </contour>
    <contour>
      <point x="933" y="870" type="move" name="R"/>
    </contour>
    <contour>
      <point x="550" y="1000" type="move" name="U"/>
    </contour>
    <contour>
      <point x="591" y="-600" type="move" name="L"/>
    </contour>
  </outline>
</glyph>
<glyph name="LtnCapCCircum" format="1">
  <advance width="995"/>
  <unicode hex="0108"/>
  <outline>
    <component base="LtnCapC"/>
    <component base="CombCircum.LP" xOffset="1038" yOffset="320"/>
    <contour>
      <point x="465" y="0" type="move" name="H"/>
    </contour>
    <contour>
      <point x="491" y="-100" type="move" name="L"/>
    </contour>
    <contour>
      <point x="745" y="1735" type="move" name="U"/>
    </contour>
  </outline>
</glyph>
<glyph name="LtnSmCDotAbv" format="1">
  <advance width="795"/>
  <unicode hex="010B"/>
  <outline>
    <component base="LtnSmC"/>
    <component base="CombDotAbv" xOffset="886"/>
    <contour>
      <point x="353" y="0" type="move" name="H"/>
    </contour>
    <contour>
      <point x="380" y="-100" type="move" name="L"/>
    </contour>
    <contour>
      <point x="870" y="870" type="move" name="R"/>
    </contour>
    <contour>
      <point x="579" y="1353" type="move" name="U"/>
    </contour>
  </outline>
</glyph>
<glyph name="LtnCapCCaron" format="1">
  <advance width="995"/>
  <unicode hex="010C"/>
  <outline>
    <component base="LtnCapC"/>
    <component base="CombCaron.LP" xOffset="1043" yOffset="320"/>
    <contour>
      <point x="465" y="0" type="move" name="H"/>
    </contour>
    <contour>
      <point x="491" y="-100" type="move" name="L"/>
    </contour>
    <contour>
      <point x="735" y="1668" type="move" name="U"/>
    </contour>
  </outline>
</glyph>
<glyph name="LtnCapDCaron" format="1">
  <advance width="1118"/>
  <unicode hex="010E"/>
  <outline>
    <component base="LtnCapD"/>
    <component base="CombCaron.LP" xOffset="1016" yOffset="320"/>
    <contour>
      <point x="464" y="-100" type="move" name="L"/>
    </contour>
    <contour>
      <point x="708" y="1668" type="move" name="U"/>
    </contour>
  </outline>
</glyph>
<glyph name="LtnSmEDotAbv" format="1">
  <advance width="805"/>
  <unicode hex="0117"/>
  <outline>
    <component base="LtnSmE"/>
    <component base="CombDotAbv" xOffset="866"/>
    <contour>
      <point x="358" y="0" type="move" name="H"/>
    </contour>
    <contour>
      <point x="884" y="870" type="move" name="R"/>
    </contour>
    <contour>
      <point x="559" y="1353" type="move" name="U"/>
    </contour>
    <contour>
      <point x="344" y="-100" type="move" name="L"/>
    </contour>
    <contour>
      <point x="408" y="0" type="move" name="O"/>
    </contour>
  </outline>
</glyph>
<glyph name="LtnCapEOgonek" format="1">
  <advance width="946"/>
  <unicode hex="0118"/>
  <outline>
    <component base="LtnCapE"/>
    <component base="CombOgonek" xOffset="1077"/>
    <contour>
      <point x="411" y="0" type="move" name="H"/>
    </contour>
    <contour>
      <point x="489" y="-600" type="move" name="L"/>
    </contour>
    <contour>
      <point x="972" y="1072" type="move" name="R"/>
    </contour>
    <contour>
      <point x="591" y="1320" type="move" name="U"/>
    </contour>
  </outline>
</glyph>
<glyph name="LtnSmECaron" format="1">
  <advance width="805"/>
  <unicode hex="011B"/>
  <outline>
    <component base="LtnSmE"/>
    <component base="CombCaron" xOffset="867"/>
    <contour>
      <point x="358" y="0" type="move" name="H"/>
    </contour>
    <contour>
      <point x="344" y="-100" type="move" name="L"/>
    </contour>
    <contour>
      <point x="408" y="0" type="move" name="O"/>
    </contour>
    <contour>
      <point x="884" y="870" type="move" name="R"/>
    </contour>
    <contour>
      <point x="570" y="1422" type="move" name="U"/>
    </contour>
  </outline>
</glyph>
<glyph name="LtnSmGCircum" format="1">
  <advance width="911"/>
  <unicode hex="011D"/>
  <outline>
    <component base="LtnSmG"/>
    <component base="CombCircum" xOffset="867"/>
    <contour>
      <point x="310" y="-450" type="move" name="H"/>
    </contour>
    <contour>
      <point x="296" y="-600" type="move" name="L"/>
    </contour>
    <contour>
      <point x="940" y="870" type="move" name="R"/>
    </contour>
    <contour>
      <point x="588" y="1490" type="move" name="U"/>
    </contour>
  </outline>
</glyph>
<glyph name="LtnSmGDotAbv" format="1">
  <advance width="911"/>
  <unicode hex="0121"/>
  <outline>
    <component base="LtnSmG"/>
    <component base="CombDotAbv" xOffset="871"/>
    <contour>
      <point x="310" y="-450" type="move" name="H"/>
    </contour>
    <contour>
      <point x="296" y="-600" type="move" name="L"/>
    </contour>
    <contour>
      <point x="940" y="870" type="move" name="R"/>
    </contour>
    <contour>
      <point x="564" y="1353" type="move" name="U"/>
    </contour>
  </outline>
</glyph>
<glyph name="LtnCapITilde" format="1">
  <advance width="573"/>
  <unicode hex="0128"/>
  <outline>
    <component base="LtnCapI"/>
    <component base="CombTilde.LP" xOffset="761" yOffset="320"/>
    <contour>
      <point x="225" y="0" type="move" name="H"/>
    </contour>
    <contour>
      <point x="211" y="-100" type="move" name="L"/>
    </contour>
    <contour>
      <point x="285" y="0" type="move" name="O"/>
    </contour>
    <contour>
      <point x="568" y="1072" type="move" name="R"/>
    </contour>
    <contour>
      <point x="450" y="1640" type="move" name="U"/>
    </contour>
  </outline>
</glyph>
<glyph name="LtnSmITilde" format="1">
  <advance width="504"/>
  <unicode hex="0129"/>
  <outline>
    <component base="LtnSmDotlessI"/>
    <component base="CombTilde" xOffset="689"/>
    <contour>
      <point x="210" y="0" type="move" name="H"/>
    </contour>
    <contour>
      <point x="212" y="-100" type="move" name="L"/>
    </contour>
    <contour>
      <point x="272" y="0" type="move" name="O"/>
    </contour>
    <contour>
      <point x="520" y="870" type="move" name="R"/>
    </contour>
    <contour>
      <point x="383" y="1353" type="move" name="U"/>
    </contour>
  </outline>
</glyph>
<glyph name="LtnCapIMacron" format="1">
  <advance width="573"/>
  <unicode hex="012A"/>
  <outline>
    <component base="LtnCapI"/>
    <component base="CombMacron.Short.LP" xOffset="771" yOffset="320"/>
    <contour>
      <point x="225" y="0" type="move" name="H"/>
    </contour>
    <contour>
      <point x="211" y="-100" type="move" name="L"/>
    </contour>
    <contour>
      <point x="285" y="0" type="move" name="O"/>
    </contour>
    <contour>
      <point x="568" y="1072" type="move" name="R"/>
    </contour>
    <contour>
      <point x="450" y="1640" type="move" name="U"/>
    </contour>
  </outline>
</glyph>
<glyph name="LtnSmIOgonek" format="1">
  <advance width="504"/>
  <unicode hex="012F"/>
  <outline>
    <component base="LtnSmI"/>
    <component base="CombOgonek" xOffset="731"/>
    <contour>
      <point x="210" y="0" type="move" name="H"/>
    </contour>
    <contour>
      <point x="504" y="870" type="move" name="R"/>
    </contour>
    <contour>
      <point x="357" y="1000" type="move" name="U"/>
    </contour>
    <contour>
      <point x="143" y="-600" type="move" name="L"/>
    </contour>
  </outline>
</glyph>
<glyph name="LtnSmLigIj" format="1">
  <advance width="1006"/>
  <unicode hex="0133"/>
  <outline>
    <component base="LtnSmI"/>
    <component base="LtnSmJ" xOffset="504"/>
    <contour>
      <point x="188" y="0" type="move" name="H"/>
    </contour>
    <contour>
      <point x="278" y="0" type="move" name="O"/>
    </contour>
    <contour>
      <point x="655" y="1410" type="move" name="U"/>
    </contour>
    <contour>
      <point x="612" y="-600" type="move" name="L"/>
    </contour>
  </outline>
</glyph>
<glyph name="LtnCapJCircum" format="1">
  <advance width="578"/>
  <unicode hex="0134"/>
  <outline>
    <component base="LtnCapJ"/>
    <component base="CombCircum.LP" xOffset="782" yOffset="320"/>
    <contour>
      <point x="160" y="-600" type="move" name="L"/>
    </contour>
    <contour>
      <point x="489" y="1735" type="move" name="U"/>
    </contour>
  </outline>
</glyph>
<glyph name="LtnCapKCedilla" format="1">
  <advance width="1102"/>
  <unicode hex="0136"/>
  <outline>
    <component base="LtnCapK"/>
    <component base="CombCommaBlw" xOffset="1023"/>
    <contour>
      <point x="200" y="0" type="move" name="H"/>
    </contour>
    <contour>
      <point x="448" y="-600" type="move" name="L"/>
    </contour>
    <contour>
      <point x="711" y="1320" type="move" name="U"/>
    </contour>
  </outline>
</glyph>
<glyph name="LtnSmLAcute" format="1">
  <advance width="481"/>
  <unicode hex="013A"/>
  <outline>
    <component base="LtnSmL"/>
    <component base="CombAcute.LP" xOffset="737" yOffset="640"/>
    <contour>
      <point x="180" y="0" type="move" name="H"/>
    </contour>
    <contour>
      <point x="188" y="-100" type="move" name="L"/>
    </contour>
    <contour>
      <point x="484" y="870" type="move" name="R"/>
    </contour>
    <contour>
      <point x="428" y="1960" type="move" name="U"/>
    </contour>
  </outline>
</glyph>
<glyph name="LtnCapLCedilla" format="1">
  <advance width="918"/>
  <unicode hex="013B"/>
  <outline>
    <component base="LtnCapL"/>
    <component base="CombCommaBlw" xOffset="900"/>
    <contour>
      <point x="415" y="0" type="move" name="H"/>
    </contour>
    <contour>
      <point x="325" y="-600" type="move" name="L"/>
    </contour>
    <contour>
      <point x="750" y="870" type="move" name="R"/>
    </contour>
    <contour>
      <point x="557" y="1320" type="move" name="U"/>
    </contour>
  </outline>
</glyph>
<glyph name="LtnCapLMiddleDot" format="1">
  <advance width="918"/>
  <unicode hex="013F"/>
  <outline>
    <component base="LtnCapL"/>
    <component base="MiddleDot" xOffset="518"/>
    <contour>
      <point x="210" y="0" type="move" name="H"/>
    </contour>
    <contour>
      <point x="393" y="-100" type="move" name="L"/>
    </contour>
    <contour>
      <point x="557" y="1320" type="move" name="U"/>
    </contour>
  </outline>
</glyph>
<glyph name="LtnSmLMiddleDot" format="1">
  <advance width="891"/>
  <unicode hex="0140"/>
  <outline>
    <component base="LtnSmL"/>
    <component base="MiddleDot" xOffset="481"/>
    <contour>
      <point x="180" y="0" type="move" name="H"/>
    </contour>
    <contour>
      <point x="158" y="-100" type="move" name="L"/>
    </contour>
    <contour>
      <point x="390" y="1570" type="move" name="U"/>
    </contour>
  </outline>
</glyph>
<glyph name="LtnCapNAcute" format="1">
  <advance width="1239"/>
  <unicode hex="0143"/>
  <outline>
    <component base="LtnCapN"/>
    <component base="CombAcute.LP" xOffset="1090" yOffset="320"/>
    <contour>
      <point x="940" y="0" type="move" name="H"/>
    </contour>
    <contour>
      <point x="781" y="1640" type="move" name="U"/>
    </contour>
    <contour>
      <point x="542" y="-100" type="move" name="L"/>
    </contour>
  </outline>
</glyph>
<glyph name="LtnCapNCedilla" format="1">
  <advance width="1239"/>
  <unicode hex="0145"/>
  <outline>
    <component base="LtnCapN"/>
    <component base="CombCommaBlw" xOffset="1049"/>
    <contour>
      <point x="940" y="0" type="move" name="H"/>
    </contour>
    <contour>
      <point x="737" y="1320" type="move" name="U"/>
    </contour>
    <contour>
      <point x="474" y="-600" type="move" name="L"/>
    </contour>
  </outline>
</glyph>
<glyph name="LtnCapNCaron" format="1">
  <advance width="1239"/>
  <unicode hex="0147"/>
  <outline>
    <component base="LtnCapN"/>
    <component base="CombCaron.LP" xOffset="1094" yOffset="320"/>
    <contour>
      <point x="940" y="0" type="move" name="H"/>
    </contour>
    <contour>
      <point x="542" y="-100" type="move" name="L"/>
    </contour>
    <contour>
      <point x="786" y="1668" type="move" name="U"/>
    </contour>
  </outline>
</glyph>
<glyph name="LtnSmOBreve" format="1">
  <advance width="864"/>
  <unicode hex="014F"/>
  <outline>
    <component base="LtnSmO"/>
    <component base="CombBreve" xOffset="859"/>
    <contour>
      <point x="374" y="0" type="move" name="H"/>
    </contour>
    <contour>
      <point x="354" y="-100" type="move" name="L"/>
    </contour>
    <contour>
      <point x="429" y="0" type="move" name="O"/>
    </contour>
    <contour>
      <point x="920" y="870" type="move" name="R"/>
    </contour>
    <contour>
      <point x="549" y="1320" type="move" name="U"/>
    </contour>
  </outline>
</glyph>
<glyph name="LtnCapODblAcute" format="1">
  <advance width="1116"/>
  <unicode hex="0150"/>
  <outline>
    <component base="LtnCapO"/>
    <component base="CombDblAcute" xOffset="1061" yOffset="320"/>
    <contour>
      <point x="500" y="0" type="move" name="H"/>
    </contour>
    <contour>
      <point x="505" y="-100" type="move" name="L"/>
    </contour>
    <contour>
      <point x="560" y="0" type="move" name="O"/>
    </contour>
    <contour>
      <point x="1202" y="1072" type="move" name="R"/>
    </contour>
    <contour>
      <point x="845" y="1844" type="move" name="U"/>
    </contour>
  </outline>
</glyph>
<glyph name="LtnSmRCedilla" format="1">
  <advance width="727"/>
  <unicode hex="0157"/>
  <outline>
    <component base="LtnSmR"/>
    <component base="CombCommaBlw" xOffset="671"/>
    <contour>
      <point x="175" y="0" type="move" name="H"/>
    </contour>
    <contour>
      <point x="96" y="-600" type="move" name="L"/>
    </contour>
    <contour>
      <point x="460" y="1000" type="move" name="U"/>
    </contour>
  </outline>
</glyph>
<glyph name="LtnSmRCaron" format="1">
  <advance width="727"/>
  <unicode hex="0159"/>
  <outline>
    <component base="LtnSmR"/>
    <component base="CombCaron" xOffset="817"/>
    <contour>
      <point x="175" y="0" type="move" name="H"/>
    </contour>
    <contour>
      <point x="520" y="1422" type="move" name="U"/>
    </contour>
    <contour>
      <point x="164" y="-100" type="move" name="L"/>
    </contour>
  </outline>
</glyph>
<glyph name="LtnCapSAcute" format="1">
  <advance width="899"/>
  <unicode hex="015A"/>
  <outline>
    <component base="LtnCapS"/>
    <component base="CombAcute.LP" xOffset="927" yOffset="320"/>
    <contour>
      <point x="394" y="0" type="move" name="H"/>
    </contour>
    <contour>
      <point x="380" y="-100" type="move" name="L"/>
    </contour>
    <contour>
      <point x="618" y="1640" type="move" name="U"/>
    </contour>
  </outline>
</glyph>
<glyph name="LtnCapSCircum" format="1">
  <advance width="899"/>
  <unicode hex="015C"/>
  <outline>
    <component base="LtnCapS"/>
    <component base="CombCircum.LP" xOffset="926" yOffset="320"/>
    <contour>
      <point x="394" y="0" type="move" name="H"/>
    </contour>
    <contour>
      <point x="380" y="-100" type="move" name="L"/>
    </contour>
    <contour>
      <point x="633" y="1735" type="move" name="U"/>
    </contour>
  </outline>
</glyph>
<glyph name="LtnSmSCedilla" format="1">
  <advance width="711"/>
  <unicode hex="015F"/>
  <outline>
    <component base="LtnSmS"/>
    <component base="CombCedilla" xOffset="777"/>
    <contour>
      <point x="437" y="1000" type="move" name="U"/>
    </contour>
    <contour>
      <point x="208" y="-600" type="move" name="L"/>
    </contour>
  </outline>
</glyph>
<glyph name="LtnSmSCaron" format="1">
  <advance width="711"/>
  <unicode hex="0161"/>
  <outline>
    <component base="LtnSmS"/>
    <component base="CombCaron" xOffset="794"/>
    <contour>
      <point x="290" y="0" type="move" name="H"/>
    </contour>
    <contour>
      <point x="286" y="-100" type="move" name="L"/>
    </contour>
    <contour>
      <point x="497" y="1422" type="move" name="U"/>
    </contour>
  </outline>
</glyph>
<glyph name="LtnCapTCedilla" format="1">
  <advance width="1067"/>
  <unicode hex="0162"/>
  <outline>
    <component base="LtnCapT"/>
    <component base="CombCedilla" xOffset="948"/>
    <contour>
      <point x="641" y="1320" type="move" name="U"/>
    </contour>
    <contour>
      <point x="379" y="-600" type="move" name="L"/>
    </contour>
  </outline>
</glyph>
<glyph name="LtnCapTCaron" format="1">
  <advance width="1067"/>
  <unicode hex="0164"/>
  <outline>
    <component base="LtnCapT"/>
    <component base="CombCaron.LP" xOffset="998" yOffset="320"/>
    <contour>
      <point x="461" y="0" type="move" name="H"/>
    </contour>
    <contour>
      <point x="447" y="-100" type="move" name="L"/>
    </contour>
    <contour>
      <point x="690" y="1668" type="move" name="U"/>
    </contour>
  </outline>
</glyph>
<glyph name="LtnSmUMacron" format="1">
  <advance width="1022"/>
  <unicode hex="016B"/>
  <outline>
    <component base="LtnSmU"/>
    <component base="CombMacron" xOffset="946"/>
    <contour>
      <point x="408" y="0" type="move" name="H"/>
    </contour>
    <contour>
      <point x="1000" y="870" type="move" name="R"/>
    </contour>
    <contour>
      <point x="633" y="1370" type="move" name="U"/>
    </contour>
    <contour>
      <point x="430" y="-100" type="move" name="L"/>
    </contour>
    <contour>
      <point x="797" y="0" type="move" name="O"/>
    </contour>
  </outline>
</glyph>
<glyph name="LtnCapUOgonek" format="1">
  <advance width="1227"/>
  <unicode hex="0172"/>
  <outline>
    <component base="LtnCapU"/>
    <component base="CombOgonek" xOffset="1117"/>
    <contour>
      <point x="580" y="0" type="move" name="H"/>
    </contour>
    <contour>
      <point x="493" y="-600" type="move" name="L"/>
    </contour>
    <contour>
      <point x="1255" y="1071" type="move" name="R"/>
    </contour>
    <contour>
      <point x="757" y="1320" type="move" name="U"/>
    </contour>
  </outline>
</glyph>
<glyph name="LtnCapWCircum" format="1">
  <advance width="1571"/>
  <unicode hex="0174"/>
  <outline>
    <component base="LtnCapW"/>
    <component base="CombCircum.LP" xOffset="1263" yOffset="320"/>
    <contour>
      <point x="970" y="1735" type="move" name="U"/>
    </contour>
    <contour>
      <point x="716" y="-100" type="move" name="L"/>
    </contour>
  </outline>
</glyph>
<glyph name="LtnSmWCircum" format="1">
  <advance width="1290"/>
  <unicode hex="0175"/>
  <outline>
    <component base="LtnSmW"/>
    <component base="CombCircum" xOffset="1105"/>
    <contour>
      <point x="602" y="-100" type="move" name="L"/>
    </contour>
    <contour>
      <point x="826" y="1490" type="move" name="U"/>
    </contour>
  </outline>
</glyph>
<glyph name="LtnCapYCircum" format="1">
  <advance width="1145"/>
  <unicode hex="0176"/>
  <outline>
    <component base="LtnCapY"/>
    <component base="CombCircum.LP" xOffset="1039" yOffset="320"/>
    <contour>
      <point x="746" y="1735" type="move" name="U"/>
    </contour>
    <contour>
      <point x="493" y="-100" type="move" name="L"/>
    </contour>
  </outline>
</glyph>
<glyph name="LtnSmYCircum" format="1">
  <advance width="926"/>
  <unicode hex="0177"/>
  <outline>
    <component base="LtnSmY"/>
    <component base="CombCircum" xOffset="917"/>
    <contour>
      <point x="620" y="-100" type="move" name="L"/>
    </contour>
    <contour>
      <point x="988" y="870" type="move" name="R"/>
    </contour>
    <contour>
      <point x="638" y="1490" type="move" name="U"/>
    </contour>
  </outline>
</glyph>
<glyph name="LtnCapYDiaer" format="1">
  <advance width="1145"/>
  <unicode hex="0178"/>
  <outline>
    <component base="LtnCapY"/>
    <component base="CombDiaer.LP" xOffset="1042" yOffset="320"/>
    <contour>
      <point x="493" y="-100" type="move" name="L"/>
    </contour>
    <contour>
      <point x="731" y="1640" type="move" name="U"/>
    </contour>
  </outline>
</glyph>
<glyph name="LtnCapZAcute" format="1">
  <advance width="1022"/>
  <unicode hex="0179"/>
  <outline>
    <component base="LtnCapZ"/>
    <component base="CombAcute.LP" xOffset="992" yOffset="320"/>
    <contour>
      <point x="465" y="-100" type="move" name="L"/>
    </contour>
    <contour>
      <point x="683" y="1640" type="move" name="U"/>
    </contour>
  </outline>
</glyph>
<glyph name="LtnCapZDotAbv" format="1">
  <advance width="1022"/>
  <unicode hex="017B"/>
  <outline>
    <component base="LtnCapZ"/>
    <component base="CombDotAbv.LP" xOffset="995" yOffset="320"/>
    <contour>
      <point x="683" y="1640" type="move" name="U"/>
    </contour>
    <contour>
      <point x="465" y="-100" type="move" name="L"/>
    </contour>
  </outline>
</glyph>
<glyph name="LtnSmZCaron" format="1">
  <advance width="776"/>
  <unicode hex="017E"/>
  <outline>
    <component base="LtnSmZ"/>
    <component base="CombCaron" xOffset="845"/>
    <contour>
      <point x="380" y="0" type="move" name="H"/>
    </contour>
    <contour>
      <point x="548" y="1422" type="move" name="U"/>
    </contour>
    <contour>
      <point x="347" y="-100" type="move" name="L"/>
    </contour>
  </outline>
</glyph>
<glyph name="LtnSmOHorn" format="1">
  <advance width="948"/>
  <unicode hex="01A1"/>
  <outline>
    <component base="LtnSmO"/>
    <component base="CombHorn" xOffset="860"/>
    <contour>
      <point x="354" y="-100" type="move" name="L"/>
    </contour>
    <contour>
      <point x="505" y="1000" type="move" name="U"/>
    </contour>
  </outline>
</glyph>
<glyph name="LtnSmUHorn" format="1">
  <advance width="1108"/>
  <unicode hex="01B0"/>
  <outline>
    <component base="LtnSmU"/>
    <component base="CombHorn" xOffset="1020"/>
    <contour>
      <point x="430" y="-100" type="move" name="L"/>
    </contour>
    <contour>
      <point x="581" y="1000" type="move" name="U"/>
    </contour>
  </outline>
</glyph>
<glyph name="LtnCapDzCaron" format="1">
  <advance width="2140"/>
  <unicode hex="01C4"/>
  <outline>
    <component base="LtnCapD"/>
    <component base="LtnCapZ" xOffset="1118"/>
    <component base="CombCaron.LP" xOffset="2114" yOffset="320"/>
    <contour>
      <point x="1806" y="1668" type="move" name="U"/>
    </contour>
    <contour>
      <point x="1583" y="-100" type="move" name="L"/>
    </contour>
  </outline>
</glyph>
<glyph name="LtnCapDSmZCaron" format="1">
  <advance width="1894"/>
  <unicode hex="01C5"/>
  <outline>
    <component base="LtnCapD"/>
    <component base="LtnSmZ" xOffset="1118"/>
    <component base="CombCaron" xOffset="1963"/>
    <contour>
      <point x="1498" y="0" type="move" name="H"/>
    </contour>
    <contour>
      <point x="1465" y="-100" type="move" name="L"/>
    </contour>
    <contour>
      <point x="1666" y="1422" type="move" name="U"/>
    </contour>
  </outline>
</glyph>
<glyph name="LtnSmDzCaron" format="1">
  <advance width="1745"/>
  <unicode hex="01C6"/>
  <outline>
    <component base="LtnSmD"/>
    <component base="LtnSmZ" xOffset="969"/>
    <component base="CombCaron" xOffset="1824"/>
    <contour>
      <point x="1353" y="0" type="move" name="H"/>
    </contour>
    <contour>
      <point x="1316" y="-100" type="move" name="L"/>
    </contour>
    <contour>
      <point x="1511" y="1320" type="move" name="U"/>
    </contour>
  </outline>
</glyph>
<glyph name="LtnSmLj" format="1">
  <advance width="983"/>
  <unicode hex="01C9"/>
  <outline>
    <component base="LtnSmL"/>
    <component base="LtnSmJ" xOffset="481"/>
    <contour>
      <point x="164" y="0" type="move" name="H"/>
    </contour>
    <contour>
      <point x="589" y="-600" type="move" name="L"/>
    </contour>
    <contour>
      <point x="808" y="1000" type="move" name="U"/>
    </contour>
  </outline>
</glyph>
<glyph name="LtnCapNj" format="1">
  <advance width="1817"/>
  <unicode hex="01CA"/>
  <outline>
    <component base="LtnCapN"/>
    <component base="LtnCapJ" xOffset="1239"/>
    <contour>
      <point x="940" y="0" type="move" name="H"/>
    </contour>
    <contour>
      <point x="1669" y="1320" type="move" name="U"/>
    </contour>
    <contour>
      <point x="1399" y="-600" type="move" name="L"/>
    </contour>
  </outline>
</glyph>
<glyph name="LtnCapNSmJ" format="1">
  <advance width="1741"/>
  <unicode hex="01CB"/>
  <outline>
    <component base="LtnCapN"/>
    <component base="LtnSmJ" xOffset="1239"/>
    <contour>
      <point x="580" y="0" type="move" name="H"/>
    </contour>
    <contour>
      <point x="1347" y="-600" type="move" name="L"/>
    </contour>
    <contour>
      <point x="1566" y="1000" type="move" name="U"/>
    </contour>
  </outline>
</glyph>
<glyph name="LtnSmICaron" format="1">
  <advance width="504"/>
  <unicode hex="01D0"/>
  <outline>
    <component base="LtnSmDotlessI"/>
    <component base="CombCaron" xOffset="691"/>
    <contour>
      <point x="210" y="0" type="move" name="H"/>
    </contour>
    <contour>
      <point x="212" y="-100" type="move" name="L"/>
    </contour>
    <contour>
      <point x="272" y="0" type="move" name="O"/>
    </contour>
    <contour>
      <point x="520" y="870" type="move" name="R"/>
    </contour>
    <contour>
      <point x="394" y="1422" type="move" name="U"/>
    </contour>
  </outline>
</glyph>
<glyph name="LtnSmUDiaerAcute" format="1">
  <advance width="1022"/>
  <unicode hex="01D8"/>
  <outline>
    <component base="LtnSmU"/>
    <component base="CombDiaer" xOffset="936"/>
    <component base="CombAcute" xOffset="986" yOffset="370"/>
    <contour>
      <point x="408" y="0" type="move" name="H"/>
    </contour>
    <contour>
      <point x="1000" y="870" type="move" name="R"/>
    </contour>
    <contour>
      <point x="684" y="1740" type="move" name="U"/>
    </contour>
    <contour>
      <point x="430" y="-100" type="move" name="L"/>
    </contour>
    <contour>
      <point x="797" y="0" type="move" name="O"/>
    </contour>
  </outline>
</glyph>
<glyph name="LtnCapUDiaerCaron" format="1">
  <advance width="1227"/>
  <unicode hex="01D9"/>
  <outline>
    <component base="LtnCapU"/>
    <component base="CombDiaer.LP" xOffset="1112" yOffset="320"/>
    <component base="CombCaron.LP" xOffset="1158" yOffset="640"/>
    <contour>
      <point x="580" y="0" type="move" name="H"/>
    </contour>
    <contour>
      <point x="563" y="-100" type="move" name="L"/>
    </contour>
    <contour>
      <point x="661" y="0" type="move" name="O"/>
    </contour>
    <contour>
      <point x="1256" y="1072" type="move" name="R"/>
    </contour>
    <contour>
      <point x="850" y="1988" type="move" name="U"/>
    </contour>
  </outline>
</glyph>
<glyph name="LtnCapUDiaerGrave" format="1">
  <advance width="1227"/>
  <unicode hex="01DB"/>
  <outline>
    <component base="LtnCapU"/>
    <component base="CombDiaer.LP" xOffset="1112" yOffset="320"/>
    <component base="CombGrave.LP" xOffset="1076" yOffset="640"/>
    <contour>
      <point x="580" y="0" type="move" name="H"/>
    </contour>
    <contour>
      <point x="563" y="-100" type="move" name="L"/>
    </contour>
    <contour>
      <point x="661" y="0" type="move" name="O"/>
    </contour>
    <contour>
      <point x="1256" y="1072" type="move" name="R"/>
    </contour>
    <contour>
      <point x="844" y="1960" type="move" name="U"/>
    </contour>
  </outline>
</glyph>
<glyph name="LtnSmUDiaerGrave" format="1">
  <advance width="1022"/>
  <unicode hex="01DC"/>
  <outline>
    <component base="LtnSmU"/>
    <component base="CombDiaer" xOffset="936"/>
    <component base="CombGrave" xOffset="908" yOffset="370"/>
    <contour>
      <point x="408" y="0" type="move" name="H"/>
    </contour>
    <contour>
      <point x="430" y="-100" type="move" name="L"/>
    </contour>
    <contour>
      <point x="797" y="0" type="move" name="O"/>
    </contour>
    <contour>
      <point x="1000" y="870" type="move" name="R"/>
    </contour>
    <contour>
      <point x="683" y="1740" type="move" name="U"/>
    </contour>
  </outline>
</glyph>
<glyph name="LtnSmTurnedE" format="1">
  <advance width="805"/>
  <unicode hex="01DD"/>
  <outline>
    <component base="LtnSmSchwa"/>
    <contour>
      <point x="470" y="1000" type="move" name="U"/>
    </contour>
    <contour>
      <point x="319" y="-100" type="move" name="L"/>
    </contour>
  </outline>
</glyph>
<glyph name="LtnCapADiaerMacron" format="1">
  <advance width="1147"/>
  <unicode hex="01DE"/>
  <outline>
    <component base="LtnCapA"/>
    <component base="CombDiaer.LP" xOffset="1051" yOffset="320"/>
    <component base="CombMacron.LP" xOffset="1105" yOffset="640"/>
    <contour>
      <point x="514" y="0" type="move" name="H"/>
    </contour>
    <contour>
      <point x="502" y="-100" type="move" name="L"/>
    </contour>
    <contour>
      <point x="846" y="0" type="move" name="O"/>
    </contour>
    <contour>
      <point x="784" y="1960" type="move" name="U"/>
    </contour>
  </outline>
</glyph>
<glyph name="LtnCapADotAbvMacron" format="1">
  <advance width="1147"/>
  <unicode hex="01E0"/>
  <outline>
    <component base="LtnCapA"/>
    <component base="DotAbv" xOffset="470" yOffset="320"/>
    <component base="CombMacron" xOffset="1109" yOffset="673"/>
    <contour>
      <point x="880" y="0" type="move" name="H"/>
    </contour>
    <contour>
      <point x="502" y="-100" type="move" name="L"/>
    </contour>
    <contour>
      <point x="846" y="0" type="move" name="O"/>
    </contour>
    <contour>
      <point x="793" y="2026" type="move" name="U"/>
    </contour>
  </outline>
</glyph>
<glyph name="LtnSmKCaron" format="1">
  <advance width="899"/>
  <unicode hex="01E9"/>
  <outline>
    <component base="LtnSmK"/>
    <component base="CombCaron.LP" xOffset="974" yOffset="580"/>
    <contour>
      <point x="170" y="0" type="move" name="H"/>
    </contour>
    <contour>
      <point x="984" y="870" type="move" name="R"/>
    </contour>
    <contour>
      <point x="666" y="1928" type="move" name="U"/>
    </contour>
    <contour>
      <point x="383" y="-100" type="move" name="L"/>
    </contour>
  </outline>
</glyph>
<glyph name="LtnCapOOgonek" format="1">
  <advance width="1116"/>
  <unicode hex="01EA"/>
  <outline>
    <component base="LtnCapO"/>
    <component base="CombOgonek" xOffset="1016"/>
    <contour>
      <point x="500" y="0" type="move" name="H"/>
    </contour>
    <contour>
      <point x="428" y="-600" type="move" name="L"/>
    </contour>
    <contour>
      <point x="1202" y="1072" type="move" name="R"/>
    </contour>
    <contour>
      <point x="700" y="1320" type="move" name="U"/>
    </contour>
  </outline>
</glyph>
<glyph name="LtnSmOOgonekMacron" format="1">
  <advance width="864"/>
  <unicode hex="01ED"/>
  <outline>
    <component base="LtnSmOOgonek"/>
    <component base="CombMacron" xOffset="870"/>
    <contour>
      <point x="332" y="0" type="move" name="H"/>
    </contour>
    <contour>
      <point x="900" y="870" type="move" name="R"/>
    </contour>
    <contour>
      <point x="557" y="1370" type="move" name="U"/>
    </contour>
    <contour>
      <point x="297" y="-600" type="move" name="L"/>
    </contour>
  </outline>
</glyph>
<glyph name="LtnCapEzhCaron" format="1">
  <advance width="959"/>
  <unicode hex="01EE"/>
  <outline>
    <component base="LtnCapEzh"/>
    <component base="CombCaron.LP" xOffset="978" yOffset="320"/>
    <contour>
      <point x="430" y="-100" type="move" name="L"/>
    </contour>
    <contour>
      <point x="670" y="1668" type="move" name="U"/>
    </contour>
  </outline>
</glyph>
<glyph name="LtnCapDz" format="1">
  <advance width="2140"/>
  <unicode hex="01F1"/>
  <outline>
    <component base="LtnCapD"/>
    <component base="LtnCapZ" xOffset="1118"/>
    <contour>
      <point x="1583" y="-100" type="move" name="L"/>
    </contour>
    <contour>
      <point x="1757" y="1320" type="move" name="U"/>
    </contour>
  </outline>
</glyph>
<glyph name="LtnCapDSmZ" format="1">
  <advance width="1894"/>
  <unicode hex="01F2"/>
  <outline>
    <component base="LtnCapD"/>
    <component base="LtnSmZ" xOffset="1118"/>
    <contour>
      <point x="1498" y="0" type="move" name="H"/>
    </contour>
    <contour>
      <point x="1465" y="-100" type="move" name="L"/>
    </contour>
    <contour>
      <point x="1606" y="1000" type="move" name="U"/>
    </contour>
  </outline>
</glyph>
<glyph name="LtnCapGAcute" format="1">
  <advance width="1073"/>
  <unicode hex="01F4"/>
  <outline>
    <component base="LtnCapG"/>
    <component base="CombAcute.LP" xOffset="1073" yOffset="320"/>
    <contour>
      <point x="520" y="0" type="move" name="H"/>
    </contour>
    <contour>
      <point x="764" y="1640" type="move" name="U"/>
    </contour>
    <contour>
      <point x="525" y="-100" type="move" name="L"/>
    </contour>
  </outline>
</glyph>
<glyph name="LtnCapARingAbvAcute" format="1">
  <advance width="1147"/>
  <unicode hex="01FA"/>
  <outline>
    <component base="LtnCapA"/>
    <component base="CombRingAbv" xOffset="1050" yOffset="320"/>
    <component base="CombAcute.LP" xOffset="1103" yOffset="740"/>
    <contour>
      <point x="514" y="0" type="move" name="H"/>
    </contour>
    <contour>
      <point x="794" y="2060" type="move" name="U"/>
    </contour>
    <contour>
      <point x="502" y="-100" type="move" name="L"/>
    </contour>
    <contour>
      <point x="846" y="0" type="move" name="O"/>
    </contour>
  </outline>
</glyph>
<glyph name="LtnSmARingAbvAcute" format="1">
  <advance width="922"/>
  <unicode hex="01FB"/>
  <outline>
    <component base="LtnSmA"/>
    <component base="CombRingAbv" xOffset="904"/>
    <component base="CombAcute.LP" xOffset="957" yOffset="420"/>
    <contour>
      <point x="368" y="0" type="move" name="H"/>
    </contour>
    <contour>
      <point x="400" y="-100" type="move" name="L"/>
    </contour>
    <contour>
      <point x="723" y="0" type="move" name="O"/>
    </contour>
    <contour>
      <point x="933" y="870" type="move" name="R"/>
    </contour>
    <contour>
      <point x="648" y="1740" type="move" name="U"/>
    </contour>
  </outline>
</glyph>
<glyph name="LtnCapAeAcute" format="1">
  <advance width="1464"/>
  <unicode hex="01FC"/>
  <outline>
    <component base="LtnCapAe"/>
    <component base="CombAcute.LP" xOffset="1339" yOffset="320"/>
    <contour>
      <point x="721" y="-100" type="move" name="L"/>
    </contour>
    <contour>
      <point x="1030" y="1640" type="move" name="U"/>
    </contour>
  </outline>
</glyph>
<glyph name="LtnSmAeAcute" format="1">
  <advance width="1325"/>
  <unicode hex="01FD"/>
  <outline>
    <component base="LtnSmAe"/>
    <component base="CombAcute" xOffset="1103"/>
    <contour>
      <point x="618" y="0" type="move" name="H"/>
    </contour>
    <contour>
      <point x="599" y="-100" type="move" name="L"/>
    </contour>
    <contour>
      <point x="930" y="0" type="move" name="O"/>
    </contour>
    <contour>
      <point x="1408" y="870" type="move" name="R"/>
    </contour>
    <contour>
      <point x="801" y="1370" type="move" name="U"/>
    </contour>
  </outline>
</glyph>
<glyph name="LtnCapAInvBreve" format="1">
  <advance width="1147"/>
  <unicode hex="0202"/>
  <outline>
    <component base="LtnCapA"/>
    <component base="CombInvBreve" xOffset="1050" yOffset="320"/>
    <contour>
      <point x="514" y="0" type="move" name="H"/>
    </contour>
    <contour>
      <point x="740" y="1640" type="move" name="U"/>
    </contour>
    <contour>
      <point x="502" y="-100" type="move" name="L"/>
    </contour>
    <contour>
      <point x="846" y="0" type="move" name="O"/>
    </contour>
  </outline>
</glyph>
<glyph name="LtnCapEDblGrave" format="1">
  <advance width="946"/>
  <unicode hex="0204"/>
  <outline>
    <component base="LtnCapE"/>
    <component base="CombDblGrave" xOffset="949" yOffset="320"/>
    <contour>
      <point x="411" y="0" type="move" name="H"/>
    </contour>
    <contour>
      <point x="397" y="-100" type="move" name="L"/>
    </contour>
    <contour>
      <point x="621" y="0" type="move" name="O"/>
    </contour>
    <contour>
      <point x="972" y="1072" type="move" name="R"/>
    </contour>
    <contour>
      <point x="677" y="1816" type="move" name="U"/>
    </contour>
  </outline>
</glyph>
<glyph name="LtnSmEDblGrave" format="1">
  <advance width="805"/>
  <unicode hex="0205"/>
  <outline>
    <component base="LtnSmE"/>
    <component base="CombDblGrave" xOffset="868"/>
    <contour>
      <point x="358" y="0" type="move" name="H"/>
    </contour>
    <contour>
      <point x="344" y="-100" type="move" name="L"/>
    </contour>
    <contour>
      <point x="408" y="0" type="move" name="O"/>
    </contour>
    <contour>
      <point x="884" y="870" type="move" name="R"/>
    </contour>
    <contour>
      <point x="596" y="1496" type="move" name="U"/>
    </contour>
  </outline>
</glyph>
<glyph name="LtnCapEInvBreve" format="1">
  <advance width="946"/>
  <unicode hex="0206"/>
  <outline>
    <component base="LtnCapE"/>
    <component base="CombInvBreve" xOffset="945" yOffset="320"/>
    <contour>
      <point x="411" y="0" type="move" name="H"/>
    </contour>
    <contour>
      <point x="397" y="-100" type="move" name="L"/>
    </contour>
    <contour>
      <point x="621" y="0" type="move" name="O"/>
    </contour>
    <contour>
      <point x="972" y="1072" type="move" name="R"/>
    </contour>
    <contour>
      <point x="635" y="1640" type="move" name="U"/>
    </contour>
  </outline>
</glyph>
<glyph name="LtnSmIInvBreve" format="1">
  <advance width="504"/>
  <unicode hex="020B"/>
  <outline>
    <component base="LtnSmDotlessI"/>
    <component base="CombInvBreve" xOffset="688"/>
    <contour>
      <point x="210" y="0" type="move" name="H"/>
    </contour>
    <contour>
      <point x="212" y="-100" type="move" name="L"/>
    </contour>
    <contour>
      <point x="272" y="0" type="move" name="O"/>
    </contour>
    <contour>
      <point x="520" y="870" type="move" name="R"/>
    </contour>
    <contour>
      <point x="378" y="1320" type="move" name="U"/>
    </contour>
  </outline>
</glyph>
<glyph name="LtnSmODblGrave" format="1">
  <advance width="864"/>
  <unicode hex="020D"/>
  <outline>
    <component base="LtnSmO"/>
    <component base="CombDblGrave" xOffset="863"/>
    <contour>
      <point x="374" y="0" type="move" name="H"/>
    </contour>
    <contour>
      <point x="354" y="-100" type="move" name="L"/>
    </contour>
    <contour>
      <point x="429" y="0" type="move" name="O"/>
    </contour>
    <contour>
      <point x="920" y="870" type="move" name="R"/>
    </contour>
    <contour>
      <point x="591" y="1496" type="move" name="U"/>
    </contour>
  </outline>
</glyph>
<glyph name="LtnCapOInvBreve" format="1">
  <advance width="1116"/>
  <unicode hex="020E"/>
  <outline>
    <component base="LtnCapO"/>
    <component base="CombInvBreve" xOffset="1054" yOffset="320"/>
    <contour>
      <point x="500" y="0" type="move" name="H"/>
    </contour>
    <contour>
      <point x="1202" y="1072" type="move" name="R"/>
    </contour>
    <contour>
      <point x="744" y="1640" type="move" name="U"/>
    </contour>
    <contour>
      <point x="505" y="-100" type="move" name="L"/>
    </contour>
    <contour>
      <point x="560" y="0" type="move" name="O"/>
    </contour>
  </outline>
</glyph>
<glyph name="LtnSmRDblGrave" format="1">
  <advance width="727"/>
  <unicode hex="0211"/>
  <outline>
    <component base="LtnSmR"/>
    <component base="CombDblGrave" xOffset="818"/>
    <contour>
      <point x="175" y="0" type="move" name="H"/>
    </contour>
    <contour>
      <point x="546" y="1496" type="move" name="U"/>
    </contour>
    <contour>
      <point x="164" y="-100" type="move" name="L"/>
    </contour>
  </outline>
</glyph>
<glyph name="LtnSmRInvBreve" format="1">
  <advance width="727"/>
  <unicode hex="0213"/>
  <outline>
    <component base="LtnSmR"/>
    <component base="CombInvBreve" xOffset="814"/>
    <contour>
      <point x="175" y="0" type="move" name="H"/>
    </contour>
    <contour>
      <point x="164" y="-100" type="move" name="L"/>
    </contour>
    <contour>
      <point x="504" y="1320" type="move" name="U"/>
    </contour>
  </outline>
</glyph>
<glyph name="LtnSmSCommaBlw" format="1">
  <advance width="711"/>
  <unicode hex="0219"/>
  <outline>
    <component base="LtnSmS"/>
    <component base="CombCommaBlw" xOffset="793"/>
    <contour>
      <point x="290" y="0" type="move" name="H"/>
    </contour>
    <contour>
      <point x="218" y="-600" type="move" name="L"/>
    </contour>
    <contour>
      <point x="437" y="1000" type="move" name="U"/>
    </contour>
  </outline>
</glyph>
<glyph name="LtnSmTCommaBlw" format="1">
  <advance width="629"/>
  <unicode hex="021B"/>
  <outline>
    <component base="LtnSmT"/>
    <component base="CombCommaBlw" xOffset="746"/>
    <contour>
      <point x="253" y="0" type="move" name="H"/>
    </contour>
    <contour>
      <point x="171" y="-600" type="move" name="L"/>
    </contour>
    <contour>
      <point x="529" y="870" type="move" name="R"/>
    </contour>
    <contour>
      <point x="424" y="1230" type="move" name="U"/>
    </contour>
  </outline>
</glyph>
<glyph name="LtnSmHCaron" format="1">
  <advance width="1012"/>
  <unicode hex="021F"/>
  <outline>
    <component base="LtnSmH"/>
    <component base="CombCaron.LP" xOffset="1014" yOffset="580"/>
    <contour>
      <point x="158" y="0" type="move" name="H"/>
    </contour>
    <contour>
      <point x="424" y="-100" type="move" name="L"/>
    </contour>
    <contour>
      <point x="706" y="1928" type="move" name="U"/>
    </contour>
  </outline>
</glyph>
<glyph name="LtnCapADotAbv" format="1">
  <advance width="1147"/>
  <unicode hex="0226"/>
  <outline>
    <component base="LtnCapA"/>
    <component base="CombDotAbv.LP" xOffset="1052" yOffset="320"/>
    <contour>
      <point x="514" y="0" type="move" name="H"/>
    </contour>
    <contour>
      <point x="502" y="-100" type="move" name="L"/>
    </contour>
    <contour>
      <point x="846" y="0" type="move" name="O"/>
    </contour>
    <contour>
      <point x="740" y="1640" type="move" name="U"/>
    </contour>
  </outline>
</glyph>
<glyph name="LtnCapODotAbv" format="1">
  <advance width="1116"/>
  <unicode hex="022E"/>
  <outline>
    <component base="LtnCapO"/>
    <component base="CombDotAbv.LP" xOffset="1056" yOffset="320"/>
    <contour>
      <point x="500" y="0" type="move" name="H"/>
    </contour>
    <contour>
      <point x="505" y="-100" type="move" name="L"/>
    </contour>
    <contour>
      <point x="560" y="0" type="move" name="O"/>
    </contour>
    <contour>
      <point x="1202" y="1072" type="move" name="R"/>
    </contour>
    <contour>
      <point x="744" y="1640" type="move" name="U"/>
    </contour>
  </outline>
</glyph>
<glyph name="LtnSmODotAbv" format="1">
  <advance width="864"/>
  <unicode hex="022F"/>
  <outline>
    <component base="LtnSmO"/>
    <component base="CombDotAbv" xOffset="861"/>
    <contour>
      <point x="374" y="0" type="move" name="H"/>
    </contour>
    <contour>
      <point x="920" y="870" type="move" name="R"/>
    </contour>
    <contour>
      <point x="554" y="1353" type="move" name="U"/>
    </contour>
    <contour>
      <point x="354" y="-100" type="move" name="L"/>
    </contour>
    <contour>
      <point x="429" y="0" type="move" name="O"/>
    </contour>
  </outline>
</glyph>
<glyph name="LtnCapODotAbvMacron" format="1">
  <advance width="1116"/>
  <unicode hex="0230"/>
  <outline>
    <component base="LtnCapO"/>
    <component base="CombDotAbv.LP" xOffset="1056" yOffset="320"/>
    <component base="CombMacron.LP" xOffset="1109" yOffset="640"/>
    <contour>
      <point x="500" y="0" type="move" name="H"/>
    </contour>
    <contour>
      <point x="505" y="-100" type="move" name="L"/>
    </contour>
    <contour>
      <point x="560" y="0" type="move" name="O"/>
    </contour>
    <contour>
      <point x="1202" y="1072" type="move" name="R"/>
    </contour>
    <contour>
      <point x="788" y="1960" type="move" name="U"/>
    </contour>
  </outline>
</glyph>
<glyph name="LtnSmYMacron" format="1">
  <advance width="926"/>
  <unicode hex="0233"/>
  <outline>
    <component base="LtnSmY"/>
    <component base="CombMacron" xOffset="930"/>
    <contour>
      <point x="620" y="-100" type="move" name="L"/>
    </contour>
    <contour>
      <point x="988" y="870" type="move" name="R"/>
    </contour>
    <contour>
      <point x="617" y="1370" type="move" name="U"/>
    </contour>
  </outline>
</glyph>
<glyph name="LtnSmDotlessJ" format="1">
  <advance width="502"/>
  <unicode hex="0237"/>
  <outline>
    <component base="LtnSmJ.Dotless"/>
    <contour>
      <point x="108" y="-600" type="move" name="L"/>
    </contour>
    <contour>
      <point x="327" y="1000" type="move" name="U"/>
    </contour>
  </outline>
</glyph>
<glyph name="LtnSmScriptG" format="1">
  <advance width="911"/>
  <unicode hex="0261"/>
  <outline>
    <component base="LtnSmG.SngBowl"/>
    <contour>
      <point x="310" y="-450" type="move" name="H"/>
    </contour>
    <contour>
      <point x="296" y="-600" type="move" name="L"/>
    </contour>
    <contour>
      <point x="940" y="870" type="move" name="R"/>
    </contour>
    <contour>
      <point x="515" y="1000" type="move" name="U"/>
    </contour>
  </outline>
</glyph>
<glyph name="LtnSmIota" format="1">
  <advance width="504"/>
  <unicode hex="0269"/>
  <outline>
    <contour>
      <point x="504" y="182" type="curve"/>
      <point x="479" y="229" type="line"/>
      <point x="408" y="127"/>
      <point x="356" y="104"/>
      <point x="328" y="104" type="curve" smooth="yes"/>
      <point x="293" y="104"/>
      <point x="268" y="111"/>
      <point x="299" y="289" type="curve" smooth="yes"/>
      <point x="408" y="936" type="line"/>
      <point x="377" y="936" type="line"/>
      <point x="291" y="897"/>
      <point x="184" y="870"/>
      <point x="100" y="856" type="curve"/>
      <point x="94" y="817" type="line"/>
      <point x="219" y="805"/>
      <point x="240" y="784"/>
      <point x="215" y="649" type="curve" smooth="yes"/>
      <point x="135" y="190" type="line" smooth="yes"/>
      <point x="109" y="35"/>
      <point x="141" y="-41"/>
      <point x="231" y="-41" type="curve" smooth="yes"/>
      <point x="336" y="-41"/>
      <point x="428" y="45"/>
    </contour>
    <contour>
      <point x="230" y="0" type="move" name="H"/>
    </contour>
    <contour>
      <point x="217" y="-100" type="move" name="L"/>
    </contour>
    <contour>
      <point x="290" y="0" type="move" name="O"/>
    </contour>
    <contour>
      <point x="516" y="870" type="move" name="R"/>
    </contour>
    <contour>
      <point x="345" y="1000" type="move" name="U"/>
    </contour>
  </outline>
</glyph>
<glyph name="ModRtHalfRing" format="1">
  <advance width="475"/>
  <unicode hex="02BE"/>
  <outline>
    <component base="ModCntrdRtHalfRing" xOffset="90" yOffset="680"/>
    <contour>
      <point x="158" y="-100" type="move" name="L"/>
    </contour>
    <contour>
      <point x="390" y="1570" type="move" name="U"/>
    </contour>
  </outline>
</glyph>
<glyph name="ModPlusSgn" format="1">
  <advance width="574"/>
  <unicode hex="02D6"/>
  <outline>
    <contour>
      <point x="364" y="713" type="line"/>
      <point x="349" y="727" type="line"/>
      <point x="331" y="723"/>
      <point x="278" y="708"/>
      <point x="262" y="704" type="curve"/>
      <point x="196" y="311" type="line"/>
      <point x="210" y="298" type="line"/>
      <point x="229" y="302"/>
      <point x="281" y="315"/>
      <point x="298" y="323" type="curve"/>
    </contour>
    <contour>
      <point x="518" y="541" type="curve"/>
      <point x="506" y="556" type="line"/>
      <point x="75" y="556" type="line"/>
      <point x="66" y="540"/>
      <point x="46" y="499"/>
      <point x="39" y="483" type="curve"/>
      <point x="52" y="469" type="line"/>
      <point x="483" y="469" type="line"/>
      <point x="492" y="482"/>
      <point x="513" y="525"/>
    </contour>
  </outline>
</glyph>
<glyph name="ModLowDwnArrwhd" format="1">
  <advance width="316"/>
  <unicode hex="02EF"/>
  <outline>
    <contour>
      <point x="2" y="-540" type="line"/>
      <point x="15" y="-534"/>
      <point x="37" y="-520"/>
      <point x="48" y="-509" type="curve"/>
      <point x="222" y="-202" type="line"/>
      <point x="216" y="-193" type="line"/>
      <point x="207" y="-197"/>
      <point x="179" y="-208"/>
      <point x="170" y="-218" type="curve"/>
      <point x="38" y="-453" type="line"/>
      <point x="-43" y="-202" type="line"/>
      <point x="-53" y="-193" type="line"/>
      <point x="-68" y="-199"/>
      <point x="-85" y="-209"/>
      <point x="-95" y="-218" type="curve"/>
    </contour>
  </outline>
</glyph>
<glyph name="ModLowRtArrwhd" format="1">
  <advance width="376"/>
  <unicode hex="02F2"/>
  <outline>
    <contour>
      <point x="-81" y="-236" type="curve"/>
      <point x="-77" y="-252" type="line"/>
      <point x="238" y="-390" type="line"/>
      <point x="245" y="-378"/>
      <point x="253" y="-359"/>
      <point x="256" y="-347" type="curve"/>
      <point x="248" y="-337" type="line"/>
      <point x="-44" y="-208" type="line"/>
      <point x="-62" y="-219"/>
      <point x="-68" y="-225"/>
    </contour>
    <contour>
      <point x="-120" y="-517" type="curve"/>
      <point x="-111" y="-528" type="line"/>
      <point x="238" y="-390" type="line"/>
      <point x="245" y="-378"/>
      <point x="253" y="-359"/>
      <point x="256" y="-347" type="curve"/>
      <point x="248" y="-337" type="line"/>
      <point x="-104" y="-474" type="line"/>
      <point x="-107" y="-485"/>
      <point x="-116" y="-504"/>
    </contour>
  </outline>
</glyph>
<glyph name="CombCircum" format="1">
  <advance width="0"/>
  <unicode hex="0302"/>
  <outline>
    <contour>
      <point x="-61" y="1071" type="curve"/>
      <point x="-244" y="1442" type="line"/>
      <point x="-336" y="1442" type="line"/>
      <point x="-620" y="1071" type="line"/>
      <point x="-607" y="1044"/>
      <point x="-599" y="1034"/>
      <point x="-587" y="1026" type="curve"/>
      <point x="-314" y="1291" type="line"/>
      <point x="-106" y="1026" type="line"/>
      <point x="-85" y="1036"/>
      <point x="-79" y="1044"/>
    </contour>
    <contour>
      <point x="-279" y="1490" type="move" name="U"/>
    </contour>
    <contour>
      <point x="-352" y="1000" type="move" name="_U"/>
    </contour>
  </outline>
</glyph>
<glyph name="CombOverline" format="1">
  <advance width="0"/>
  <unicode hex="0305"/>
  <outline>
    <contour>
      <point x="172" y="1258" type="curve"/>
      <point x="153" y="1283" type="line"/>
      <point x="-774" y="1283" type="line"/>
      <point x="-789" y="1256"/>
      <point x="-813" y="1208"/>
      <point x="-823" y="1181" type="curve"/>
      <point x="-807" y="1157" type="line"/>
      <point x="122" y="1157" type="line"/>
      <point x="135" y="1179"/>
      <point x="163" y="1229"/>
    </contour>
    <contour>
      <point x="-303" y="1370" type="move" name="U"/>
    </contour>
    <contour>
      <point x="-355" y="1000" type="move" name="_U"/>
    </contour>
  </outline>
</glyph>
<glyph name="CombBreve" format="1">
  <advance width="0"/>
  <unicode hex="0306"/>
  <outline>
    <contour>
      <point x="-20" y="1335" type="curve"/>
      <point x="-33" y="1360"/>
      <point x="-45" y="1368"/>
      <point x="-63" y="1378" type="curve"/>
      <point x="-139" y="1231"/>
      <point x="-250" y="1179"/>
      <point x="-334" y="1179" type="curve" smooth="yes"/>
      <point x="-410" y="1179"/>
      <point x="-506" y="1231"/>
      <point x="-543" y="1378" type="curve"/>
      <point x="-563" y="1368"/>
      <point x="-580" y="1358"/>
      <point x="-598" y="1335" type="curve"/>
      <point x="-553" y="1122"/>
      <point x="-463" y="1050"/>
      <point x="-346" y="1050" type="curve" smooth="yes"/>
      <point x="-240" y="1050"/>
      <point x="-119" y="1120"/>
    </contour>
    <contour>
      <point x="-310" y="1320" type="move" name="U"/>
    </contour>
    <contour>
      <point x="-354" y="1000" type="move" name="_U"/>
    </contour>
  </outline>
</glyph>
<glyph name="CombDotAbv" format="1">
  <advance width="0"/>
  <unicode hex="0307"/>
  <outline>
    <contour>
      <point x="-232" y="1262" type="curve"/>
      <point x="-232" y="1307"/>
      <point x="-256" y="1333"/>
      <point x="-297" y="1333" type="curve" smooth="yes"/>
      <point x="-371" y="1333"/>
      <point x="-420" y="1247"/>
      <point x="-420" y="1176" type="curve" smooth="yes"/>
      <point x="-420" y="1131"/>
      <point x="-396" y="1106"/>
      <point x="-355" y="1106" type="curve" smooth="yes"/>
      <point x="-279" y="1106"/>
      <point x="-232" y="1188"/>
    </contour>
    <contour>
      <point x="-307" y="1353" type="move" name="U"/>
    </contour>
    <contour>
      <point x="-356" y="1000" type="move" name="_U"/>
    </contour>
  </outline>
</glyph>
<glyph name="CombVertLineAbv" format="1">
  <advance width="0"/>
  <unicode hex="030D"/>
  <outline>
    <contour>
      <point x="-299" y="1059" type="curve"/>
      <point x="-249" y="1417" type="line"/>
      <point x="-269" y="1440" type="line"/>
      <point x="-293" y="1435"/>
      <point x="-326" y="1421"/>
      <point x="-349" y="1411" type="curve"/>
      <point x="-399" y="1050" type="line"/>
      <point x="-379" y="1029" type="line"/>
      <point x="-355" y="1035"/>
      <point x="-324" y="1046"/>
    </contour>
    <contour>
      <point x="-311" y="1320" type="move" name="U"/>
    </contour>
    <contour>
      <point x="-355" y="1000" type="move" name="_U"/>
    </contour>
  </outline>
</glyph>
<glyph name="CombAcuteBlw" format="1">
  <advance width="0"/>
  <unicode hex="0317"/>
  <outline>
    <contour>
      <point x="-269" y="-212" type="line"/>
      <point x="-286" y="-192"/>
      <point x="-343" y="-157"/>
      <point x="-366" y="-141" type="curve"/>
      <point x="-757" y="-456" type="line"/>
      <point x="-745" y="-483"/>
      <point x="-743" y="-491"/>
      <point x="-724" y="-503" type="curve"/>
      <point x="-269" y="-259" type="line"/>
    </contour>
    <contour>
      <point x="-543" y="-600" type="move" name="L"/>
    </contour>
    <contour>
      <point x="-467" y="-100" type="move" name="_L"/>
    </contour>
  </outline>
</glyph>
<glyph name="CombMinusSgnBlw" format="1">
  <advance width="0"/>
  <unicode hex="0320"/>
  <outline>
    <contour>
      <point x="-322" y="-284" type="curve"/>
      <point x="-340" y="-258" type="line"/>
      <point x="-715" y="-258" type="line"/>
      <point x="-731" y="-284"/>
      <point x="-738" y="-293"/>
      <point x="-749" y="-320" type="curve"/>
      <point x="-732" y="-343" type="line"/>
      <point x="-354" y="-343" type="line"/>
      <point x="-340" y="-322"/>
      <point x="-332" y="-310"/>
    </contour>
    <contour>
      <point x="-576" y="-600" type="move" name="L"/>
    </contour>
    <contour>
      <point x="-507" y="-100" type="move" name="_L"/>
    </contour>
  </outline>
</glyph>
<glyph name="CombDotBlw" format="1">
  <advance width="0"/>
  <unicode hex="0323"/>
  <outline>
    <contour>
      <point x="-436" y="-255" type="curve"/>
      <point x="-436" y="-210"/>
      <point x="-460" y="-184"/>
      <point x="-501" y="-184" type="curve" smooth="yes"/>
      <point x="-575" y="-184"/>
      <point x="-624" y="-270"/>
      <point x="-624" y="-341" type="curve" smooth="yes"/>
      <point x="-624" y="-386"/>
      <point x="-600" y="-411"/>
      <point x="-559" y="-411" type="curve" smooth="yes"/>
      <point x="-483" y="-411"/>
      <point x="-436" y="-329"/>
    </contour>
    <contour>
      <point x="-571" y="-600" type="move" name="L"/>
    </contour>
    <contour>
      <point x="-502" y="-100" type="move" name="_L"/>
    </contour>
  </outline>
</glyph>
<glyph name="CombCaronBlw" format="1">
  <advance width="0"/>
  <unicode hex="032C"/>
  <outline>
    <contour>
      <point x="-243" y="-179" type="line"/>
      <point x="-255" y="-154"/>
      <point x="-259" y="-148"/>
      <point x="-275" y="-134" type="curve"/>
      <point x="-542" y="-338" type="line"/>
      <point x="-757" y="-134" type="line"/>
      <point x="-777" y="-150"/>
      <point x="-783" y="-154"/>
      <point x="-802" y="-179" type="curve"/>
      <point x="-609" y="-480" type="line"/>
      <point x="-517" y="-480" type="line"/>
    </contour>
    <contour>
      <point x="-579" y="-600" type="move" name="L"/>
    </contour>
    <contour>
      <point x="-511" y="-100" type="move" name="_L"/>
    </contour>
  </outline>
</glyph>
<glyph name="CombInvBreveBlw" format="1">
  <advance width="0"/>
  <unicode hex="032F"/>
  <outline>
    <contour>
      <point x="-846" y="-447" type="curve"/>
      <point x="-833" y="-472"/>
      <point x="-821" y="-480"/>
      <point x="-803" y="-490" type="curve"/>
      <point x="-727" y="-343"/>
      <point x="-616" y="-291"/>
      <point x="-532" y="-291" type="curve" smooth="yes"/>
      <point x="-456" y="-291"/>
      <point x="-360" y="-343"/>
      <point x="-323" y="-490" type="curve"/>
      <point x="-303" y="-480"/>
      <point x="-286" y="-470"/>
      <point x="-268" y="-447" type="curve"/>
      <point x="-313" y="-234"/>
      <point x="-403" y="-162"/>
      <point x="-520" y="-162" type="curve" smooth="yes"/>
      <point x="-626" y="-162"/>
      <point x="-747" y="-232"/>
    </contour>
    <contour>
      <point x="-577" y="-600" type="move" name="L"/>
    </contour>
    <contour>
      <point x="-508" y="-100" type="move" name="_L"/>
    </contour>
  </outline>
</glyph>
<glyph name="CombTildeBlw" format="1">
  <advance width="0"/>
  <unicode hex="0330"/>
  <outline>
    <contour>
      <point x="-214" y="-194" type="curve"/>
      <point x="-259" y="-174" type="line"/>
      <point x="-309" y="-248"/>
      <point x="-362" y="-293"/>
      <point x="-409" y="-293" type="curve" smooth="yes"/>
      <point x="-464" y="-293"/>
      <point x="-520" y="-184"/>
      <point x="-608" y="-184" type="curve" smooth="yes"/>
      <point x="-710" y="-184"/>
      <point x="-800" y="-299"/>
      <point x="-855" y="-405" type="curve"/>
      <point x="-812" y="-426" type="line"/>
      <point x="-757" y="-352"/>
      <point x="-710" y="-307"/>
      <point x="-663" y="-307" type="curve" smooth="yes"/>
      <point x="-593" y="-307"/>
      <point x="-544" y="-416"/>
      <point x="-460" y="-416" type="curve" smooth="yes"/>
      <point x="-356" y="-416"/>
      <point x="-270" y="-301"/>
    </contour>
    <contour>
      <point x="-575" y="-600" type="move" name="L"/>
    </contour>
    <contour>
      <point x="-506" y="-100" type="move" name="_L"/>
    </contour>
  </outline>
</glyph>
<glyph name="CombXAbv" format="1">
  <advance width="0"/>
  <unicode hex="033D"/>
  <outline>
    <contour>
      <point x="-82" y="1080" type="curve"/>
      <point x="-271" y="1255" type="line"/>
      <point x="-365" y="1255" type="line"/>
      <point x="-605" y="1080" type="line"/>
      <point x="-596" y="1059"/>
      <point x="-587" y="1041"/>
      <point x="-572" y="1026" type="curve"/>
      <point x="-334" y="1151" type="line"/>
      <point x="-127" y="1026" type="line"/>
      <point x="-108" y="1042"/>
      <point x="-95" y="1058"/>
    </contour>
    <contour>
      <point x="-50" y="1347" type="line"/>
      <point x="-56" y="1370"/>
      <point x="-66" y="1390"/>
      <point x="-79" y="1403" type="curve"/>
      <point x="-317" y="1275" type="line"/>
      <point x="-525" y="1403" type="line"/>
      <point x="-541" y="1389"/>
      <point x="-560" y="1366"/>
      <point x="-572" y="1347" type="curve"/>
      <point x="-381" y="1174" type="line"/>
      <point x="-287" y="1174" type="line"/>
    </contour>
    <contour>
      <point x="-311" y="1320" type="move" name="U"/>
    </contour>
    <contour>
      <point x="-355" y="1000" type="move" name="_U"/>
    </contour>
  </outline>
</glyph>
<glyph name="CombGrYpo" format="1">
  <advance width="0"/>
  <unicode hex="0345"/>
  <outline>
    <component base="GrYpo"/>
    <contour>
      <point x="-570" y="-100" type="move" name="_L"/>
    </contour>
  </outline>
</glyph>
<glyph name="CombAlmostEqToAbv" format="1">
  <advance width="0"/>
  <unicode hex="034C"/>
  <outline>
    <contour>
      <point x="-63" y="1184" type="curve"/>
      <point x="-88" y="1216" type="line"/>
      <point x="-156" y="1150"/>
      <point x="-181" y="1145"/>
      <point x="-226" y="1145" type="curve" smooth="yes"/>
      <point x="-282" y="1145"/>
      <point x="-324" y="1216"/>
      <point x="-404" y="1216" type="curve" smooth="yes"/>
      <point x="-470" y="1216"/>
      <point x="-546" y="1168"/>
      <point x="-606" y="1091" type="curve"/>
      <point x="-582" y="1061" type="line"/>
      <point x="-512" y="1129"/>
      <point x="-493" y="1133"/>
      <point x="-446" y="1133" type="curve" smooth="yes"/>
      <point x="-377" y="1133"/>
      <point x="-337" y="1061"/>
      <point x="-265" y="1061" type="curve" smooth="yes"/>
      <point x="-200" y="1061"/>
      <point x="-124" y="1107"/>
    </contour>
    <contour>
      <point x="-37" y="1380" type="curve"/>
      <point x="-61" y="1412" type="line"/>
      <point x="-129" y="1346"/>
      <point x="-155" y="1341"/>
      <point x="-200" y="1341" type="curve" smooth="yes"/>
      <point x="-256" y="1341"/>
      <point x="-298" y="1412"/>
      <point x="-378" y="1412" type="curve" smooth="yes"/>
      <point x="-444" y="1412"/>
      <point x="-519" y="1364"/>
      <point x="-580" y="1287" type="curve"/>
      <point x="-555" y="1257" type="line"/>
      <point x="-485" y="1325"/>
      <point x="-466" y="1329"/>
      <point x="-419" y="1329" type="curve" smooth="yes"/>
      <point x="-351" y="1329"/>
      <point x="-310" y="1257"/>
      <point x="-239" y="1257" type="curve" smooth="yes"/>
      <point x="-173" y="1257"/>
      <point x="-97" y="1303"/>
    </contour>
    <contour>
      <point x="-309" y="1320" type="move" name="U"/>
    </contour>
    <contour>
      <point x="-353" y="1000" type="move" name="_U"/>
    </contour>
  </outline>
</glyph>
<glyph name="CombLftArrwhdBlw" format="1">
  <advance width="0"/>
  <unicode hex="0354"/>
  <outline>
    <contour>
      <point x="-216" y="-141" type="curve"/>
      <point x="-231" y="-121" type="line"/>
      <point x="-772" y="-334" type="line"/>
      <point x="-784" y="-359"/>
      <point x="-797" y="-390"/>
      <point x="-805" y="-413" type="curve"/>
      <point x="-790" y="-431" type="line"/>
      <point x="-247" y="-220" type="line"/>
      <point x="-239" y="-200"/>
      <point x="-223" y="-164"/>
    </contour>
    <contour>
      <point x="-277" y="-576" type="curve"/>
      <point x="-284" y="-548" type="line"/>
      <point x="-772" y="-334" type="line"/>
      <point x="-781" y="-357"/>
      <point x="-795" y="-392"/>
      <point x="-805" y="-413" type="curve"/>
      <point x="-790" y="-431" type="line"/>
      <point x="-344" y="-628" type="line"/>
      <point x="-311" y="-609"/>
      <point x="-300" y="-598"/>
    </contour>
    <contour>
      <point x="-510" y="-600" type="move" name="L"/>
    </contour>
    <contour>
      <point x="-441" y="-100" type="move" name="_L"/>
    </contour>
  </outline>
</glyph>
<glyph name="CombRtDotAbv" format="1">
  <advance width="188"/>
  <unicode hex="0358"/>
  <outline>
    <contour>
      <point x="358" y="1262" type="curve" smooth="yes"/>
      <point x="358" y="1307"/>
      <point x="334" y="1333"/>
      <point x="293" y="1333" type="curve" smooth="yes"/>
      <point x="219" y="1333"/>
      <point x="170" y="1247"/>
      <point x="170" y="1176" type="curve" smooth="yes"/>
      <point x="170" y="1131"/>
      <point x="194" y="1106"/>
      <point x="235" y="1106" type="curve" smooth="yes"/>
      <point x="311" y="1106"/>
      <point x="358" y="1188"/>
    </contour>
    <contour>
      <point x="287" y="1320" type="move" name="U"/>
    </contour>
    <contour>
      <point x="123" y="870" type="move" name="_R"/>
    </contour>
  </outline>
</glyph>
<glyph name="GrCapYot" format="1">
  <advance width="578"/>
  <unicode hex="037F"/>
  <outline>
    <component base="LtnCapJ"/>
    <contour>
      <point x="160" y="-600" type="move" name="L"/>
    </contour>
    <contour>
      <point x="430" y="1320" type="move" name="U"/>
    </contour>
  </outline>
</glyph>
<glyph name="CyCapIeGrave" format="1">
  <advance width="946"/>
  <unicode hex="0400"/>
  <outline>
    <component base="CyCapIe"/>
    <component base="CombGrave.LP" xOffset="892" yOffset="320"/>
    <contour>
      <point x="420" y="-100" type="move" name="L"/>
    </contour>
    <contour>
      <point x="660" y="1640" type="move" name="U"/>
    </contour>
  </outline>
</glyph>
<glyph name="CyCapDje" format="1">
  <advance width="1233"/>
  <unicode hex="0402"/>
  <outline>
    <contour>
      <point x="1121" y="1235" type="curve"/>
      <point x="1097" y="1260" type="line"/>
      <point x="650" y="1260" type="line"/>
      <point x="612" y="1170" type="line"/>
      <point x="950" y="1170" type="line" smooth="yes"/>
      <point x="1004" y="1170"/>
      <point x="1014" y="1083"/>
      <point x="1007" y="950" type="curve"/>
      <point x="1048" y="950" type="line"/>
      <point x="1074" y="1034"/>
      <point x="1109" y="1167"/>
    </contour>
    <contour>
      <point x="748" y="1170" type="line"/>
      <point x="735" y="1260" type="line"/>
      <point x="171" y="1260" type="line"/>
      <point x="149" y="1190"/>
      <point x="108" y="1042"/>
      <point x="92" y="964" type="curve"/>
      <point x="129" y="945" type="line"/>
      <point x="204" y="1105"/>
      <point x="248" y="1170"/>
      <point x="285" y="1170" type="curve" smooth="yes"/>
    </contour>
    <contour>
      <point x="500" y="0" type="line"/>
      <point x="661" y="1177" type="line"/>
      <point x="661" y="1177"/>
      <point x="712" y="1198"/>
      <point x="795" y="1217" type="curve"/>
      <point x="801" y="1260" type="line"/>
      <point x="397" y="1260" type="line"/>
      <point x="391" y="1217" type="line"/>
      <point x="476" y="1198"/>
      <point x="519" y="1193"/>
      <point x="517" y="1177" type="curve" smooth="yes"/>
      <point x="370" y="104" type="line" smooth="yes"/>
      <point x="367" y="85"/>
      <point x="327" y="68"/>
      <point x="212" y="43" type="curve"/>
      <point x="207" y="0" type="line"/>
    </contour>
    <contour>
      <point x="1146" y="382" type="curve" smooth="yes"/>
      <point x="1180" y="630"/>
      <point x="976" y="740"/>
      <point x="793" y="740" type="curve" smooth="yes"/>
      <point x="688" y="740"/>
      <point x="587" y="725"/>
      <point x="526" y="694" type="curve"/>
      <point x="515" y="614" type="line"/>
      <point x="577" y="640"/>
      <point x="650" y="649"/>
      <point x="738" y="649" type="curve" smooth="yes"/>
      <point x="900" y="649"/>
      <point x="1020" y="526"/>
      <point x="994" y="330" type="curve" smooth="yes"/>
      <point x="982" y="236"/>
      <point x="937" y="123"/>
      <point x="717" y="34" type="curve"/>
      <point x="723" y="9"/>
      <point x="735" y="-12"/>
      <point x="746" y="-30" type="curve"/>
      <point x="1093" y="85"/>
      <point x="1134" y="294"/>
    </contour>
    <contour>
      <point x="613" y="1320" type="move" name="U"/>
    </contour>
    <contour>
      <point x="620" y="-100" type="move" name="L"/>
    </contour>
  </outline>
</glyph>
<glyph name="CyCapLje" format="1">
  <advance width="1597"/>
  <unicode hex="0409"/>
  <outline>
    <contour>
      <point x="626" y="1170" type="curve"/>
      <point x="626" y="1170"/>
      <point x="915" y="1170"/>
      <point x="915" y="1170" type="curve"/>
      <point x="769" y="104" type="line" smooth="yes"/>
      <point x="766" y="86"/>
      <point x="713" y="61"/>
      <point x="629" y="43" type="curve"/>
      <point x="624" y="0" type="line"/>
      <point x="1029" y="0" type="line"/>
      <point x="1034" y="43" type="line"/>
      <point x="950" y="61"/>
      <point x="911" y="88"/>
      <point x="913" y="104" type="curve" smooth="yes"/>
      <point x="1057" y="1155" type="line" smooth="yes"/>
      <point x="1059" y="1174"/>
      <point x="1111" y="1198"/>
      <point x="1195" y="1217" type="curve"/>
      <point x="1201" y="1260" type="line"/>
      <point x="391" y="1260" type="line"/>
      <point x="385" y="1217" type="line"/>
      <point x="485" y="1197"/>
      <point x="539" y="1180"/>
      <point x="545" y="1165" type="curve"/>
      <point x="582" y="1129" type="line"/>
      <point x="589" y="1158"/>
      <point x="626" y="1170"/>
    </contour>
    <contour>
      <point x="1524" y="356" type="curve" smooth="yes"/>
      <point x="1555" y="581"/>
      <point x="1428" y="739"/>
      <point x="1165" y="739" type="curve" smooth="yes"/>
      <point x="1074" y="739"/>
      <point x="985" y="725"/>
      <point x="919" y="705" type="curve"/>
      <point x="917" y="627" type="line"/>
      <point x="977" y="637"/>
      <point x="1038" y="649"/>
      <point x="1117" y="649" type="curve" smooth="yes"/>
      <point x="1326" y="649"/>
      <point x="1392" y="469"/>
      <point x="1372" y="322" type="curve" smooth="yes"/>
      <point x="1351" y="172"/>
      <point x="1226" y="70"/>
      <point x="1053" y="70" type="curve" smooth="yes"/>
      <point x="999" y="70"/>
      <point x="937" y="76"/>
      <point x="903" y="98" type="curve"/>
      <point x="672" y="0" type="line"/>
      <point x="672" y="0"/>
      <point x="957" y="-14"/>
      <point x="1062" y="-14" type="curve" smooth="yes"/>
      <point x="1305" y="-14"/>
      <point x="1493" y="129"/>
    </contour>
    <contour>
      <point x="650" y="1199" type="curve"/>
      <point x="640" y="1198"/>
      <point x="562" y="1211"/>
      <point x="552" y="1209" type="curve"/>
      <point x="438" y="593"/>
      <point x="278" y="172"/>
      <point x="165" y="172" type="curve" smooth="yes"/>
      <point x="129" y="172"/>
      <point x="103" y="214"/>
      <point x="105" y="309" type="curve"/>
      <point x="67" y="320" type="line"/>
      <point x="40" y="243"/>
      <point x="-5" y="32"/>
      <point x="11" y="20" type="curve" smooth="yes"/>
      <point x="33" y="4"/>
      <point x="69" y="-20"/>
      <point x="117" y="-20" type="curve" smooth="yes"/>
      <point x="349" y="-20"/>
      <point x="517" y="489"/>
    </contour>
    <contour>
      <point x="724" y="-100" type="move" name="L"/>
    </contour>
    <contour>
      <point x="805" y="1320" type="move" name="U"/>
    </contour>
  </outline>
</glyph>
<glyph name="CyCapDe" format="1">
  <advance width="1142"/>
  <unicode hex="0414"/>
  <outline>
    <contour>
      <point x="646" y="1170" type="curve"/>
      <point x="905" y="1170"/>
      <point x="907" y="1170"/>
      <point x="907" y="1170" type="curve"/>
      <point x="759" y="90" type="line"/>
      <point x="273" y="90" type="line"/>
      <point x="442" y="439"/>
      <point x="546" y="752"/>
    </contour>
    <contour>
      <point x="852" y="0" type="line"/>
      <point x="898" y="0"/>
      <point x="895" y="-175"/>
      <point x="864" y="-380" type="curve"/>
      <point x="909" y="-380" type="line"/>
      <point x="957" y="-261"/>
      <point x="1023" y="-62"/>
      <point x="1047" y="65" type="curve"/>
      <point x="1023" y="90" type="line"/>
      <point x="903" y="90" type="line"/>
      <point x="1049" y="1155" type="line" smooth="yes"/>
      <point x="1051" y="1174"/>
      <point x="1104" y="1198"/>
      <point x="1188" y="1217" type="curve"/>
      <point x="1194" y="1260" type="line"/>
      <point x="384" y="1260" type="line"/>
      <point x="378" y="1217" type="line"/>
      <point x="461" y="1198"/>
      <point x="527" y="1174"/>
      <point x="536" y="1155" type="curve"/>
      <point x="442" y="765"/>
      <point x="336" y="451"/>
      <point x="136" y="90" type="curve"/>
      <point x="123" y="90"/>
      <point x="31" y="90"/>
      <point x="17" y="90" type="curve"/>
      <point x="-35" y="-50"/>
      <point x="-76" y="-267"/>
      <point x="-92" y="-380" type="curve"/>
      <point x="-47" y="-380" type="line"/>
      <point x="56" y="-82"/>
      <point x="132" y="-9"/>
      <point x="170" y="0" type="curve"/>
    </contour>
    <contour>
      <point x="508" y="-100" type="move" name="L"/>
    </contour>
    <contour>
      <point x="792" y="1320" type="move" name="U"/>
    </contour>
  </outline>
</glyph>
<glyph name="CyCapShortI" format="1">
  <advance width="1224"/>
  <unicode hex="0419"/>
  <outline>
    <component base="CyCapI"/>
    <component base="CombBreve.CyShortMrkAlt.UCHt" xOffset="1132" yOffset="-50"/>
    <contour>
      <point x="811" y="1700" type="move" name="U"/>
    </contour>
    <contour>
      <point x="550" y="-100" type="move" name="L"/>
    </contour>
  </outline>
</glyph>
<glyph name="CyCapU" format="1">
  <advance width="1116"/>
  <unicode hex="0423"/>
  <outline>
    <contour>
      <point x="1242" y="1217" type="curve"/>
      <point x="1248" y="1260" type="line"/>
      <point x="892" y="1260" type="line"/>
      <point x="886" y="1217" type="line"/>
      <point x="983" y="1204"/>
      <point x="1012" y="1180"/>
      <point x="994" y="1141" type="curve"/>
      <point x="666" y="497" type="line"/>
      <point x="420" y="1141" type="line" smooth="yes"/>
      <point x="406" y="1180"/>
      <point x="442" y="1210"/>
      <point x="535" y="1217" type="curve"/>
      <point x="541" y="1260" type="line"/>
      <point x="150" y="1260" type="line"/>
      <point x="144" y="1217" type="line"/>
      <point x="219" y="1206"/>
      <point x="265" y="1176"/>
      <point x="271" y="1141" type="curve"/>
      <point x="574" y="334" type="line"/>
      <point x="529" y="254"/>
      <point x="444" y="138"/>
      <point x="372" y="138" type="curve" smooth="yes"/>
      <point x="340" y="138"/>
      <point x="314" y="151"/>
      <point x="281" y="216" type="curve"/>
      <point x="220" y="161"/>
      <point x="170" y="75"/>
      <point x="168" y="59" type="curve" smooth="yes"/>
      <point x="164" y="34"/>
      <point x="213" y="-30"/>
      <point x="307" y="-30" type="curve" smooth="yes"/>
      <point x="400" y="-30"/>
      <point x="505" y="0"/>
      <point x="688" y="332" type="curve" smooth="yes"/>
      <point x="1101" y="1141" type="line"/>
      <point x="1117" y="1178"/>
      <point x="1159" y="1200"/>
    </contour>
    <contour>
      <point x="545" y="-100" type="move" name="L"/>
    </contour>
    <contour>
      <point x="732" y="1320" type="move" name="U"/>
    </contour>
  </outline>
</glyph>
<glyph name="CySmGhe" format="1">
  <advance width="743"/>
  <unicode hex="0433"/>
  <outline>
    <contour>
      <point x="34" y="125" type="curve" smooth="yes"/>
      <point x="47" y="36"/>
      <point x="135" y="-41"/>
      <point x="262" y="-41" type="curve" smooth="yes"/>
      <point x="360" y="-41"/>
      <point x="532" y="8"/>
      <point x="681" y="165" type="curve"/>
      <point x="675" y="179"/>
      <point x="659" y="206"/>
      <point x="647" y="215" type="curve"/>
      <point x="523" y="107"/>
      <point x="381" y="82"/>
      <point x="323" y="82" type="curve" smooth="yes"/>
      <point x="246" y="82"/>
      <point x="202" y="130"/>
      <point x="194" y="170" type="curve" smooth="yes"/>
      <point x="178" y="254"/>
      <point x="213" y="355"/>
      <point x="420" y="443" type="curve" smooth="yes"/>
      <point x="597" y="518"/>
      <point x="691" y="609"/>
      <point x="692" y="758" type="curve" smooth="yes"/>
      <point x="693" y="879"/>
      <point x="602" y="936"/>
      <point x="495" y="936" type="curve" smooth="yes"/>
      <point x="416" y="936"/>
      <point x="272" y="927"/>
      <point x="108" y="743" type="curve"/>
      <point x="149" y="698" type="line"/>
      <point x="272" y="810"/>
      <point x="356" y="821"/>
      <point x="409" y="821" type="curve" smooth="yes"/>
      <point x="481" y="821"/>
      <point x="534" y="784"/>
      <point x="531" y="704" type="curve" smooth="yes"/>
      <point x="528" y="614"/>
      <point x="466" y="536"/>
      <point x="314" y="478" type="curve" smooth="yes"/>
      <point x="91" y="393"/>
      <point x="14" y="260"/>
    </contour>
    <contour>
      <point x="448" y="1000" type="move" name="U"/>
    </contour>
    <contour>
      <point x="297" y="-100" type="move" name="L"/>
    </contour>
  </outline>
</glyph>
<glyph name="CySmUkrainIe" format="1">
  <advance width="815"/>
  <unicode hex="0454"/>
  <outline>
    <contour>
      <point x="833" y="835" type="curve"/>
      <point x="792" y="849"/>
      <point x="707" y="936"/>
      <point x="590" y="936" type="curve" smooth="yes"/>
      <point x="508" y="936"/>
      <point x="383" y="891"/>
      <point x="309" y="842" type="curve" smooth="yes"/>
      <point x="113" y="711"/>
      <point x="59" y="502"/>
      <point x="53" y="322" type="curve" smooth="yes"/>
      <point x="43" y="41"/>
      <point x="197" y="-41"/>
      <point x="307" y="-41" type="curve" smooth="yes"/>
      <point x="403" y="-41"/>
      <point x="528" y="-30"/>
      <point x="737" y="160" type="curve"/>
      <point x="731" y="170"/>
      <point x="716" y="187"/>
      <point x="706" y="201" type="curve"/>
      <point x="563" y="84"/>
      <point x="454" y="76"/>
      <point x="405" y="76" type="curve" smooth="yes"/>
      <point x="271" y="76"/>
      <point x="189" y="186"/>
      <point x="199" y="358" type="curve" smooth="yes"/>
      <point x="210" y="545"/>
      <point x="285" y="831"/>
      <point x="467" y="831" type="curve" smooth="yes"/>
      <point x="553" y="831"/>
      <point x="641" y="741"/>
      <point x="669" y="741" type="curve" smooth="yes"/>
      <point x="704" y="741"/>
      <point x="776" y="794"/>
    </contour>
    <contour>
      <point x="110" y="468" type="line"/>
      <point x="135" y="425" type="line"/>
      <point x="378" y="425" type="line" smooth="yes"/>
      <point x="460" y="425"/>
      <point x="526" y="420"/>
      <point x="593" y="400" type="curve"/>
      <point x="606" y="421"/>
      <point x="662" y="495"/>
      <point x="668" y="515" type="curve"/>
      <point x="649" y="540" type="line"/>
      <point x="581" y="515"/>
      <point x="469" y="505"/>
      <point x="360" y="505" type="curve" smooth="yes"/>
      <point x="136" y="505" type="line"/>
    </contour>
    <contour>
      <point x="357" y="-100" type="move" name="L"/>
    </contour>
    <contour>
      <point x="510" y="1000" type="move" name="U"/>
    </contour>
  </outline>
</glyph>
<glyph name="CySmIGrave" format="1">
  <advance width="1022"/>
  <unicode hex="045D"/>
  <outline>
    <component base="CySmI"/>
    <component base="CombGrave" xOffset="856"/>
    <contour>
      <point x="430" y="-100" type="move" name="L"/>
    </contour>
    <contour>
      <point x="631" y="1370" type="move" name="U"/>
    </contour>
  </outline>
</glyph>
<glyph name="CySmShortU" format="1">
  <advance width="926"/>
  <unicode hex="045E"/>
  <outline>
    <component base="CySmU"/>
    <component base="CombBreve.CyShortMrkAlt" xOffset="1006"/>
    <contour>
      <point x="620" y="-100" type="move" name="L"/>
    </contour>
    <contour>
      <point x="612" y="1320" type="move" name="U"/>
    </contour>
  </outline>
</glyph>
<glyph name="CySmYat" format="1">
  <advance width="1307"/>
  <unicode hex="0463"/>
  <outline>
    <contour>
      <point x="629" y="823" type="curve" smooth="yes"/>
      <point x="662" y="823"/>
      <point x="678" y="815"/>
      <point x="678" y="725" type="curve" smooth="yes"/>
      <point x="678" y="594"/>
      <point x="601" y="284"/>
      <point x="601" y="160" type="curve" smooth="yes"/>
      <point x="601" y="76"/>
      <point x="662" y="-41"/>
      <point x="845" y="-41" type="curve" smooth="yes"/>
      <point x="1011" y="-41"/>
      <point x="1237" y="170"/>
      <point x="1237" y="307" type="curve" smooth="yes"/>
      <point x="1237" y="419"/>
      <point x="1170" y="541"/>
      <point x="962" y="541" type="curve" smooth="yes"/>
      <point x="913" y="541"/>
      <point x="819" y="527"/>
      <point x="742" y="509" type="curve"/>
      <point x="723" y="431" type="line"/>
      <point x="763" y="445"/>
      <point x="830" y="460"/>
      <point x="883" y="460" type="curve" smooth="yes"/>
      <point x="1053" y="461"/>
      <point x="1083" y="350"/>
      <point x="1082" y="256" type="curve" smooth="yes"/>
      <point x="1081" y="159"/>
      <point x="1023" y="64"/>
      <point x="883" y="64" type="curve" smooth="yes"/>
      <point x="792" y="64"/>
      <point x="746" y="106"/>
      <point x="746" y="217" type="curve" smooth="yes"/>
      <point x="746" y="312"/>
      <point x="833" y="652"/>
      <point x="833" y="796" type="curve" smooth="yes"/>
      <point x="833" y="895"/>
      <point x="812" y="936"/>
      <point x="728" y="936" type="curve" smooth="yes"/>
      <point x="609" y="936"/>
      <point x="489" y="860"/>
      <point x="344" y="678" type="curve"/>
      <point x="348" y="711"/>
      <point x="354" y="795"/>
      <point x="354" y="823" type="curve" smooth="yes"/>
      <point x="354" y="918"/>
      <point x="352" y="936"/>
      <point x="315" y="936" type="curve" smooth="yes"/>
      <point x="282" y="936"/>
      <point x="160" y="891"/>
      <point x="47" y="842" type="curve"/>
      <point x="61" y="803" type="line"/>
      <point x="61" y="803"/>
      <point x="145" y="829"/>
      <point x="168" y="829" type="curve" smooth="yes"/>
      <point x="192" y="829"/>
      <point x="205" y="823"/>
      <point x="205" y="762" type="curve" smooth="yes"/>
      <point x="205" y="668"/>
      <point x="147" y="256"/>
      <point x="92" y="-10" type="curve"/>
      <point x="125" y="-41" type="line"/>
      <point x="158" y="-23"/>
      <point x="233" y="6"/>
      <point x="268" y="25" type="curve"/>
      <point x="266" y="104"/>
      <point x="270" y="182"/>
      <point x="291" y="301" type="curve" smooth="yes"/>
      <point x="313" y="430"/>
      <point x="334" y="516"/>
      <point x="371" y="580" type="curve" smooth="yes"/>
      <point x="427" y="678"/>
      <point x="553" y="823"/>
    </contour>
    <contour>
      <point x="564" y="-100" type="move" name="L"/>
    </contour>
    <contour>
      <point x="718" y="1000" type="move" name="U"/>
    </contour>
  </outline>
</glyph>
<glyph name="CyCapGheUpturn" format="1">
  <advance width="876"/>
  <unicode hex="0490"/>
  <outline>
    <contour>
      <point x="456" y="0" type="line"/>
      <point x="461" y="43" type="line"/>
      <point x="321" y="70"/>
      <point x="290" y="86"/>
      <point x="293" y="104" type="curve" smooth="yes"/>
      <point x="440" y="1177" type="line" smooth="yes"/>
      <point x="442" y="1195"/>
      <point x="493" y="1198"/>
      <point x="576" y="1217" type="curve"/>
      <point x="582" y="1260" type="line"/>
      <point x="431" y="1260" type="line"/>
      <point x="177" y="1260" type="line"/>
      <point x="171" y="1217" type="line"/>
      <point x="255" y="1198"/>
      <point x="295" y="1171"/>
      <point x="293" y="1155" type="curve" smooth="yes"/>
      <point x="149" y="104" type="line" smooth="yes"/>
      <point x="146" y="86"/>
      <point x="94" y="61"/>
      <point x="10" y="43" type="curve"/>
      <point x="5" y="0" type="line"/>
    </contour>
    <contour>
      <point x="372" y="1260" type="line"/>
      <point x="385" y="1170" type="line"/>
      <point x="941" y="1170" type="line"/>
      <point x="956" y="1232"/>
      <point x="1007" y="1480"/>
      <point x="1014" y="1536" type="curve"/>
      <point x="977" y="1545" type="line"/>
      <point x="900" y="1364"/>
      <point x="828" y="1260"/>
      <point x="791" y="1260" type="curve" smooth="yes"/>
    </contour>
    <contour>
      <point x="399" y="-100" type="move" name="L"/>
    </contour>
    <contour>
      <point x="600" y="1320" type="move" name="U"/>
    </contour>
  </outline>
</glyph>
<glyph name="CyCapGheMiddleHook" format="1">
  <advance width="1012"/>
  <unicode hex="0494"/>
  <outline>
    <contour>
      <point x="438" y="0" type="line"/>
      <point x="443" y="43" type="line"/>
      <point x="303" y="70"/>
      <point x="290" y="86"/>
      <point x="293" y="104" type="curve" smooth="yes"/>
      <point x="440" y="1177" type="line" smooth="yes"/>
      <point x="442" y="1195"/>
      <point x="493" y="1198"/>
      <point x="576" y="1217" type="curve"/>
      <point x="582" y="1260" type="line"/>
      <point x="431" y="1260" type="line"/>
      <point x="177" y="1260" type="line"/>
      <point x="171" y="1217" type="line"/>
      <point x="255" y="1198"/>
      <point x="295" y="1171"/>
      <point x="293" y="1155" type="curve" smooth="yes"/>
      <point x="149" y="104" type="line" smooth="yes"/>
      <point x="146" y="86"/>
      <point x="94" y="61"/>
      <point x="10" y="43" type="curve"/>
      <point x="5" y="0" type="line"/>
    </contour>
    <contour>
      <point x="938" y="1235" type="curve"/>
      <point x="911" y="1260" type="line"/>
      <point x="431" y="1260" type="line"/>
      <point x="393" y="1170" type="line"/>
      <point x="769" y="1170" type="line" smooth="yes"/>
      <point x="813" y="1170"/>
      <point x="832" y="1086"/>
      <point x="814" y="960" type="curve"/>
      <point x="854" y="960" type="line"/>
      <point x="876" y="1011"/>
      <point x="924" y="1167"/>
    </contour>
    <contour>
      <point x="907" y="230" type="curve" smooth="yes"/>
      <point x="965" y="539"/>
      <point x="826" y="740"/>
      <point x="550" y="740" type="curve" smooth="yes"/>
      <point x="466" y="740"/>
      <point x="359" y="708"/>
      <point x="275" y="690" type="curve"/>
      <point x="273" y="612" type="line"/>
      <point x="340" y="625"/>
      <point x="436" y="650"/>
      <point x="490" y="650" type="curve" smooth="yes"/>
      <point x="724" y="650"/>
      <point x="800" y="450"/>
      <point x="747" y="190" type="curve" smooth="yes"/>
      <point x="704" y="-21"/>
      <point x="606" y="-214"/>
      <point x="309" y="-312" type="curve"/>
      <point x="315" y="-335"/>
      <point x="328" y="-362"/>
      <point x="340" y="-380" type="curve"/>
      <point x="699" y="-259"/>
      <point x="849" y="-81"/>
    </contour>
    <contour>
      <point x="332" y="-600" type="move" name="L"/>
    </contour>
    <contour>
      <point x="578" y="1320" type="move" name="U"/>
    </contour>
  </outline>
</glyph>
<glyph name="CySmGheMiddleHook" format="1">
  <advance width="851"/>
  <unicode hex="0495"/>
  <outline>
    <contour>
      <point x="262" y="25" type="curve"/>
      <point x="265" y="134"/>
      <point x="298" y="334"/>
      <point x="310" y="438" type="curve" smooth="yes"/>
      <point x="324" y="559"/>
      <point x="346" y="748"/>
      <point x="347" y="872" type="curve"/>
      <point x="321" y="882"/>
      <point x="303" y="887"/>
      <point x="266" y="887" type="curve" smooth="yes"/>
      <point x="272" y="887"/>
      <point x="202" y="866"/>
      <point x="158" y="847" type="curve"/>
      <point x="180" y="847"/>
      <point x="199" y="821"/>
      <point x="199" y="760" type="curve" smooth="yes"/>
      <point x="199" y="639"/>
      <point x="145" y="274"/>
      <point x="86" y="-10" type="curve"/>
      <point x="119" y="-41" type="line"/>
      <point x="152" y="-23"/>
      <point x="227" y="6"/>
    </contour>
    <contour>
      <point x="54" y="795" type="line"/>
      <point x="208" y="824"/>
      <point x="423" y="833"/>
      <point x="580" y="822" type="curve" smooth="yes"/>
      <point x="651" y="817"/>
      <point x="701" y="806"/>
      <point x="683" y="635" type="curve"/>
      <point x="740" y="635" type="line"/>
      <point x="749" y="690"/>
      <point x="799" y="870"/>
      <point x="822" y="919" type="curve"/>
      <point x="801" y="936" type="line"/>
      <point x="586" y="906"/>
      <point x="312" y="901"/>
      <point x="140" y="915" type="curve"/>
      <point x="39" y="826" type="line"/>
    </contour>
    <contour>
      <point x="741" y="80" type="curve" smooth="yes"/>
      <point x="802" y="388"/>
      <point x="716" y="540"/>
      <point x="482" y="540" type="curve" smooth="yes"/>
      <point x="434" y="540"/>
      <point x="326" y="518"/>
      <point x="264" y="471" type="curve"/>
      <point x="260" y="396" type="line"/>
      <point x="318" y="440"/>
      <point x="401" y="460"/>
      <point x="445" y="460" type="curve" smooth="yes"/>
      <point x="589" y="460"/>
      <point x="646" y="300"/>
      <point x="591" y="40" type="curve" smooth="yes"/>
      <point x="540" y="-201"/>
      <point x="383" y="-371"/>
      <point x="155" y="-439" type="curve"/>
      <point x="161" y="-462"/>
      <point x="172" y="-482"/>
      <point x="184" y="-500" type="curve"/>
      <point x="493" y="-400"/>
      <point x="680" y="-230"/>
    </contour>
    <contour>
      <point x="254" y="-600" type="move" name="L"/>
    </contour>
    <contour>
      <point x="487" y="1000" type="move" name="U"/>
    </contour>
  </outline>
</glyph>
<glyph name="CySmKaDesc" format="1">
  <advance width="982"/>
  <unicode hex="049B"/>
  <outline>
    <contour>
      <point x="910" y="230" type="curve"/>
      <point x="898" y="246"/>
      <point x="893" y="248"/>
      <point x="877" y="258" type="curve"/>
      <point x="842" y="205"/>
      <point x="791" y="135"/>
      <point x="748" y="135" type="curve" smooth="yes"/>
      <point x="650" y="135"/>
      <point x="626" y="535"/>
      <point x="505" y="535" type="curve" smooth="yes"/>
      <point x="493" y="535"/>
      <point x="476" y="535"/>
      <point x="453" y="522" type="curve"/>
      <point x="619" y="737"/>
      <point x="714" y="794"/>
      <point x="773" y="794" type="curve" smooth="yes"/>
      <point x="810" y="794"/>
      <point x="853" y="754"/>
      <point x="847" y="627" type="curve"/>
      <point x="860" y="621"/>
      <point x="872" y="618"/>
      <point x="885" y="616" type="curve"/>
      <point x="927" y="758"/>
      <point x="944" y="885"/>
      <point x="931" y="895" type="curve" smooth="yes"/>
      <point x="902" y="919"/>
      <point x="866" y="936"/>
      <point x="823" y="936" type="curve" smooth="yes"/>
      <point x="724" y="936"/>
      <point x="578" y="836"/>
      <point x="291" y="426" type="curve"/>
      <point x="317" y="510"/>
      <point x="348" y="774"/>
      <point x="348" y="823" type="curve" smooth="yes"/>
      <point x="348" y="918"/>
      <point x="346" y="936"/>
      <point x="309" y="936" type="curve" smooth="yes"/>
      <point x="276" y="936"/>
      <point x="154" y="891"/>
      <point x="41" y="842" type="curve"/>
      <point x="55" y="803" type="line"/>
      <point x="55" y="803"/>
      <point x="139" y="829"/>
      <point x="162" y="829" type="curve" smooth="yes"/>
      <point x="186" y="829"/>
      <point x="199" y="823"/>
      <point x="199" y="762" type="curve" smooth="yes"/>
      <point x="199" y="668"/>
      <point x="133" y="242"/>
      <point x="66" y="-10" type="curve"/>
      <point x="98" y="-41" type="line"/>
      <point x="131" y="-24"/>
      <point x="197" y="4"/>
      <point x="233" y="20" type="curve"/>
      <point x="236" y="194"/>
      <point x="291" y="300"/>
      <point x="359" y="397" type="curve"/>
      <point x="381" y="424"/>
      <point x="403" y="441"/>
      <point x="421" y="441" type="curve" smooth="yes"/>
      <point x="514" y="441"/>
      <point x="548" y="18"/>
      <point x="666" y="-35" type="curve"/>
      <point x="524" y="-160"/>
      <point x="503" y="-199"/>
      <point x="522" y="-267" type="curve" smooth="yes"/>
      <point x="557" y="-392"/>
      <point x="546" y="-401"/>
      <point x="414" y="-464" type="curve"/>
      <point x="418" y="-474"/>
      <point x="427" y="-489"/>
      <point x="435" y="-500" type="curve"/>
      <point x="685" y="-391"/>
      <point x="711" y="-361"/>
      <point x="675" y="-207" type="curve" smooth="yes"/>
      <point x="643" y="-70"/>
      <point x="806" y="-19"/>
    </contour>
    <contour>
      <point x="379" y="-600" type="move" name="L"/>
    </contour>
    <contour>
      <point x="580" y="1000" type="move" name="U"/>
    </contour>
  </outline>
</glyph>
<glyph name="CySmShha" format="1">
  <advance width="1012"/>
  <unicode hex="04BB"/>
  <outline>
    <component base="LtnSmH"/>
    <contour>
      <point x="158" y="0" type="move" name="H"/>
    </contour>
    <contour>
      <point x="424" y="-100" type="move" name="L"/>
    </contour>
    <contour>
      <point x="657" y="1580" type="move" name="U"/>
    </contour>
  </outline>
</glyph>
<glyph name="CyPalochka" format="1">
  <advance width="573"/>
  <unicode hex="04C0"/>
  <outline>
    <component base="LtnCapI"/>
    <contour>
      <point x="225" y="0" type="move" name="H"/>
    </contour>
    <contour>
      <point x="568" y="1072" type="move" name="R"/>
    </contour>
    <contour>
      <point x="406" y="1320" type="move" name="U"/>
    </contour>
    <contour>
      <point x="211" y="-100" type="move" name="L"/>
    </contour>
    <contour>
      <point x="285" y="0" type="move" name="O"/>
    </contour>
  </outline>
</glyph>
<glyph name="CySmElTail" format="1">
  <advance width="1031"/>
  <unicode hex="04C6"/>
  <outline>
    <contour>
      <point x="61" y="279" type="line"/>
      <point x="34" y="202"/>
      <point x="-1" y="12"/>
      <point x="15" y="0" type="curve" smooth="yes"/>
      <point x="37" y="-16"/>
      <point x="78" y="-41"/>
      <point x="131" y="-41" type="curve" smooth="yes"/>
      <point x="241" y="-41"/>
      <point x="299" y="50"/>
      <point x="401" y="350" type="curve" smooth="yes"/>
      <point x="542" y="763"/>
      <point x="544" y="799"/>
      <point x="654" y="800" type="curve" smooth="yes"/>
      <point x="673" y="800"/>
      <point x="740" y="800"/>
      <point x="740" y="800" type="curve"/>
      <point x="740" y="800"/>
      <point x="882" y="938"/>
      <point x="872" y="936" type="curve"/>
      <point x="832" y="936"/>
      <point x="756" y="936"/>
      <point x="721" y="936" type="curve" smooth="yes"/>
      <point x="511" y="936"/>
      <point x="419" y="713"/>
      <point x="343" y="501" type="curve" smooth="yes"/>
      <point x="218" y="152"/>
      <point x="165" y="121"/>
      <point x="129" y="121" type="curve" smooth="yes"/>
      <point x="103" y="121"/>
      <point x="97" y="173"/>
      <point x="99" y="268" type="curve"/>
    </contour>
    <contour>
      <point x="659" y="143" type="curve" smooth="yes"/>
      <point x="659" y="102"/>
      <point x="666" y="-41"/>
      <point x="750" y="-41" type="curve" smooth="yes"/>
      <point x="783" y="-41"/>
      <point x="877" y="-7"/>
      <point x="1002" y="78" type="curve"/>
      <point x="990" y="113" type="line"/>
      <point x="935" y="93"/>
      <point x="875" y="76"/>
      <point x="853" y="76" type="curve" smooth="yes"/>
      <point x="831" y="76"/>
      <point x="800" y="104"/>
      <point x="800" y="200" type="curve" smooth="yes"/>
      <point x="800" y="305"/>
      <point x="848" y="623"/>
      <point x="905" y="905" type="curve"/>
      <point x="872" y="936" type="line"/>
      <point x="872" y="936"/>
      <point x="774" y="889"/>
      <point x="739" y="870" type="curve"/>
      <point x="746" y="806"/>
      <point x="715" y="630"/>
      <point x="695" y="492" type="curve" smooth="yes"/>
      <point x="675" y="357"/>
      <point x="659" y="246"/>
    </contour>
    <contour>
      <point x="590" y="-323" type="line"/>
      <point x="600" y="-335"/>
      <point x="605" y="-341"/>
      <point x="614" y="-350" type="curve"/>
      <point x="648" y="-335"/>
      <point x="712" y="-297"/>
      <point x="744" y="-265" type="curve"/>
      <point x="790" y="-210"/>
      <point x="994" y="57"/>
      <point x="1016" y="86" type="curve"/>
      <point x="990" y="113" type="line"/>
      <point x="954" y="86"/>
      <point x="912" y="43"/>
      <point x="865" y="23" type="curve"/>
    </contour>
    <contour>
      <point x="410" y="-400" type="move" name="L"/>
    </contour>
    <contour>
      <point x="661" y="1000" type="move" name="U"/>
    </contour>
  </outline>
</glyph>
<glyph name="CyCapLigAIe" format="1">
  <advance width="1464"/>
  <unicode hex="04D4"/>
  <outline>
    <component base="LtnCapAe"/>
    <contour>
      <point x="721" y="-100" type="move" name="L"/>
    </contour>
    <contour>
      <point x="986" y="1320" type="move" name="U"/>
    </contour>
  </outline>
</glyph>
<glyph name="CySmLigAIe" format="1">
  <advance width="1325"/>
  <unicode hex="04D5"/>
  <outline>
    <component base="LtnSmAe"/>
    <contour>
      <point x="618" y="0" type="move" name="H"/>
    </contour>
    <contour>
      <point x="599" y="-100" type="move" name="L"/>
    </contour>
    <contour>
      <point x="930" y="0" type="move" name="O"/>
    </contour>
    <contour>
      <point x="1408" y="870" type="move" name="R"/>
    </contour>
    <contour>
      <point x="750" y="1000" type="move" name="U"/>
    </contour>
  </outline>
</glyph>
<glyph name="CyCapSchwaDiaer" format="1">
  <advance width="1073"/>
  <unicode hex="04DA"/>
  <outline>
    <component base="LtnCapSchwa"/>
    <component base="CombDiaer.LP" xOffset="999" yOffset="320"/>
    <contour>
      <point x="450" y="-100" type="move" name="L"/>
    </contour>
    <contour>
      <point x="688" y="1640" type="move" name="U"/>
    </contour>
  </outline>
</glyph>
<glyph name="CySmAbkhasDze" format="1">
  <advance width="816"/>
  <unicode hex="04E1"/>
  <outline>
    <component base="LtnSmEzh"/>
    <contour>
      <point x="236" y="-600" type="move" name="L"/>
    </contour>
    <contour>
      <point x="479" y="1000" type="move" name="U"/>
    </contour>
  </outline>
</glyph>
<glyph name="CyCapIMacron" format="1">
  <advance width="1224"/>
  <unicode hex="04E2"/>
  <outline>
    <component base="CyCapI"/>
    <component base="CombMacron.LP" xOffset="1113" yOffset="320"/>
    <contour>
      <point x="792" y="1640" type="move" name="U"/>
    </contour>
    <contour>
      <point x="550" y="-100" type="move" name="L"/>
    </contour>
  </outline>
</glyph>
<glyph name="CySmBarredO" format="1">
  <advance width="864"/>
  <unicode hex="04E9"/>
  <outline>
    <component base="LtnSmBarredO"/>
    <contour>
      <point x="354" y="-100" type="move" name="L"/>
    </contour>
    <contour>
      <point x="921" y="870" type="move" name="R"/>
    </contour>
    <contour>
      <point x="505" y="1000" type="move" name="U"/>
    </contour>
  </outline>
</glyph>
<glyph name="CyCapBarredODiaer" format="1">
  <advance width="1116"/>
  <unicode hex="04EA"/>
  <outline>
    <component base="LtnCapOMiddleTilde"/>
    <component base="CombDiaer.LP" xOffset="1056" yOffset="320"/>
    <contour>
      <point x="745" y="1640" type="move" name="U"/>
    </contour>
    <contour>
      <point x="507" y="-100" type="move" name="L"/>
    </contour>
  </outline>
</glyph>
<glyph name="CyCapUMacron" format="1">
  <advance width="1116"/>
  <unicode hex="04EE"/>
  <outline>
    <component base="CyCapU"/>
    <component base="CombMacron.LP" xOffset="1097" yOffset="320"/>
    <contour>
      <point x="545" y="-100" type="move" name="L"/>
    </contour>
    <contour>
      <point x="776" y="1640" type="move" name="U"/>
    </contour>
  </outline>
</glyph>
<glyph name="CyCapCheDiaer" format="1">
  <advance width="1111"/>
  <unicode hex="04F4"/>
  <outline>
    <component base="CyCapChe"/>
    <component base="CombDiaer.LP" xOffset="1041" yOffset="320"/>
    <contour>
      <point x="490" y="-100" type="move" name="L"/>
    </contour>
    <contour>
      <point x="730" y="1640" type="move" name="U"/>
    </contour>
  </outline>
</glyph>
<glyph name="CyCapYeruDiaer" format="1">
  <advance width="1377"/>
  <unicode hex="04F8"/>
  <outline>
    <component base="CyCapYeru"/>
    <component base="CombDiaer.LP" xOffset="1185" yOffset="320"/>
    <contour>
      <point x="874" y="1640" type="move" name="U"/>
    </contour>
    <contour>
      <point x="626" y="-100" type="move" name="L"/>
    </contour>
  </outline>
</glyph>
<glyph name="CyCapHaHook" format="1">
  <advance width="1171"/>
  <unicode hex="04FC"/>
  <outline>
    <contour>
      <point x="1188" y="1217" type="curve"/>
      <point x="1194" y="1260" type="line"/>
      <point x="786" y="1260" type="line"/>
      <point x="780" y="1217" type="line"/>
      <point x="886" y="1208"/>
      <point x="928" y="1194"/>
      <point x="887" y="1133" type="curve" smooth="yes"/>
      <point x="573" y="682" type="line"/>
      <point x="597" y="535" type="line"/>
      <point x="1012" y="1133" type="line" smooth="yes"/>
      <point x="1052" y="1190"/>
      <point x="1100" y="1206"/>
    </contour>
    <contour>
      <point x="461" y="1133" type="line"/>
      <point x="433" y="1191"/>
      <point x="466" y="1206"/>
      <point x="569" y="1217" type="curve"/>
      <point x="575" y="1260" type="line"/>
      <point x="169" y="1260" type="line"/>
      <point x="163" y="1217" type="line"/>
      <point x="240" y="1204"/>
      <point x="264" y="1192"/>
      <point x="292" y="1133" type="curve" smooth="yes"/>
      <point x="778" y="113" type="line" smooth="yes"/>
      <point x="808" y="50"/>
      <point x="833" y="-30"/>
      <point x="821" y="-108" type="curve" smooth="yes"/>
      <point x="807" y="-202"/>
      <point x="753" y="-254"/>
      <point x="590" y="-313" type="curve"/>
      <point x="596" y="-338"/>
      <point x="610" y="-362"/>
      <point x="621" y="-380" type="curve"/>
      <point x="921" y="-277"/>
      <point x="956" y="-149"/>
      <point x="968" y="-61" type="curve" smooth="yes"/>
      <point x="980" y="26"/>
      <point x="951" y="110"/>
      <point x="867" y="286" type="curve" smooth="yes"/>
    </contour>
    <contour>
      <point x="607" y="578" type="line"/>
      <point x="599" y="752" type="line"/>
      <point x="169" y="127" type="line" smooth="yes"/>
      <point x="131" y="72"/>
      <point x="71" y="49"/>
      <point x="-7" y="43" type="curve"/>
      <point x="-12" y="0" type="line"/>
      <point x="393" y="0" type="line"/>
      <point x="398" y="43" type="line"/>
      <point x="288" y="51"/>
      <point x="252" y="68"/>
      <point x="294" y="127" type="curve" smooth="yes"/>
    </contour>
    <contour>
      <point x="445" y="-600" type="move" name="L"/>
    </contour>
    <contour>
      <point x="713" y="1320" type="move" name="U"/>
    </contour>
  </outline>
</glyph>
<glyph name="CySmHaHook" format="1">
  <advance width="881"/>
  <unicode hex="04FD"/>
  <outline>
    <contour>
      <point x="893" y="883" type="curve"/>
      <point x="893" y="911"/>
      <point x="870" y="936"/>
      <point x="807" y="936" type="curve" smooth="yes"/>
      <point x="774" y="936"/>
      <point x="702" y="930"/>
      <point x="614" y="911" type="curve"/>
      <point x="616" y="870" type="line"/>
      <point x="702" y="879"/>
      <point x="713" y="866"/>
      <point x="713" y="838" type="curve" smooth="yes"/>
      <point x="713" y="817"/>
      <point x="584" y="633"/>
      <point x="465" y="496" type="curve"/>
      <point x="461" y="465"/>
      <point x="500" y="410"/>
      <point x="500" y="410" type="curve"/>
      <point x="756" y="690"/>
      <point x="893" y="829"/>
    </contour>
    <contour>
      <point x="646" y="320" type="curve" smooth="yes"/>
      <point x="535" y="581"/>
      <point x="350" y="936"/>
      <point x="266" y="936" type="curve" smooth="yes"/>
      <point x="238" y="936"/>
      <point x="139" y="889"/>
      <point x="27" y="840" type="curve"/>
      <point x="41" y="801" type="line"/>
      <point x="41" y="801"/>
      <point x="143" y="827"/>
      <point x="166" y="827" type="curve" smooth="yes"/>
      <point x="257" y="827"/>
      <point x="448" y="405"/>
      <point x="516" y="241" type="curve" smooth="yes"/>
      <point x="607" y="21"/>
      <point x="646" y="-107"/>
      <point x="646" y="-189" type="curve" smooth="yes"/>
      <point x="646" y="-283"/>
      <point x="615" y="-374"/>
      <point x="415" y="-439" type="curve"/>
      <point x="423" y="-464"/>
      <point x="434" y="-484"/>
      <point x="444" y="-500" type="curve"/>
      <point x="711" y="-414"/>
      <point x="792" y="-282"/>
      <point x="792" y="-178" type="curve" smooth="yes"/>
      <point x="792" y="-64"/>
      <point x="733" y="116"/>
    </contour>
    <contour>
      <point x="462" y="399" type="curve"/>
      <point x="464" y="429"/>
      <point x="430" y="489"/>
      <point x="430" y="489" type="curve"/>
      <point x="311" y="343"/>
      <point x="102" y="109"/>
      <point x="-29" y="-6" type="curve"/>
      <point x="-6" y="-41" type="line"/>
      <point x="43" y="-27"/>
      <point x="111" y="-16"/>
      <point x="160" y="-10" type="curve"/>
      <point x="266" y="150"/>
      <point x="407" y="319"/>
    </contour>
    <contour>
      <point x="526" y="1000" type="move" name="U"/>
    </contour>
    <contour>
      <point x="304" y="-600" type="move" name="L"/>
    </contour>
  </outline>
</glyph>
<glyph name="CySmKomiDe" format="1">
  <advance width="969"/>
  <unicode hex="0501"/>
  <outline>
    <component base="LtnSmD"/>
    <contour>
      <point x="388" y="0" type="move" name="H"/>
    </contour>
    <contour>
      <point x="374" y="-100" type="move" name="L"/>
    </contour>
    <contour>
      <point x="962" y="870" type="move" name="R"/>
    </contour>
    <contour>
      <point x="354" y="1000" type="move" name="U"/>
    </contour>
  </outline>
</glyph>
<glyph name="CyCapKomiSje" format="1">
  <advance width="1160"/>
  <unicode hex="050C"/>
  <outline>
    <contour>
      <point x="511" y="-30" type="curve" smooth="yes"/>
      <point x="754" y="-30"/>
      <point x="973" y="215"/>
      <point x="1004" y="444" type="curve" smooth="yes"/>
      <point x="1026" y="600" type="line" smooth="yes"/>
      <point x="1028" y="619"/>
      <point x="1081" y="643"/>
      <point x="1164" y="662" type="curve"/>
      <point x="1170" y="705" type="line"/>
      <point x="765" y="705" type="line"/>
      <point x="759" y="662" type="line"/>
      <point x="844" y="643"/>
      <point x="884" y="616"/>
      <point x="882" y="600" type="curve" smooth="yes"/>
      <point x="851" y="374" type="line" smooth="yes"/>
      <point x="826" y="193"/>
      <point x="727" y="92"/>
      <point x="552" y="90" type="curve" smooth="yes"/>
      <point x="374" y="88"/>
      <point x="198" y="266"/>
      <point x="249" y="637" type="curve" smooth="yes"/>
      <point x="306" y="1053"/>
      <point x="560" y="1180"/>
      <point x="677" y="1180" type="curve" smooth="yes"/>
      <point x="836" y="1180"/>
      <point x="916" y="1128"/>
      <point x="945" y="997" type="curve"/>
      <point x="972" y="981" type="line"/>
      <point x="1020" y="1019"/>
      <point x="1125" y="1112"/>
      <point x="1115" y="1128" type="curve" smooth="yes"/>
      <point x="1065" y="1206"/>
      <point x="962" y="1290"/>
      <point x="799" y="1290" type="curve" smooth="yes"/>
      <point x="470" y="1290"/>
      <point x="163" y="1026"/>
      <point x="102" y="582" type="curve" smooth="yes"/>
      <point x="46" y="170"/>
      <point x="265" y="-30"/>
    </contour>
    <contour>
      <point x="743" y="1320" type="move" name="U"/>
    </contour>
    <contour>
      <point x="539" y="-100" type="move" name="L"/>
    </contour>
  </outline>
</glyph>
<glyph name="CySmRha" format="1">
  <advance width="1280"/>
  <unicode hex="0517"/>
  <outline>
    <contour>
      <point x="348" y="870" type="curve" smooth="yes"/>
      <point x="348" y="922"/>
      <point x="328" y="936"/>
      <point x="301" y="936" type="curve" smooth="yes"/>
      <point x="268" y="936"/>
      <point x="141" y="891"/>
      <point x="29" y="840" type="curve"/>
      <point x="43" y="803" type="line"/>
      <point x="43" y="803"/>
      <point x="119" y="827"/>
      <point x="143" y="827" type="curve" smooth="yes"/>
      <point x="166" y="827"/>
      <point x="190" y="821"/>
      <point x="190" y="760" type="curve" smooth="yes"/>
      <point x="190" y="590"/>
      <point x="14" y="-318"/>
      <point x="-6" y="-471" type="curve"/>
      <point x="26" y="-500" type="line"/>
      <point x="61" y="-484"/>
      <point x="137" y="-457"/>
      <point x="176" y="-447" type="curve"/>
      <point x="162" y="-410"/>
      <point x="170" y="-269"/>
      <point x="215" y="6" type="curve" smooth="yes"/>
      <point x="246" y="192" type="line"/>
      <point x="316" y="79"/>
      <point x="402" y="-41"/>
      <point x="492" y="-41" type="curve" smooth="yes"/>
      <point x="606" y="-41"/>
      <point x="705" y="82"/>
      <point x="766" y="188" type="curve" smooth="yes"/>
      <point x="784" y="221"/>
      <point x="800" y="255"/>
      <point x="814" y="289" type="curve"/>
      <point x="883" y="100"/>
      <point x="965" y="-41"/>
      <point x="1032" y="-41" type="curve" smooth="yes"/>
      <point x="1084" y="-41"/>
      <point x="1141" y="-8"/>
      <point x="1256" y="72" type="curve"/>
      <point x="1239" y="109" type="line"/>
      <point x="1190" y="84"/>
      <point x="1149" y="76"/>
      <point x="1118" y="76" type="curve" smooth="yes"/>
      <point x="1057" y="76"/>
      <point x="984" y="251"/>
      <point x="910" y="444" type="curve"/>
      <point x="1146" y="701"/>
      <point x="1272" y="831"/>
      <point x="1272" y="883" type="curve" smooth="yes"/>
      <point x="1272" y="911"/>
      <point x="1249" y="936"/>
      <point x="1186" y="936" type="curve" smooth="yes"/>
      <point x="1153" y="936"/>
      <point x="1081" y="930"/>
      <point x="993" y="911" type="curve"/>
      <point x="995" y="870" type="line"/>
      <point x="1081" y="879"/>
      <point x="1092" y="866"/>
      <point x="1092" y="838" type="curve" smooth="yes"/>
      <point x="1092" y="823"/>
      <point x="991" y="671"/>
      <point x="879" y="534" type="curve"/>
      <point x="883" y="566"/>
      <point x="885" y="597"/>
      <point x="885" y="627" type="curve" smooth="yes"/>
      <point x="885" y="827"/>
      <point x="799" y="936"/>
      <point x="696" y="936" type="curve" smooth="yes"/>
      <point x="617" y="936"/>
      <point x="493" y="907"/>
      <point x="321" y="644" type="curve"/>
      <point x="339" y="760"/>
      <point x="348" y="830"/>
    </contour>
    <contour>
      <point x="610" y="805" type="curve" smooth="yes"/>
      <point x="674" y="805"/>
      <point x="739" y="719"/>
      <point x="739" y="532" type="curve" smooth="yes"/>
      <point x="739" y="451"/>
      <point x="735" y="324"/>
      <point x="686" y="219" type="curve"/>
      <point x="655" y="147"/>
      <point x="598" y="106"/>
      <point x="526" y="106" type="curve" smooth="yes"/>
      <point x="418" y="106"/>
      <point x="305" y="234"/>
      <point x="266" y="314" type="curve"/>
      <point x="291" y="460" type="line"/>
      <point x="377" y="666"/>
      <point x="539" y="805"/>
    </contour>
    <contour>
      <point x="491" y="-600" type="move" name="L"/>
    </contour>
    <contour>
      <point x="727" y="1000" type="move" name="U"/>
    </contour>
  </outline>
</glyph>
<glyph name="CySmElMiddleHook" format="1">
  <advance width="1348"/>
  <unicode hex="0521"/>
  <outline>
    <contour>
      <point x="61" y="279" type="line"/>
      <point x="34" y="202"/>
      <point x="-1" y="12"/>
      <point x="15" y="0" type="curve" smooth="yes"/>
      <point x="37" y="-16"/>
      <point x="78" y="-41"/>
      <point x="131" y="-41" type="curve" smooth="yes"/>
      <point x="241" y="-41"/>
      <point x="299" y="50"/>
      <point x="401" y="350" type="curve" smooth="yes"/>
      <point x="542" y="763"/>
      <point x="544" y="799"/>
      <point x="654" y="800" type="curve" smooth="yes"/>
      <point x="673" y="800"/>
      <point x="740" y="800"/>
      <point x="740" y="800" type="curve"/>
      <point x="740" y="800"/>
      <point x="882" y="938"/>
      <point x="872" y="936" type="curve"/>
      <point x="832" y="936"/>
      <point x="756" y="936"/>
      <point x="721" y="936" type="curve" smooth="yes"/>
      <point x="511" y="936"/>
      <point x="419" y="713"/>
      <point x="343" y="501" type="curve" smooth="yes"/>
      <point x="218" y="152"/>
      <point x="165" y="131"/>
      <point x="129" y="131" type="curve" smooth="yes"/>
      <point x="103" y="131"/>
      <point x="97" y="173"/>
      <point x="99" y="268" type="curve"/>
    </contour>
    <contour>
      <point x="872" y="936" type="line"/>
      <point x="872" y="936"/>
      <point x="766" y="889"/>
      <point x="731" y="870" type="curve"/>
      <point x="735" y="620"/>
      <point x="662" y="233"/>
      <point x="610" y="-10" type="curve"/>
      <point x="643" y="-41" type="line"/>
      <point x="676" y="-23"/>
      <point x="751" y="6"/>
      <point x="786" y="25" type="curve"/>
      <point x="784" y="104"/>
      <point x="809" y="332"/>
      <point x="828" y="451" type="curve" smooth="yes"/>
      <point x="852" y="598"/>
      <point x="884" y="796"/>
      <point x="905" y="905" type="curve"/>
    </contour>
    <contour>
      <point x="1262" y="80" type="curve" smooth="yes"/>
      <point x="1323" y="388"/>
      <point x="1237" y="540"/>
      <point x="1003" y="540" type="curve" smooth="yes"/>
      <point x="955" y="540"/>
      <point x="847" y="518"/>
      <point x="785" y="471" type="curve"/>
      <point x="781" y="396" type="line"/>
      <point x="839" y="440"/>
      <point x="922" y="460"/>
      <point x="966" y="460" type="curve" smooth="yes"/>
      <point x="1110" y="460"/>
      <point x="1167" y="300"/>
      <point x="1112" y="40" type="curve" smooth="yes"/>
      <point x="1061" y="-201"/>
      <point x="904" y="-371"/>
      <point x="676" y="-439" type="curve"/>
      <point x="682" y="-462"/>
      <point x="693" y="-482"/>
      <point x="705" y="-500" type="curve"/>
      <point x="1014" y="-400"/>
      <point x="1201" y="-230"/>
    </contour>
    <contour>
      <point x="417" y="-100" type="move" name="L"/>
    </contour>
    <contour>
      <point x="667" y="1000" type="move" name="U"/>
    </contour>
  </outline>
</glyph>
<glyph name="CyCapEnMiddleHook" format="1">
  <advance width="1623"/>
  <unicode hex="0522"/>
  <outline>
    <contour>
      <point x="1063" y="0" type="line"/>
      <point x="1068" y="43" type="line"/>
      <point x="985" y="61"/>
      <point x="944" y="88"/>
      <point x="946" y="104" type="curve" smooth="yes"/>
      <point x="1090" y="1155" type="line" smooth="yes"/>
      <point x="1092" y="1174"/>
      <point x="1146" y="1198"/>
      <point x="1229" y="1217" type="curve"/>
      <point x="1235" y="1260" type="line"/>
      <point x="830" y="1260" type="line"/>
      <point x="824" y="1217" type="line"/>
      <point x="908" y="1198"/>
      <point x="948" y="1171"/>
      <point x="946" y="1155" type="curve" smooth="yes"/>
      <point x="802" y="104" type="line" smooth="yes"/>
      <point x="799" y="86"/>
      <point x="747" y="61"/>
      <point x="663" y="43" type="curve"/>
      <point x="658" y="0" type="line"/>
    </contour>
    <contour>
      <point x="890" y="615" type="line"/>
      <point x="902" y="705" type="line"/>
      <point x="350" y="705" type="line"/>
      <point x="338" y="615" type="line"/>
    </contour>
    <contour>
      <point x="410" y="0" type="line"/>
      <point x="415" y="43" type="line"/>
      <point x="331" y="61"/>
      <point x="291" y="88"/>
      <point x="293" y="104" type="curve" smooth="yes"/>
      <point x="437" y="1155" type="line" smooth="yes"/>
      <point x="439" y="1174"/>
      <point x="493" y="1198"/>
      <point x="576" y="1217" type="curve"/>
      <point x="582" y="1260" type="line"/>
      <point x="177" y="1260" type="line"/>
      <point x="171" y="1217" type="line"/>
      <point x="255" y="1198"/>
      <point x="295" y="1171"/>
      <point x="293" y="1155" type="curve" smooth="yes"/>
      <point x="149" y="104" type="line" smooth="yes"/>
      <point x="146" y="86"/>
      <point x="94" y="61"/>
      <point x="10" y="43" type="curve"/>
      <point x="5" y="0" type="line"/>
    </contour>
    <contour>
      <point x="1546" y="230" type="curve" smooth="yes"/>
      <point x="1604" y="539"/>
      <point x="1465" y="740"/>
      <point x="1189" y="740" type="curve" smooth="yes"/>
      <point x="1105" y="740"/>
      <point x="998" y="708"/>
      <point x="914" y="690" type="curve"/>
      <point x="912" y="612" type="line"/>
      <point x="979" y="625"/>
      <point x="1075" y="650"/>
      <point x="1129" y="650" type="curve" smooth="yes"/>
      <point x="1363" y="650"/>
      <point x="1439" y="450"/>
      <point x="1386" y="190" type="curve" smooth="yes"/>
      <point x="1343" y="-21"/>
      <point x="1245" y="-214"/>
      <point x="948" y="-312" type="curve"/>
      <point x="954" y="-335"/>
      <point x="967" y="-362"/>
      <point x="979" y="-380" type="curve"/>
      <point x="1338" y="-259"/>
      <point x="1488" y="-81"/>
    </contour>
    <contour>
      <point x="554" y="-100" type="move" name="L"/>
    </contour>
    <contour>
      <point x="733" y="1320" type="move" name="U"/>
    </contour>
  </outline>
</glyph>
<glyph name="CySmShhaDesc" format="1">
  <advance width="1025"/>
  <unicode hex="0527"/>
  <outline>
    <component base="LtnSmHDesc"/>
    <contour>
      <point x="424" y="-100" type="move" name="L"/>
    </contour>
    <contour>
      <point x="657" y="1580" type="move" name="U"/>
    </contour>
  </outline>
</glyph>
<glyph name="CombLightCentralizationStrkBlw" format="1">
  <advance width="0"/>
  <unicode hex="1AB9"/>
  <outline>
    <component base="CombAcuteBlw"/>
    <contour>
      <point x="-543" y="-600" type="move" name="L"/>
    </contour>
    <contour>
      <point x="-467" y="-100" type="move" name="_L"/>
    </contour>
  </outline>
</glyph>
<glyph name="CombStrongCentralizationStrkBlw" format="1">
  <advance width="0"/>
  <unicode hex="1ABA"/>
  <outline>
    <component base="CombAcuteBlw"/>
    <contour>
      <point x="-543" y="-600" type="move" name="L"/>
    </contour>
    <contour>
      <point x="-467" y="-100" type="move" name="_L"/>
    </contour>
  </outline>
</glyph>
<glyph name="LtnSmTrndAe" format="1">
  <advance width="1351"/>
  <unicode hex="1D02"/>
  <outline>
    <contour>
      <point x="112" y="427"/>
      <point x="50" y="251"/>
      <point x="50" y="134" type="curve" smooth="yes"/>
      <point x="50" y="48"/>
      <point x="103" y="-42"/>
      <point x="218" y="-42" type="curve" smooth="yes"/>
      <point x="308" y="-42"/>
      <point x="409" y="-5"/>
      <point x="479" y="48" type="curve" smooth="yes"/>
      <point x="655" y="185"/>
      <point x="736" y="382"/>
      <point x="736" y="591" type="curve" smooth="yes"/>
      <point x="736" y="796"/>
      <point x="626" y="935"/>
      <point x="485" y="935" type="curve" smooth="yes"/>
      <point x="369" y="935"/>
      <point x="238" y="855"/>
      <point x="73" y="714" type="curve"/>
      <point x="79" y="704"/>
      <point x="89" y="681"/>
      <point x="103" y="673" type="curve"/>
      <point x="265" y="802"/>
      <point x="366" y="818"/>
      <point x="423" y="818" type="curve" smooth="yes"/>
      <point x="501" y="818"/>
      <point x="595" y="691"/>
      <point x="595" y="517" type="curve" smooth="yes"/>
      <point x="595" y="370"/>
      <point x="534" y="219"/>
      <point x="454" y="135" type="curve" smooth="yes"/>
      <point x="404" y="83"/>
      <point x="338" y="62"/>
      <point x="302" y="62" type="curve" smooth="yes"/>
      <point x="257" y="62"/>
      <point x="210" y="95"/>
      <point x="210" y="179" type="curve" smooth="yes"/>
      <point x="210" y="278"/>
      <point x="250" y="394"/>
      <point x="657" y="544" type="curve"/>
      <point x="682" y="573"/>
      <point x="651" y="615"/>
      <point x="651" y="615" type="curve"/>
    </contour>
    <contour>
      <point x="626" y="652" type="line"/>
      <point x="617" y="531"/>
      <point x="552" y="299"/>
      <point x="552" y="175" type="curve" smooth="yes"/>
      <point x="552" y="54"/>
      <point x="608" y="-42"/>
      <point x="779" y="-42" type="curve" smooth="yes"/>
      <point x="910" y="-42"/>
      <point x="1100" y="2"/>
      <point x="1202" y="168" type="curve"/>
      <point x="1194" y="205" type="line"/>
      <point x="1137" y="198"/>
      <point x="1038" y="166"/>
      <point x="1034" y="149" type="curve" smooth="yes"/>
      <point x="1018" y="80"/>
      <point x="946" y="46"/>
      <point x="862" y="46" type="curve" smooth="yes"/>
      <point x="710" y="46"/>
      <point x="690" y="122"/>
      <point x="690" y="216" type="curve" smooth="yes"/>
      <point x="690" y="337"/>
      <point x="716" y="372"/>
      <point x="732" y="517" type="curve"/>
    </contour>
    <contour>
      <point x="628" y="316" type="line"/>
      <point x="907" y="378" type="line" smooth="yes"/>
      <point x="1079" y="416"/>
      <point x="1271" y="550"/>
      <point x="1271" y="771" type="curve" smooth="yes"/>
      <point x="1271" y="863"/>
      <point x="1179" y="935"/>
      <point x="1103" y="935" type="curve" smooth="yes"/>
      <point x="1003" y="935"/>
      <point x="775" y="871"/>
      <point x="659" y="575" type="curve"/>
      <point x="677" y="501" type="line"/>
      <point x="796" y="771"/>
      <point x="962" y="814"/>
      <point x="1042" y="814" type="curve" smooth="yes"/>
      <point x="1070" y="814"/>
      <point x="1130" y="783"/>
      <point x="1130" y="706" type="curve" smooth="yes"/>
      <point x="1130" y="548"/>
      <point x="948" y="464"/>
      <point x="835" y="441" type="curve"/>
      <point x="632" y="402" type="line"/>
    </contour>
    <contour>
      <point x="592" y="-100" type="move" name="L"/>
    </contour>
    <contour>
      <point x="747" y="1000" type="move" name="U"/>
    </contour>
  </outline>
</glyph>
<glyph name="LtnSmCapOu" format="1">
  <advance width="841"/>
  <unicode hex="1D15"/>
  <outline>
    <contour>
      <point x="463" y="866" type="curve" smooth="yes"/>
      <point x="558" y="866"/>
      <point x="625" y="805"/>
      <point x="625" y="745" type="curve" smooth="yes"/>
      <point x="625" y="697"/>
      <point x="582" y="642"/>
      <point x="452" y="584" type="curve"/>
      <point x="528" y="560" type="line"/>
      <point x="676" y="625"/>
      <point x="737" y="693"/>
      <point x="737" y="769" type="curve" smooth="yes"/>
      <point x="737" y="874"/>
      <point x="635" y="931"/>
      <point x="508" y="931" type="curve" smooth="yes"/>
      <point x="365" y="931"/>
      <point x="170" y="847"/>
      <point x="170" y="713" type="curve" smooth="yes"/>
      <point x="170" y="438"/>
      <point x="615" y="522"/>
      <point x="615" y="260" type="curve" smooth="yes"/>
      <point x="615" y="141"/>
      <point x="512" y="63"/>
      <point x="387" y="63" type="curve" smooth="yes"/>
      <point x="240" y="63"/>
      <point x="171" y="156"/>
      <point x="171" y="265" type="curve" smooth="yes"/>
      <point x="171" y="368"/>
      <point x="249" y="431"/>
      <point x="390" y="506" type="curve"/>
      <point x="322" y="541" type="line"/>
      <point x="153" y="480"/>
      <point x="35" y="366"/>
      <point x="35" y="233" type="curve" smooth="yes"/>
      <point x="35" y="96"/>
      <point x="134" y="-41"/>
      <point x="328" y="-41" type="curve" smooth="yes"/>
      <point x="546" y="-41"/>
      <point x="761" y="100"/>
      <point x="761" y="302" type="curve" smooth="yes"/>
      <point x="761" y="626"/>
      <point x="271" y="585"/>
      <point x="271" y="747" type="curve" smooth="yes"/>
      <point x="271" y="812"/>
      <point x="384" y="866"/>
    </contour>
    <contour>
      <point x="360" y="-100" type="move" name="L"/>
    </contour>
    <contour>
      <point x="484" y="1000" type="move" name="U"/>
    </contour>
  </outline>
</glyph>
<glyph name="ModSmTrndAe" format="1">
  <advance width="942"/>
  <unicode hex="1D46"/>
  <outline>
    <contour>
      <point x="123" y="866"/>
      <point x="80" y="759"/>
      <point x="80" y="688" type="curve" smooth="yes"/>
      <point x="80" y="637"/>
      <point x="117" y="583"/>
      <point x="198" y="583" type="curve" smooth="yes"/>
      <point x="261" y="583"/>
      <point x="331" y="605"/>
      <point x="380" y="637" type="curve" smooth="yes"/>
      <point x="503" y="719"/>
      <point x="565" y="837"/>
      <point x="565" y="963" type="curve" smooth="yes"/>
      <point x="565" y="1114"/>
      <point x="453" y="1169"/>
      <point x="391" y="1169" type="curve" smooth="yes"/>
      <point x="324" y="1169"/>
      <point x="251" y="1150"/>
      <point x="96" y="1036" type="curve"/>
      <point x="100" y="1024"/>
      <point x="109" y="1012"/>
      <point x="123" y="1004" type="curve"/>
      <point x="231" y="1078"/>
      <point x="306" y="1089"/>
      <point x="341" y="1089" type="curve" smooth="yes"/>
      <point x="394" y="1089"/>
      <point x="451" y="1012"/>
      <point x="451" y="918" type="curve" smooth="yes"/>
      <point x="451" y="829"/>
      <point x="418" y="749"/>
      <point x="357" y="695" type="curve" smooth="yes"/>
      <point x="325" y="667"/>
      <point x="282" y="655"/>
      <point x="256" y="655" type="curve" smooth="yes"/>
      <point x="234" y="655"/>
      <point x="210" y="676"/>
      <point x="210" y="715" type="curve" smooth="yes"/>
      <point x="210" y="771"/>
      <point x="233" y="840"/>
      <point x="505" y="926" type="curve"/>
      <point x="522" y="944"/>
      <point x="501" y="979"/>
      <point x="501" y="979" type="curve"/>
    </contour>
    <contour>
      <point x="470" y="1004" type="line"/>
      <point x="465" y="931"/>
      <point x="427" y="790"/>
      <point x="427" y="715" type="curve" smooth="yes"/>
      <point x="427" y="642"/>
      <point x="490" y="583"/>
      <point x="590" y="583" type="curve" smooth="yes"/>
      <point x="667" y="583"/>
      <point x="799" y="610"/>
      <point x="869" y="711" type="curve"/>
      <point x="864" y="753" type="line"/>
      <point x="831" y="749"/>
      <point x="753" y="730"/>
      <point x="750" y="719" type="curve" smooth="yes"/>
      <point x="739" y="678"/>
      <point x="698" y="657"/>
      <point x="639" y="657" type="curve" smooth="yes"/>
      <point x="560" y="657"/>
      <point x="538" y="683"/>
      <point x="538" y="740" type="curve" smooth="yes"/>
      <point x="538" y="813"/>
      <point x="552" y="834"/>
      <point x="562" y="922" type="curve"/>
    </contour>
    <contour>
      <point x="491" y="776" type="line"/>
      <point x="656" y="811" type="line" smooth="yes"/>
      <point x="785" y="838"/>
      <point x="932" y="925"/>
      <point x="932" y="1049" type="curve" smooth="yes"/>
      <point x="932" y="1115"/>
      <point x="866" y="1169"/>
      <point x="801" y="1169" type="curve" smooth="yes"/>
      <point x="742" y="1169"/>
      <point x="632" y="1140"/>
      <point x="510" y="980" type="curve"/>
      <point x="530" y="896" type="line"/>
      <point x="627" y="1053"/>
      <point x="708" y="1075"/>
      <point x="750" y="1075" type="curve" smooth="yes"/>
      <point x="781" y="1075"/>
      <point x="807" y="1046"/>
      <point x="807" y="1010" type="curve" smooth="yes"/>
      <point x="807" y="924"/>
      <point x="680" y="876"/>
      <point x="613" y="862" type="curve"/>
      <point x="494" y="837" type="line"/>
    </contour>
    <contour>
      <point x="460" y="540" type="move" name="L"/>
    </contour>
    <contour>
      <point x="555" y="1216" type="move" name="U"/>
    </contour>
  </outline>
</glyph>
<glyph name="ModSmChi" format="1">
  <advance width="658"/>
  <unicode hex="1D61"/>
  <outline>
    <contour>
      <point x="720" y="1151" type="curve"/>
      <point x="705" y="1171" type="line"/>
      <point x="670" y="1162"/>
      <point x="603" y="1156"/>
      <point x="568" y="1152" type="curve"/>
      <point x="515" y="1049"/>
      <point x="450" y="935"/>
      <point x="368" y="822" type="curve"/>
      <point x="389" y="748" type="line"/>
      <point x="488" y="888"/>
      <point x="602" y="1024"/>
    </contour>
    <contour>
      <point x="641" y="517" type="curve"/>
      <point x="617" y="548" type="line"/>
      <point x="577" y="509"/>
      <point x="552" y="490"/>
      <point x="529" y="490" type="curve" smooth="yes"/>
      <point x="505" y="490"/>
      <point x="462" y="591"/>
      <point x="406" y="817" type="curve" smooth="yes"/>
      <point x="330" y="1125"/>
      <point x="301" y="1170"/>
      <point x="249" y="1170" type="curve" smooth="yes"/>
      <point x="228" y="1170"/>
      <point x="138" y="1141"/>
      <point x="59" y="1112" type="curve"/>
      <point x="72" y="1079" type="line"/>
      <point x="72" y="1079"/>
      <point x="129" y="1092"/>
      <point x="145" y="1092" type="curve" smooth="yes"/>
      <point x="198" y="1092"/>
      <point x="242" y="997"/>
      <point x="304" y="751" type="curve"/>
      <point x="374" y="483"/>
      <point x="403" y="377"/>
      <point x="482" y="377" type="curve" smooth="yes"/>
      <point x="518" y="377"/>
      <point x="558" y="414"/>
    </contour>
    <contour>
      <point x="347" y="723" type="curve"/>
      <point x="327" y="796" type="line"/>
      <point x="237" y="666"/>
      <point x="113" y="521"/>
      <point x="-20" y="397" type="curve"/>
      <point x="-3" y="377" type="line"/>
      <point x="31" y="385"/>
      <point x="99" y="394"/>
      <point x="134" y="398" type="curve"/>
      <point x="204" y="503"/>
      <point x="305" y="651"/>
    </contour>
    <contour>
      <point x="290" y="258" type="move" name="L"/>
    </contour>
    <contour>
      <point x="423" y="1216" type="move" name="U"/>
    </contour>
  </outline>
</glyph>
<glyph name="ModCyCapEn" format="1">
  <advance width="864"/>
  <unicode hex="1D78"/>
  <outline>
    <component base="ModCapH"/>
    <contour>
      <point x="440" y="540" type="move" name="L"/>
    </contour>
    <contour>
      <point x="563" y="1422" type="move" name="U"/>
    </contour>
  </outline>
</glyph>
<glyph name="LtnSupSmTurnedAlpha" format="1">
  <advance width="655"/>
  <unicode hex="1D9B"/>
  <outline>
    <contour>
      <point x="78" y="1111" type="curve"/>
      <point x="88" y="1079" type="line"/>
      <point x="125" y="1092"/>
      <point x="132" y="1094"/>
      <point x="146" y="1094" type="curve" smooth="yes"/>
      <point x="171" y="1094"/>
      <point x="179" y="1085"/>
      <point x="179" y="1054" type="curve" smooth="yes"/>
      <point x="179" y="989"/>
      <point x="150" y="824"/>
      <point x="121" y="709" type="curve" smooth="yes"/>
      <point x="108" y="655"/>
      <point x="97" y="635"/>
      <point x="66" y="613" type="curve"/>
      <point x="86" y="583" type="line"/>
      <point x="149" y="609"/>
      <point x="222" y="652"/>
      <point x="231" y="688" type="curve" smooth="yes"/>
      <point x="282" y="911"/>
      <point x="309" y="1069"/>
      <point x="309" y="1133" type="curve" smooth="yes"/>
      <point x="309" y="1155"/>
      <point x="294" y="1170"/>
      <point x="267" y="1170" type="curve" smooth="yes"/>
      <point x="247" y="1170"/>
      <point x="173" y="1150"/>
    </contour>
    <contour>
      <point x="149" y="705" type="curve"/>
      <point x="182" y="702"/>
      <point x="303" y="585"/>
      <point x="366" y="583" type="curve" smooth="yes"/>
      <point x="408" y="582"/>
      <point x="451" y="601"/>
      <point x="523" y="675" type="curve" smooth="yes"/>
      <point x="571" y="725"/>
      <point x="645" y="835"/>
      <point x="645" y="961" type="curve" smooth="yes"/>
      <point x="645" y="1111"/>
      <point x="557" y="1169"/>
      <point x="496" y="1169" type="curve" smooth="yes"/>
      <point x="417" y="1169"/>
      <point x="315" y="1054"/>
      <point x="269" y="981" type="curve"/>
      <point x="251" y="858" type="line"/>
      <point x="303" y="954"/>
      <point x="403" y="1077"/>
      <point x="450" y="1077" type="curve" smooth="yes"/>
      <point x="496" y="1077"/>
      <point x="532" y="1015"/>
      <point x="532" y="917" type="curve" smooth="yes"/>
      <point x="532" y="827"/>
      <point x="482" y="673"/>
      <point x="405" y="673" type="curve" smooth="yes"/>
      <point x="321" y="673"/>
      <point x="234" y="734"/>
      <point x="209" y="734" type="curve" smooth="yes"/>
      <point x="185" y="734"/>
      <point x="189" y="729"/>
    </contour>
    <contour>
      <point x="329" y="540" type="move" name="L"/>
    </contour>
    <contour>
      <point x="424" y="1216" type="move" name="U"/>
    </contour>
  </outline>
</glyph>
<glyph name="CombMacron_Grave" format="1">
  <advance width="0"/>
  <unicode hex="1DC6"/>
  <outline>
    <contour>
      <point x="-11" y="1032" type="curve"/>
      <point x="-130" y="1378" type="line"/>
      <point x="-160" y="1376"/>
      <point x="-230" y="1361"/>
      <point x="-255" y="1354" type="curve"/>
      <point x="-280" y="1314" type="line"/>
      <point x="-64" y="1001" type="line"/>
      <point x="-43" y="1008"/>
      <point x="-29" y="1016"/>
    </contour>
    <contour>
      <point x="-130" y="1378" type="line"/>
      <point x="-559" y="1378" type="line"/>
      <point x="-574" y="1352"/>
      <point x="-600" y="1303"/>
      <point x="-609" y="1274" type="curve"/>
      <point x="-593" y="1250" type="line"/>
      <point x="-164" y="1250" type="line"/>
    </contour>
    <contour>
      <point x="-354" y="1000" type="move" name="_U"/>
    </contour>
  </outline>
</glyph>
<glyph name="CombAcute_Grave_Acute" format="1">
  <advance width="0"/>
  <unicode hex="1DC9"/>
  <outline>
    <contour>
      <point x="-268" y="1041" type="line"/>
      <point x="-184" y="1041" type="line"/>
      <point x="39" y="1313" type="line"/>
      <point x="29" y="1336"/>
      <point x="27" y="1344"/>
      <point x="12" y="1354" type="curve"/>
      <point x="-214" y="1177" type="line"/>
      <point x="-318" y="1354" type="line"/>
      <point x="-402" y="1354" type="line"/>
      <point x="-625" y="1082" type="line"/>
      <point x="-614" y="1059"/>
      <point x="-612" y="1052"/>
      <point x="-599" y="1041" type="curve"/>
      <point x="-371" y="1216" type="line"/>
    </contour>
    <contour>
      <point x="-354" y="1000" type="move" name="_U"/>
    </contour>
  </outline>
</glyph>
<glyph name="LtnSmARingBlw" format="1">
  <advance width="922"/>
  <unicode hex="1E01"/>
  <outline>
    <component base="LtnSmA"/>
    <component base="CombRingBlw" xOffset="908"/>
    <contour>
      <point x="368" y="0" type="move" name="H"/>
    </contour>
    <contour>
      <point x="322" y="-650" type="move" name="L"/>
    </contour>
    <contour>
      <point x="723" y="0" type="move" name="O"/>
    </contour>
    <contour>
      <point x="933" y="870" type="move" name="R"/>
    </contour>
    <contour>
      <point x="550" y="1000" type="move" name="U"/>
    </contour>
  </outline>
</glyph>
<glyph name="LtnCapBDotAbv" format="1">
  <advance width="1014"/>
  <unicode hex="1E02"/>
  <outline>
    <component base="LtnCapB"/>
    <component base="CombDotAbv.LP" xOffset="964" yOffset="320"/>
    <contour>
      <point x="652" y="1640" type="move" name="U"/>
    </contour>
    <contour>
      <point x="413" y="-100" type="move" name="L"/>
    </contour>
  </outline>
</glyph>
<glyph name="LtnSmBDotAbv" format="1">
  <advance width="956"/>
  <unicode hex="1E03"/>
  <outline>
    <component base="LtnSmB"/>
    <component base="DotAbv" xOffset="415"/>
    <contour>
      <point x="430" y="-100" type="move" name="L"/>
    </contour>
    <contour>
      <point x="968" y="870" type="move" name="R"/>
    </contour>
    <contour>
      <point x="689" y="1353" type="move" name="U"/>
    </contour>
    <contour>
      <point x="440" y="0" type="move" name="H"/>
    </contour>
  </outline>
</glyph>
<glyph name="LtnCapBLineBlw" format="1">
  <advance width="1014"/>
  <unicode hex="1E06"/>
  <outline>
    <component base="LtnCapB"/>
    <component base="CombMacronBlw" xOffset="917"/>
    <contour>
      <point x="608" y="1320" type="move" name="U"/>
    </contour>
    <contour>
      <point x="345" y="-600" type="move" name="L"/>
    </contour>
  </outline>
</glyph>
<glyph name="LtnSmBLineBlw" format="1">
  <advance width="956"/>
  <unicode hex="1E07"/>
  <outline>
    <component base="LtnSmB"/>
    <component base="CombMacronBlw" xOffset="934"/>
    <contour>
      <point x="440" y="0" type="move" name="H"/>
    </contour>
    <contour>
      <point x="968" y="870" type="move" name="R"/>
    </contour>
    <contour>
      <point x="690" y="1580" type="move" name="U"/>
    </contour>
    <contour>
      <point x="362" y="-600" type="move" name="L"/>
    </contour>
  </outline>
</glyph>
<glyph name="LtnCapCCedillaAcute" format="1">
  <advance width="995"/>
  <unicode hex="1E08"/>
  <outline>
    <component base="LtnCapC"/>
    <component base="CombCedilla" xOffset="952"/>
    <component base="CombAcute.LP" xOffset="1039" yOffset="320"/>
    <contour>
      <point x="383" y="-600" type="move" name="L"/>
    </contour>
    <contour>
      <point x="730" y="1640" type="move" name="U"/>
    </contour>
  </outline>
</glyph>
<glyph name="LtnSmDLineBlw" format="1">
  <advance width="969"/>
  <unicode hex="1E0F"/>
  <outline>
    <component base="LtnSmD"/>
    <component base="CombMacronBlw" xOffset="878"/>
    <contour>
      <point x="388" y="0" type="move" name="H"/>
    </contour>
    <contour>
      <point x="306" y="-600" type="move" name="L"/>
    </contour>
    <contour>
      <point x="962" y="870" type="move" name="R"/>
    </contour>
    <contour>
      <point x="354" y="1000" type="move" name="U"/>
    </contour>
  </outline>
</glyph>
<glyph name="LtnCapDCedilla" format="1">
  <advance width="1118"/>
  <unicode hex="1E10"/>
  <outline>
    <component base="LtnCapD"/>
    <component base="CombCommaBlw" xOffset="971"/>
    <contour>
      <point x="396" y="-600" type="move" name="L"/>
    </contour>
    <contour>
      <point x="659" y="1320" type="move" name="U"/>
    </contour>
  </outline>
</glyph>
<glyph name="LtnCapDCircumBlw" format="1">
  <advance width="1118"/>
  <unicode hex="1E12"/>
  <outline>
    <component base="LtnCapD"/>
    <component base="CombCircumBlw" xOffset="970"/>
    <contour>
      <point x="396" y="-600" type="move" name="L"/>
    </contour>
    <contour>
      <point x="659" y="1320" type="move" name="U"/>
    </contour>
  </outline>
</glyph>
<glyph name="LtnCapEMacronGrave" format="1">
  <advance width="946"/>
  <unicode hex="1E14"/>
  <outline>
    <component base="LtnCapE"/>
    <component base="CombMacron.LP" xOffset="956" yOffset="320"/>
    <component base="CombGrave.LP" xOffset="910" yOffset="640"/>
    <contour>
      <point x="411" y="0" type="move" name="H"/>
    </contour>
    <contour>
      <point x="397" y="-100" type="move" name="L"/>
    </contour>
    <contour>
      <point x="621" y="0" type="move" name="O"/>
    </contour>
    <contour>
      <point x="972" y="1072" type="move" name="R"/>
    </contour>
    <contour>
      <point x="678" y="1960" type="move" name="U"/>
    </contour>
  </outline>
</glyph>
<glyph name="LtnSmEMacronGrave" format="1">
  <advance width="805"/>
  <unicode hex="1E15"/>
  <outline>
    <component base="LtnSmE"/>
    <component base="CombMacron" xOffset="875"/>
    <component base="CombGrave" xOffset="837" yOffset="370"/>
    <contour>
      <point x="358" y="0" type="move" name="H"/>
    </contour>
    <contour>
      <point x="344" y="-100" type="move" name="L"/>
    </contour>
    <contour>
      <point x="408" y="0" type="move" name="O"/>
    </contour>
    <contour>
      <point x="884" y="870" type="move" name="R"/>
    </contour>
    <contour>
      <point x="612" y="1740" type="move" name="U"/>
    </contour>
  </outline>
</glyph>
<glyph name="LtnCapECedillaBreve" format="1">
  <advance width="946"/>
  <unicode hex="1E1C"/>
  <outline>
    <component base="LtnCapE"/>
    <component base="CombCedilla" xOffset="898"/>
    <component base="CombBreve" xOffset="945" yOffset="320"/>
    <contour>
      <point x="972" y="1072" type="move" name="R"/>
    </contour>
    <contour>
      <point x="635" y="1640" type="move" name="U"/>
    </contour>
    <contour>
      <point x="329" y="-600" type="move" name="L"/>
    </contour>
    <contour>
      <point x="621" y="0" type="move" name="O"/>
    </contour>
  </outline>
</glyph>
<glyph name="LtnCapFDotAbv" format="1">
  <advance width="891"/>
  <unicode hex="1E1E"/>
  <outline>
    <component base="LtnCapF"/>
    <component base="CombDotAbv.LP" xOffset="923" yOffset="320"/>
    <contour>
      <point x="373" y="-100" type="move" name="L"/>
    </contour>
    <contour>
      <point x="611" y="1640" type="move" name="U"/>
    </contour>
  </outline>
</glyph>
<glyph name="LtnSmFDotAbv" format="1">
  <advance width="559"/>
  <unicode hex="1E1F"/>
  <outline>
    <component base="LtnSmF"/>
    <component base="CombDotAbv.LP" xOffset="936" yOffset="640"/>
    <contour>
      <point x="-50" y="-450" type="move" name="H"/>
    </contour>
    <contour>
      <point x="624" y="1960" type="move" name="U"/>
    </contour>
    <contour>
      <point x="390" y="-100" type="move" name="L"/>
    </contour>
  </outline>
</glyph>
<glyph name="LtnSmHDotAbv" format="1">
  <advance width="1012"/>
  <unicode hex="1E23"/>
  <outline>
    <component base="LtnSmH"/>
    <component base="CombDotAbv.LP" xOffset="1013" yOffset="580"/>
    <contour>
      <point x="158" y="0" type="move" name="H"/>
    </contour>
    <contour>
      <point x="701" y="1900" type="move" name="U"/>
    </contour>
    <contour>
      <point x="424" y="-100" type="move" name="L"/>
    </contour>
  </outline>
</glyph>
<glyph name="LtnCapHDotBlw" format="1">
  <advance width="1235"/>
  <unicode hex="1E24"/>
  <outline>
    <component base="LtnCapH"/>
    <component base="CombDotBlw" xOffset="1044"/>
    <contour>
      <point x="216" y="0" type="move" name="H"/>
    </contour>
    <contour>
      <point x="473" y="-600" type="move" name="L"/>
    </contour>
    <contour>
      <point x="737" y="1320" type="move" name="U"/>
    </contour>
  </outline>
</glyph>
<glyph name="LtnSmHDotBlw" format="1">
  <advance width="1012"/>
  <unicode hex="1E25"/>
  <outline>
    <component base="LtnSmH"/>
    <component base="CombDotBlw" xOffset="926"/>
    <contour>
      <point x="158" y="0" type="move" name="H"/>
    </contour>
    <contour>
      <point x="355" y="-600" type="move" name="L"/>
    </contour>
    <contour>
      <point x="657" y="1580" type="move" name="U"/>
    </contour>
  </outline>
</glyph>
<glyph name="LtnCapHDiaer" format="1">
  <advance width="1235"/>
  <unicode hex="1E26"/>
  <outline>
    <component base="LtnCapH"/>
    <component base="CombDiaer.LP" xOffset="1092" yOffset="320"/>
    <contour>
      <point x="216" y="0" type="move" name="H"/>
    </contour>
    <contour>
      <point x="781" y="1640" type="move" name="U"/>
    </contour>
    <contour>
      <point x="542" y="-100" type="move" name="L"/>
    </contour>
  </outline>
</glyph>
<glyph name="LtnSmHDiaer" format="1">
  <advance width="1012"/>
  <unicode hex="1E27"/>
  <outline>
    <component base="LtnSmH"/>
    <component base="CombDiaer.LP" xOffset="1012" yOffset="580"/>
    <contour>
      <point x="158" y="0" type="move" name="H"/>
    </contour>
    <contour>
      <point x="424" y="-100" type="move" name="L"/>
    </contour>
    <contour>
      <point x="701" y="1900" type="move" name="U"/>
    </contour>
  </outline>
</glyph>
<glyph name="LtnCapHCedilla" format="1">
  <advance width="1235"/>
  <unicode hex="1E28"/>
  <outline>
    <component base="LtnCapH"/>
    <component base="CombCedilla" xOffset="703"/>
    <contour>
      <point x="134" y="-600" type="move" name="L"/>
    </contour>
    <contour>
      <point x="737" y="1320" type="move" name="U"/>
    </contour>
  </outline>
</glyph>
<glyph name="LtnCapHBreveBlw" format="1">
  <advance width="1235"/>
  <unicode hex="1E2A"/>
  <outline>
    <component base="LtnCapH"/>
    <component base="CombBreveBlw" xOffset="1055"/>
    <contour>
      <point x="216" y="0" type="move" name="H"/>
    </contour>
    <contour>
      <point x="473" y="-600" type="move" name="L"/>
    </contour>
    <contour>
      <point x="737" y="1320" type="move" name="U"/>
    </contour>
  </outline>
</glyph>
<glyph name="LtnCapITildeBlw" format="1">
  <advance width="573"/>
  <unicode hex="1E2C"/>
  <outline>
    <component base="LtnCapI"/>
    <component base="CombTildeBlw" xOffset="717"/>
    <contour>
      <point x="225" y="0" type="move" name="H"/>
    </contour>
    <contour>
      <point x="142" y="-600" type="move" name="L"/>
    </contour>
    <contour>
      <point x="285" y="0" type="move" name="O"/>
    </contour>
    <contour>
      <point x="568" y="1072" type="move" name="R"/>
    </contour>
    <contour>
      <point x="406" y="1320" type="move" name="U"/>
    </contour>
  </outline>
</glyph>
<glyph name="LtnCapIDiaerAcute" format="1">
  <advance width="573"/>
  <unicode hex="1E2E"/>
  <outline>
    <component base="LtnCapI"/>
    <component base="CombDiaer.LP" xOffset="761" yOffset="320"/>
    <component base="CombAcute.LP" xOffset="803" yOffset="640"/>
    <contour>
      <point x="225" y="0" type="move" name="H"/>
    </contour>
    <contour>
      <point x="568" y="1072" type="move" name="R"/>
    </contour>
    <contour>
      <point x="494" y="1960" type="move" name="U"/>
    </contour>
    <contour>
      <point x="211" y="-100" type="move" name="L"/>
    </contour>
    <contour>
      <point x="285" y="0" type="move" name="O"/>
    </contour>
  </outline>
</glyph>
<glyph name="LtnSmIDiaerAcute" format="1">
  <advance width="504"/>
  <unicode hex="1E2F"/>
  <outline>
    <component base="LtnSmDotlessI"/>
    <component base="CombDiaer" xOffset="689"/>
    <component base="CombAcute" xOffset="739" yOffset="370"/>
    <contour>
      <point x="210" y="0" type="move" name="H"/>
    </contour>
    <contour>
      <point x="212" y="-100" type="move" name="L"/>
    </contour>
    <contour>
      <point x="272" y="0" type="move" name="O"/>
    </contour>
    <contour>
      <point x="520" y="870" type="move" name="R"/>
    </contour>
    <contour>
      <point x="437" y="1740" type="move" name="U"/>
    </contour>
  </outline>
</glyph>
<glyph name="LtnSmKAcute" format="1">
  <advance width="899"/>
  <unicode hex="1E31"/>
  <outline>
    <component base="LtnSmK"/>
    <component base="CombAcute.LP" xOffset="970" yOffset="580"/>
    <contour>
      <point x="170" y="0" type="move" name="H"/>
    </contour>
    <contour>
      <point x="383" y="-100" type="move" name="L"/>
    </contour>
    <contour>
      <point x="984" y="870" type="move" name="R"/>
    </contour>
    <contour>
      <point x="661" y="1900" type="move" name="U"/>
    </contour>
  </outline>
</glyph>
<glyph name="LtnSmKLineBlw" format="1">
  <advance width="899"/>
  <unicode hex="1E35"/>
  <outline>
    <component base="LtnSmK"/>
    <component base="CombMacronBlw" xOffset="887"/>
    <contour>
      <point x="170" y="0" type="move" name="H"/>
    </contour>
    <contour>
      <point x="315" y="-600" type="move" name="L"/>
    </contour>
    <contour>
      <point x="984" y="870" type="move" name="R"/>
    </contour>
    <contour>
      <point x="617" y="1580" type="move" name="U"/>
    </contour>
  </outline>
</glyph>
<glyph name="LtnCapMDotBlw" format="1">
  <advance width="1511"/>
  <unicode hex="1E42"/>
  <outline>
    <component base="LtnCapM"/>
    <component base="CombDotBlw" xOffset="1190"/>
    <contour>
      <point x="1195" y="0" type="move" name="H"/>
    </contour>
    <contour>
      <point x="883" y="1320" type="move" name="U"/>
    </contour>
    <contour>
      <point x="619" y="-600" type="move" name="L"/>
    </contour>
  </outline>
</glyph>
<glyph name="LtnSmMDotBlw" format="1">
  <advance width="1477"/>
  <unicode hex="1E43"/>
  <outline>
    <component base="LtnSmM"/>
    <component base="CombDotBlw" xOffset="1164"/>
    <contour>
      <point x="1172" y="0" type="move" name="H"/>
    </contour>
    <contour>
      <point x="593" y="-600" type="move" name="L"/>
    </contour>
    <contour>
      <point x="813" y="1000" type="move" name="U"/>
    </contour>
  </outline>
</glyph>
<glyph name="LtnCapNDotAbv" format="1">
  <advance width="1239"/>
  <unicode hex="1E44"/>
  <outline>
    <component base="LtnCapN"/>
    <component base="CombDotAbv.LP" xOffset="1093" yOffset="320"/>
    <contour>
      <point x="940" y="0" type="move" name="H"/>
    </contour>
    <contour>
      <point x="542" y="-100" type="move" name="L"/>
    </contour>
    <contour>
      <point x="781" y="1640" type="move" name="U"/>
    </contour>
  </outline>
</glyph>
<glyph name="LtnCapNDotBlw" format="1">
  <advance width="1239"/>
  <unicode hex="1E46"/>
  <outline>
    <component base="LtnCapN"/>
    <component base="CombDotBlw" xOffset="1044"/>
    <contour>
      <point x="940" y="0" type="move" name="H"/>
    </contour>
    <contour>
      <point x="473" y="-600" type="move" name="L"/>
    </contour>
    <contour>
      <point x="737" y="1320" type="move" name="U"/>
    </contour>
  </outline>
</glyph>
<glyph name="LtnSmNDotBlw" format="1">
  <advance width="1012"/>
  <unicode hex="1E47"/>
  <outline>
    <component base="LtnSmN"/>
    <component base="CombDotBlw" xOffset="935"/>
    <contour>
      <point x="720" y="0" type="move" name="H"/>
    </contour>
    <contour>
      <point x="364" y="-600" type="move" name="L"/>
    </contour>
    <contour>
      <point x="584" y="1000" type="move" name="U"/>
    </contour>
  </outline>
</glyph>
<glyph name="LtnCapNLineBlw" format="1">
  <advance width="1239"/>
  <unicode hex="1E48"/>
  <outline>
    <component base="LtnCapN"/>
    <component base="CombMacronBlw" xOffset="1046"/>
    <contour>
      <point x="940" y="0" type="move" name="H"/>
    </contour>
    <contour>
      <point x="474" y="-600" type="move" name="L"/>
    </contour>
    <contour>
      <point x="737" y="1320" type="move" name="U"/>
    </contour>
  </outline>
</glyph>
<glyph name="LtnSmNLineBlw" format="1">
  <advance width="1012"/>
  <unicode hex="1E49"/>
  <outline>
    <component base="LtnSmN"/>
    <component base="CombMacronBlw" xOffset="937"/>
    <contour>
      <point x="720" y="0" type="move" name="H"/>
    </contour>
    <contour>
      <point x="365" y="-600" type="move" name="L"/>
    </contour>
    <contour>
      <point x="584" y="1000" type="move" name="U"/>
    </contour>
  </outline>
</glyph>
<glyph name="LtnCapNCircumBlw" format="1">
  <advance width="1239"/>
  <unicode hex="1E4A"/>
  <outline>
    <component base="LtnCapN"/>
    <component base="CombCircumBlw" xOffset="1048"/>
    <contour>
      <point x="940" y="0" type="move" name="H"/>
    </contour>
    <contour>
      <point x="474" y="-600" type="move" name="L"/>
    </contour>
    <contour>
      <point x="737" y="1320" type="move" name="U"/>
    </contour>
  </outline>
</glyph>
<glyph name="LtnCapOTildeAcute" format="1">
  <advance width="1116"/>
  <unicode hex="1E4C"/>
  <outline>
    <component base="LtnCapO"/>
    <component base="CombTilde.LP" xOffset="1055" yOffset="320"/>
    <component base="CombAcute.LP" xOffset="1097" yOffset="640"/>
    <contour>
      <point x="500" y="0" type="move" name="H"/>
    </contour>
    <contour>
      <point x="1202" y="1072" type="move" name="R"/>
    </contour>
    <contour>
      <point x="788" y="1960" type="move" name="U"/>
    </contour>
    <contour>
      <point x="505" y="-100" type="move" name="L"/>
    </contour>
    <contour>
      <point x="560" y="0" type="move" name="O"/>
    </contour>
  </outline>
</glyph>
<glyph name="LtnSmOTildeAcute" format="1">
  <advance width="864"/>
  <unicode hex="1E4D"/>
  <outline>
    <component base="LtnSmO"/>
    <component base="CombTilde" xOffset="860"/>
    <component base="CombAcute" xOffset="907" yOffset="353"/>
    <contour>
      <point x="374" y="0" type="move" name="H"/>
    </contour>
    <contour>
      <point x="354" y="-100" type="move" name="L"/>
    </contour>
    <contour>
      <point x="429" y="0" type="move" name="O"/>
    </contour>
    <contour>
      <point x="920" y="870" type="move" name="R"/>
    </contour>
    <contour>
      <point x="605" y="1723" type="move" name="U"/>
    </contour>
  </outline>
</glyph>
<glyph name="LtnCapOTildeDiaer" format="1">
  <advance width="1116"/>
  <unicode hex="1E4E"/>
  <outline>
    <component base="LtnCapO"/>
    <component base="CombTilde.LP" xOffset="1055" yOffset="320"/>
    <component base="CombDiaer.LP" xOffset="1099" yOffset="640"/>
    <contour>
      <point x="500" y="0" type="move" name="H"/>
    </contour>
    <contour>
      <point x="505" y="-100" type="move" name="L"/>
    </contour>
    <contour>
      <point x="560" y="0" type="move" name="O"/>
    </contour>
    <contour>
      <point x="1202" y="1072" type="move" name="R"/>
    </contour>
    <contour>
      <point x="788" y="1960" type="move" name="U"/>
    </contour>
  </outline>
</glyph>
<glyph name="LtnSmOTildeDiaer" format="1">
  <advance width="864"/>
  <unicode hex="1E4F"/>
  <outline>
    <component base="LtnSmO"/>
    <component base="CombTilde" xOffset="860"/>
    <component base="CombDiaer" xOffset="909" yOffset="353"/>
    <contour>
      <point x="374" y="0" type="move" name="H"/>
    </contour>
    <contour>
      <point x="354" y="-100" type="move" name="L"/>
    </contour>
    <contour>
      <point x="429" y="0" type="move" name="O"/>
    </contour>
    <contour>
      <point x="920" y="870" type="move" name="R"/>
    </contour>
    <contour>
      <point x="606" y="1723" type="move" name="U"/>
    </contour>
  </outline>
</glyph>
<glyph name="LtnSmOMacronAcute" format="1">
  <advance width="864"/>
  <unicode hex="1E53"/>
  <outline>
    <component base="LtnSmO"/>
    <component base="CombMacron" xOffset="870"/>
    <component base="CombAcute" xOffset="910" yOffset="370"/>
    <contour>
      <point x="374" y="0" type="move" name="H"/>
    </contour>
    <contour>
      <point x="354" y="-100" type="move" name="L"/>
    </contour>
    <contour>
      <point x="429" y="0" type="move" name="O"/>
    </contour>
    <contour>
      <point x="920" y="870" type="move" name="R"/>
    </contour>
    <contour>
      <point x="608" y="1740" type="move" name="U"/>
    </contour>
  </outline>
</glyph>
<glyph name="LtnCapPAcute" format="1">
  <advance width="965"/>
  <unicode hex="1E54"/>
  <outline>
    <component base="LtnCapP"/>
    <component base="CombAcute.LP" xOffset="945" yOffset="320"/>
    <contour>
      <point x="636" y="1640" type="move" name="U"/>
    </contour>
    <contour>
      <point x="397" y="-100" type="move" name="L"/>
    </contour>
  </outline>
</glyph>
<glyph name="LtnSmPAcute" format="1">
  <advance width="965"/>
  <unicode hex="1E55"/>
  <outline>
    <component base="LtnSmP"/>
    <component base="CombAcute" xOffset="915"/>
    <contour>
      <point x="87" y="-448" type="move" name="H"/>
    </contour>
    <contour>
      <point x="343" y="-600" type="move" name="L"/>
    </contour>
    <contour>
      <point x="1012" y="870" type="move" name="R"/>
    </contour>
    <contour>
      <point x="613" y="1370" type="move" name="U"/>
    </contour>
  </outline>
</glyph>
<glyph name="LtnCapPDotAbv" format="1">
  <advance width="965"/>
  <unicode hex="1E56"/>
  <outline>
    <component base="LtnCapP"/>
    <component base="CombDotAbv.LP" xOffset="948" yOffset="320"/>
    <contour>
      <point x="397" y="-100" type="move" name="L"/>
    </contour>
    <contour>
      <point x="636" y="1640" type="move" name="U"/>
    </contour>
  </outline>
</glyph>
<glyph name="LtnSmRDotAbv" format="1">
  <advance width="727"/>
  <unicode hex="1E59"/>
  <outline>
    <component base="LtnSmR"/>
    <component base="CombDotAbv" xOffset="816"/>
    <contour>
      <point x="175" y="0" type="move" name="H"/>
    </contour>
    <contour>
      <point x="509" y="1353" type="move" name="U"/>
    </contour>
    <contour>
      <point x="164" y="-100" type="move" name="L"/>
    </contour>
  </outline>
</glyph>
<glyph name="LtnSmRDotBlwMacron" format="1">
  <advance width="727"/>
  <unicode hex="1E5D"/>
  <outline>
    <component base="LtnSmR"/>
    <component base="CombDotBlw" xOffset="666"/>
    <component base="CombMacron" xOffset="825"/>
    <contour>
      <point x="175" y="0" type="move" name="H"/>
    </contour>
    <contour>
      <point x="95" y="-600" type="move" name="L"/>
    </contour>
    <contour>
      <point x="512" y="1370" type="move" name="U"/>
    </contour>
  </outline>
</glyph>
<glyph name="LtnCapSDotAbv" format="1">
  <advance width="899"/>
  <unicode hex="1E60"/>
  <outline>
    <component base="LtnCapS"/>
    <component base="CombDotAbv.LP" xOffset="930" yOffset="320"/>
    <contour>
      <point x="394" y="0" type="move" name="H"/>
    </contour>
    <contour>
      <point x="380" y="-100" type="move" name="L"/>
    </contour>
    <contour>
      <point x="618" y="1640" type="move" name="U"/>
    </contour>
  </outline>
</glyph>
<glyph name="LtnCapSDotBlw" format="1">
  <advance width="899"/>
  <unicode hex="1E62"/>
  <outline>
    <component base="LtnCapS"/>
    <component base="CombDotBlw" xOffset="882"/>
    <contour>
      <point x="394" y="0" type="move" name="H"/>
    </contour>
    <contour>
      <point x="311" y="-600" type="move" name="L"/>
    </contour>
    <contour>
      <point x="574" y="1320" type="move" name="U"/>
    </contour>
  </outline>
</glyph>
<glyph name="LtnSmSDotBlw" format="1">
  <advance width="711"/>
  <unicode hex="1E63"/>
  <outline>
    <component base="LtnSmS"/>
    <component base="CombDotBlw" xOffset="788"/>
    <contour>
      <point x="290" y="0" type="move" name="H"/>
    </contour>
    <contour>
      <point x="217" y="-600" type="move" name="L"/>
    </contour>
    <contour>
      <point x="437" y="1000" type="move" name="U"/>
    </contour>
  </outline>
</glyph>
<glyph name="LtnCapSAcuteDotAbv" format="1">
  <advance width="899"/>
  <unicode hex="1E64"/>
  <outline>
    <component base="LtnCapS"/>
    <component base="CombAcute.LP" xOffset="927" yOffset="320"/>
    <component base="CombDotAbv.LP" xOffset="974" yOffset="640"/>
    <contour>
      <point x="394" y="0" type="move" name="H"/>
    </contour>
    <contour>
      <point x="380" y="-100" type="move" name="L"/>
    </contour>
    <contour>
      <point x="662" y="1960" type="move" name="U"/>
    </contour>
  </outline>
</glyph>
<glyph name="LtnSmSAcuteDotAbv" format="1">
  <advance width="711"/>
  <unicode hex="1E65"/>
  <outline>
    <component base="LtnSmS"/>
    <component base="CombAcute" xOffset="790"/>
    <component base="CombDotAbv" xOffset="844" yOffset="370"/>
    <contour>
      <point x="290" y="0" type="move" name="H"/>
    </contour>
    <contour>
      <point x="537" y="1723" type="move" name="U"/>
    </contour>
    <contour>
      <point x="286" y="-100" type="move" name="L"/>
    </contour>
  </outline>
</glyph>
<glyph name="LtnCapSCaronDotAbv" format="1">
  <advance width="899"/>
  <unicode hex="1E66"/>
  <outline>
    <component base="LtnCapS"/>
    <component base="CombCaron.LP" xOffset="931" yOffset="320"/>
    <component base="CombDotAbv.LP" xOffset="979" yOffset="668"/>
    <contour>
      <point x="394" y="0" type="move" name="H"/>
    </contour>
    <contour>
      <point x="380" y="-100" type="move" name="L"/>
    </contour>
    <contour>
      <point x="667" y="1988" type="move" name="U"/>
    </contour>
  </outline>
</glyph>
<glyph name="LtnCapSDotBlwDotAbv" format="1">
  <advance width="899"/>
  <unicode hex="1E68"/>
  <outline>
    <component base="LtnCapS"/>
    <component base="CombDotBlw" xOffset="882"/>
    <component base="CombDotAbv.LP" xOffset="930" yOffset="320"/>
    <contour>
      <point x="394" y="0" type="move" name="H"/>
    </contour>
    <contour>
      <point x="311" y="-600" type="move" name="L"/>
    </contour>
    <contour>
      <point x="618" y="1640" type="move" name="U"/>
    </contour>
  </outline>
</glyph>
<glyph name="LtnCapTDotBlw" format="1">
  <advance width="1067"/>
  <unicode hex="1E6C"/>
  <outline>
    <component base="LtnCapT"/>
    <component base="CombDotBlw" xOffset="949"/>
    <contour>
      <point x="461" y="0" type="move" name="H"/>
    </contour>
    <contour>
      <point x="378" y="-600" type="move" name="L"/>
    </contour>
    <contour>
      <point x="641" y="1320" type="move" name="U"/>
    </contour>
  </outline>
</glyph>
<glyph name="LtnCapTLineBlw" format="1">
  <advance width="1067"/>
  <unicode hex="1E6E"/>
  <outline>
    <component base="LtnCapT"/>
    <component base="CombMacronBlw" xOffset="951"/>
    <contour>
      <point x="461" y="0" type="move" name="H"/>
    </contour>
    <contour>
      <point x="379" y="-600" type="move" name="L"/>
    </contour>
    <contour>
      <point x="641" y="1320" type="move" name="U"/>
    </contour>
  </outline>
</glyph>
<glyph name="LtnSmTCircumBlw" format="1">
  <advance width="629"/>
  <unicode hex="1E71"/>
  <outline>
    <component base="LtnSmT"/>
    <component base="CombCircumBlw" xOffset="745"/>
    <contour>
      <point x="253" y="0" type="move" name="H"/>
    </contour>
    <contour>
      <point x="171" y="-600" type="move" name="L"/>
    </contour>
    <contour>
      <point x="529" y="870" type="move" name="R"/>
    </contour>
    <contour>
      <point x="424" y="1230" type="move" name="U"/>
    </contour>
  </outline>
</glyph>
<glyph name="LtnCapUDiaerBlw" format="1">
  <advance width="1227"/>
  <unicode hex="1E72"/>
  <outline>
    <component base="LtnCapU"/>
    <component base="CombDiaerBlw" xOffset="1070"/>
    <contour>
      <point x="580" y="0" type="move" name="H"/>
    </contour>
    <contour>
      <point x="494" y="-600" type="move" name="L"/>
    </contour>
    <contour>
      <point x="661" y="0" type="move" name="O"/>
    </contour>
    <contour>
      <point x="1256" y="1072" type="move" name="R"/>
    </contour>
    <contour>
      <point x="757" y="1320" type="move" name="U"/>
    </contour>
  </outline>
</glyph>
<glyph name="LtnSmUDiaerBlw" format="1">
  <advance width="1022"/>
  <unicode hex="1E73"/>
  <outline>
    <component base="LtnSmU"/>
    <component base="CombDiaerBlw" xOffset="937"/>
    <contour>
      <point x="408" y="0" type="move" name="H"/>
    </contour>
    <contour>
      <point x="361" y="-600" type="move" name="L"/>
    </contour>
    <contour>
      <point x="797" y="0" type="move" name="O"/>
    </contour>
    <contour>
      <point x="1000" y="870" type="move" name="R"/>
    </contour>
    <contour>
      <point x="581" y="1000" type="move" name="U"/>
    </contour>
  </outline>
</glyph>
<glyph name="LtnCapUCircumBlw" format="1">
  <advance width="1227"/>
  <unicode hex="1E76"/>
  <outline>
    <component base="LtnCapU"/>
    <component base="CombCircumBlw" xOffset="1069"/>
    <contour>
      <point x="580" y="0" type="move" name="H"/>
    </contour>
    <contour>
      <point x="495" y="-600" type="move" name="L"/>
    </contour>
    <contour>
      <point x="661" y="0" type="move" name="O"/>
    </contour>
    <contour>
      <point x="1256" y="1072" type="move" name="R"/>
    </contour>
    <contour>
      <point x="757" y="1320" type="move" name="U"/>
    </contour>
  </outline>
</glyph>
<glyph name="LtnSmUCircumBlw" format="1">
  <advance width="1022"/>
  <unicode hex="1E77"/>
  <outline>
    <component base="LtnSmU"/>
    <component base="CombCircumBlw" xOffset="936"/>
    <contour>
      <point x="408" y="0" type="move" name="H"/>
    </contour>
    <contour>
      <point x="362" y="-600" type="move" name="L"/>
    </contour>
    <contour>
      <point x="797" y="0" type="move" name="O"/>
    </contour>
    <contour>
      <point x="1000" y="870" type="move" name="R"/>
    </contour>
    <contour>
      <point x="581" y="1000" type="move" name="U"/>
    </contour>
  </outline>
</glyph>
<glyph name="LtnCapUMacronDiaer" format="1">
  <advance width="1227"/>
  <unicode hex="1E7A"/>
  <outline>
    <component base="LtnCapU"/>
    <component base="CombMacron.LP" xOffset="1122" yOffset="320"/>
    <component base="CombDiaer.LP" xOffset="1156" yOffset="640"/>
    <contour>
      <point x="580" y="0" type="move" name="H"/>
    </contour>
    <contour>
      <point x="563" y="-100" type="move" name="L"/>
    </contour>
    <contour>
      <point x="661" y="0" type="move" name="O"/>
    </contour>
    <contour>
      <point x="1256" y="1072" type="move" name="R"/>
    </contour>
    <contour>
      <point x="845" y="1960" type="move" name="U"/>
    </contour>
  </outline>
</glyph>
<glyph name="LtnSmUMacronDiaer" format="1">
  <advance width="1022"/>
  <unicode hex="1E7B"/>
  <outline>
    <component base="LtnSmU"/>
    <component base="CombMacron" xOffset="946"/>
    <component base="CombDiaer" xOffset="988" yOffset="370"/>
    <contour>
      <point x="408" y="0" type="move" name="H"/>
    </contour>
    <contour>
      <point x="430" y="-100" type="move" name="L"/>
    </contour>
    <contour>
      <point x="797" y="0" type="move" name="O"/>
    </contour>
    <contour>
      <point x="1000" y="870" type="move" name="R"/>
    </contour>
    <contour>
      <point x="685" y="1740" type="move" name="U"/>
    </contour>
  </outline>
</glyph>
<glyph name="LtnCapVTilde" format="1">
  <advance width="1214"/>
  <unicode hex="1E7C"/>
  <outline>
    <component base="LtnCapV"/>
    <component base="CombTilde.LP" xOffset="1088" yOffset="320"/>
    <contour>
      <point x="557" y="0" type="move" name="H"/>
    </contour>
    <contour>
      <point x="538" y="-100" type="move" name="L"/>
    </contour>
    <contour>
      <point x="522" y="0" type="move" name="O"/>
    </contour>
    <contour>
      <point x="777" y="1640" type="move" name="U"/>
    </contour>
  </outline>
</glyph>
<glyph name="LtnSmVDotBlw" format="1">
  <advance width="913"/>
  <unicode hex="1E7F"/>
  <outline>
    <component base="LtnSmV"/>
    <component base="CombDotBlw" xOffset="877"/>
    <contour>
      <point x="400" y="0" type="move" name="H"/>
    </contour>
    <contour>
      <point x="526" y="1000" type="move" name="U"/>
    </contour>
    <contour>
      <point x="306" y="-600" type="move" name="L"/>
    </contour>
    <contour>
      <point x="382" y="0" type="move" name="O"/>
    </contour>
  </outline>
</glyph>
<glyph name="LtnSmWAcute" format="1">
  <advance width="1290"/>
  <unicode hex="1E83"/>
  <outline>
    <component base="LtnSmW"/>
    <component base="CombAcute" xOffset="1106"/>
    <contour>
      <point x="602" y="-100" type="move" name="L"/>
    </contour>
    <contour>
      <point x="804" y="1370" type="move" name="U"/>
    </contour>
  </outline>
</glyph>
<glyph name="LtnCapWDotAbv" format="1">
  <advance width="1571"/>
  <unicode hex="1E86"/>
  <outline>
    <component base="LtnCapW"/>
    <component base="CombDotAbv.LP" xOffset="1267" yOffset="320"/>
    <contour>
      <point x="955" y="1640" type="move" name="U"/>
    </contour>
    <contour>
      <point x="716" y="-100" type="move" name="L"/>
    </contour>
  </outline>
</glyph>
<glyph name="LtnCapWDotBlw" format="1">
  <advance width="1571"/>
  <unicode hex="1E88"/>
  <outline>
    <component base="LtnCapW"/>
    <component base="CombDotBlw" xOffset="1218"/>
    <contour>
      <point x="647" y="-600" type="move" name="L"/>
    </contour>
    <contour>
      <point x="911" y="1320" type="move" name="U"/>
    </contour>
  </outline>
</glyph>
<glyph name="LtnSmWDotBlw" format="1">
  <advance width="1290"/>
  <unicode hex="1E89"/>
  <outline>
    <component base="LtnSmW"/>
    <component base="CombDotBlw" xOffset="1104"/>
    <contour>
      <point x="533" y="-600" type="move" name="L"/>
    </contour>
    <contour>
      <point x="753" y="1000" type="move" name="U"/>
    </contour>
  </outline>
</glyph>
<glyph name="LtnCapZLineBlw" format="1">
  <advance width="1022"/>
  <unicode hex="1E94"/>
  <outline>
    <component base="LtnCapZ"/>
    <component base="CombMacronBlw" xOffset="969"/>
    <contour>
      <point x="639" y="1320" type="move" name="U"/>
    </contour>
    <contour>
      <point x="397" y="-600" type="move" name="L"/>
    </contour>
  </outline>
</glyph>
<glyph name="LtnSmYRingAbv" format="1">
  <advance width="926"/>
  <unicode hex="1E99"/>
  <outline>
    <component base="LtnSmY"/>
    <component base="CombRingAbv" xOffset="919"/>
    <contour>
      <point x="620" y="-100" type="move" name="L"/>
    </contour>
    <contour>
      <point x="988" y="870" type="move" name="R"/>
    </contour>
    <contour>
      <point x="619" y="1420" type="move" name="U"/>
    </contour>
  </outline>
</glyph>
<glyph name="LtnSmAHookAbv" format="1">
  <advance width="922"/>
  <unicode hex="1EA3"/>
  <outline>
    <component base="LtnSmA"/>
    <component base="CombHookAbv" xOffset="910"/>
    <contour>
      <point x="368" y="0" type="move" name="H"/>
    </contour>
    <contour>
      <point x="400" y="-100" type="move" name="L"/>
    </contour>
    <contour>
      <point x="723" y="0" type="move" name="O"/>
    </contour>
    <contour>
      <point x="933" y="870" type="move" name="R"/>
    </contour>
    <contour>
      <point x="594" y="1320" type="move" name="U"/>
    </contour>
  </outline>
</glyph>
<glyph name="LtnCapACircumAcute" format="1">
  <advance width="1147"/>
  <unicode hex="1EA4"/>
  <outline>
    <component base="LtnCapA"/>
    <component base="CombCircum.LP" xOffset="1048" yOffset="320"/>
    <component base="CombAcute.LP" xOffset="1108" yOffset="735"/>
    <contour>
      <point x="514" y="0" type="move" name="H"/>
    </contour>
    <contour>
      <point x="502" y="-100" type="move" name="L"/>
    </contour>
    <contour>
      <point x="846" y="0" type="move" name="O"/>
    </contour>
    <contour>
      <point x="799" y="2055" type="move" name="U"/>
    </contour>
  </outline>
</glyph>
<glyph name="LtnSmACircumAcute" format="1">
  <advance width="922"/>
  <unicode hex="1EA5"/>
  <outline>
    <component base="LtnSmA"/>
    <component base="CombCircum" xOffset="902"/>
    <component base="CombAcute" xOffset="976" yOffset="490"/>
    <contour>
      <point x="368" y="0" type="move" name="H"/>
    </contour>
    <contour>
      <point x="933" y="870" type="move" name="R"/>
    </contour>
    <contour>
      <point x="674" y="1860" type="move" name="U"/>
    </contour>
    <contour>
      <point x="400" y="-100" type="move" name="L"/>
    </contour>
    <contour>
      <point x="723" y="0" type="move" name="O"/>
    </contour>
  </outline>
</glyph>
<glyph name="LtnSmACircumTilde" format="1">
  <advance width="922"/>
  <unicode hex="1EAB"/>
  <outline>
    <component base="LtnSmA"/>
    <component base="CombCircum" xOffset="902"/>
    <component base="CombTilde" xOffset="978" yOffset="490"/>
    <contour>
      <point x="368" y="0" type="move" name="H"/>
    </contour>
    <contour>
      <point x="933" y="870" type="move" name="R"/>
    </contour>
    <contour>
      <point x="672" y="1843" type="move" name="U"/>
    </contour>
    <contour>
      <point x="400" y="-100" type="move" name="L"/>
    </contour>
    <contour>
      <point x="723" y="0" type="move" name="O"/>
    </contour>
  </outline>
</glyph>
<glyph name="LtnSmABreveAcute" format="1">
  <advance width="922"/>
  <unicode hex="1EAF"/>
  <outline>
    <component base="LtnSmA"/>
    <component base="CombBreve" xOffset="904"/>
    <component base="CombAcute" xOffset="947" yOffset="320"/>
    <contour>
      <point x="368" y="0" type="move" name="H"/>
    </contour>
    <contour>
      <point x="400" y="-100" type="move" name="L"/>
    </contour>
    <contour>
      <point x="723" y="0" type="move" name="O"/>
    </contour>
    <contour>
      <point x="933" y="870" type="move" name="R"/>
    </contour>
    <contour>
      <point x="645" y="1690" type="move" name="U"/>
    </contour>
  </outline>
</glyph>
<glyph name="LtnSmABreveGrave" format="1">
  <advance width="922"/>
  <unicode hex="1EB1"/>
  <outline>
    <component base="LtnSmA"/>
    <component base="CombBreve" xOffset="904"/>
    <component base="CombGrave" xOffset="869" yOffset="320"/>
    <contour>
      <point x="368" y="0" type="move" name="H"/>
    </contour>
    <contour>
      <point x="400" y="-100" type="move" name="L"/>
    </contour>
    <contour>
      <point x="723" y="0" type="move" name="O"/>
    </contour>
    <contour>
      <point x="933" y="870" type="move" name="R"/>
    </contour>
    <contour>
      <point x="644" y="1690" type="move" name="U"/>
    </contour>
  </outline>
</glyph>
<glyph name="LtnSmABreveTilde" format="1">
  <advance width="922"/>
  <unicode hex="1EB5"/>
  <outline>
    <component base="LtnSmA"/>
    <component base="CombBreve" xOffset="904"/>
    <component base="CombTilde" xOffset="949" yOffset="320"/>
    <contour>
      <point x="368" y="0" type="move" name="H"/>
    </contour>
    <contour>
      <point x="400" y="-100" type="move" name="L"/>
    </contour>
    <contour>
      <point x="723" y="0" type="move" name="O"/>
    </contour>
    <contour>
      <point x="933" y="870" type="move" name="R"/>
    </contour>
    <contour>
      <point x="643" y="1673" type="move" name="U"/>
    </contour>
  </outline>
</glyph>
<glyph name="LtnCapABreveDotBlw" format="1">
  <advance width="1147"/>
  <unicode hex="1EB6"/>
  <outline>
    <component base="LtnCapA"/>
    <component base="CombDotBlw" xOffset="1004"/>
    <component base="CombBreve" xOffset="1050" yOffset="320"/>
    <contour>
      <point x="514" y="0" type="move" name="H"/>
    </contour>
    <contour>
      <point x="433" y="-600" type="move" name="L"/>
    </contour>
    <contour>
      <point x="846" y="0" type="move" name="O"/>
    </contour>
    <contour>
      <point x="740" y="1640" type="move" name="U"/>
    </contour>
  </outline>
</glyph>
<glyph name="LtnCapEDotBlw" format="1">
  <advance width="946"/>
  <unicode hex="1EB8"/>
  <outline>
    <component base="LtnCapE"/>
    <component base="CombDotBlw" xOffset="899"/>
    <contour>
      <point x="411" y="0" type="move" name="H"/>
    </contour>
    <contour>
      <point x="328" y="-600" type="move" name="L"/>
    </contour>
    <contour>
      <point x="621" y="0" type="move" name="O"/>
    </contour>
    <contour>
      <point x="972" y="1072" type="move" name="R"/>
    </contour>
    <contour>
      <point x="591" y="1320" type="move" name="U"/>
    </contour>
  </outline>
</glyph>
<glyph name="LtnSmETilde" format="1">
  <advance width="805"/>
  <unicode hex="1EBD"/>
  <outline>
    <component base="LtnSmE"/>
    <component base="CombTilde" xOffset="865"/>
    <contour>
      <point x="358" y="0" type="move" name="H"/>
    </contour>
    <contour>
      <point x="884" y="870" type="move" name="R"/>
    </contour>
    <contour>
      <point x="559" y="1353" type="move" name="U"/>
    </contour>
    <contour>
      <point x="344" y="-100" type="move" name="L"/>
    </contour>
    <contour>
      <point x="408" y="0" type="move" name="O"/>
    </contour>
  </outline>
</glyph>
<glyph name="LtnCapECircumAcute" format="1">
  <advance width="946"/>
  <unicode hex="1EBE"/>
  <outline>
    <component base="LtnCapE"/>
    <component base="CombCircum.LP" xOffset="943" yOffset="320"/>
    <component base="CombAcute.LP" xOffset="1003" yOffset="735"/>
    <contour>
      <point x="411" y="0" type="move" name="H"/>
    </contour>
    <contour>
      <point x="972" y="1072" type="move" name="R"/>
    </contour>
    <contour>
      <point x="694" y="2055" type="move" name="U"/>
    </contour>
    <contour>
      <point x="397" y="-100" type="move" name="L"/>
    </contour>
    <contour>
      <point x="621" y="0" type="move" name="O"/>
    </contour>
  </outline>
</glyph>
<glyph name="LtnSmECircumAcute" format="1">
  <advance width="805"/>
  <unicode hex="1EBF"/>
  <outline>
    <component base="LtnSmE"/>
    <component base="CombCircum" xOffset="862"/>
    <component base="CombAcute" xOffset="936" yOffset="490"/>
    <contour>
      <point x="358" y="0" type="move" name="H"/>
    </contour>
    <contour>
      <point x="884" y="870" type="move" name="R"/>
    </contour>
    <contour>
      <point x="634" y="1860" type="move" name="U"/>
    </contour>
    <contour>
      <point x="344" y="-100" type="move" name="L"/>
    </contour>
    <contour>
      <point x="408" y="0" type="move" name="O"/>
    </contour>
  </outline>
</glyph>
<glyph name="LtnCapECircumDotBlw" format="1">
  <advance width="946"/>
  <unicode hex="1EC6"/>
  <outline>
    <component base="LtnCapE"/>
    <component base="CombDotBlw" xOffset="899"/>
    <component base="CombCircum.LP" xOffset="943" yOffset="320"/>
    <contour>
      <point x="411" y="0" type="move" name="H"/>
    </contour>
    <contour>
      <point x="328" y="-600" type="move" name="L"/>
    </contour>
    <contour>
      <point x="621" y="0" type="move" name="O"/>
    </contour>
    <contour>
      <point x="972" y="1072" type="move" name="R"/>
    </contour>
    <contour>
      <point x="650" y="1735" type="move" name="U"/>
    </contour>
  </outline>
</glyph>
<glyph name="LtnSmECircumDotBlw" format="1">
  <advance width="805"/>
  <unicode hex="1EC7"/>
  <outline>
    <component base="LtnSmE"/>
    <component base="CombDotBlw" xOffset="846"/>
    <component base="CombCircum" xOffset="862"/>
    <contour>
      <point x="358" y="0" type="move" name="H"/>
    </contour>
    <contour>
      <point x="275" y="-600" type="move" name="L"/>
    </contour>
    <contour>
      <point x="408" y="0" type="move" name="O"/>
    </contour>
    <contour>
      <point x="884" y="870" type="move" name="R"/>
    </contour>
    <contour>
      <point x="583" y="1490" type="move" name="U"/>
    </contour>
  </outline>
</glyph>
<glyph name="LtnCapIHookAbv" format="1">
  <advance width="573"/>
  <unicode hex="1EC8"/>
  <outline>
    <component base="LtnCapI"/>
    <component base="CombHookAbv" xOffset="766" yOffset="320"/>
    <contour>
      <point x="225" y="0" type="move" name="H"/>
    </contour>
    <contour>
      <point x="568" y="1072" type="move" name="R"/>
    </contour>
    <contour>
      <point x="450" y="1640" type="move" name="U"/>
    </contour>
    <contour>
      <point x="211" y="-100" type="move" name="L"/>
    </contour>
    <contour>
      <point x="285" y="0" type="move" name="O"/>
    </contour>
  </outline>
</glyph>
<glyph name="LtnSmIDotBlw" format="1">
  <advance width="504"/>
  <unicode hex="1ECB"/>
  <outline>
    <component base="LtnSmI"/>
    <component base="CombDotBlw" xOffset="708"/>
    <contour>
      <point x="210" y="0" type="move" name="H"/>
    </contour>
    <contour>
      <point x="137" y="-600" type="move" name="L"/>
    </contour>
    <contour>
      <point x="275" y="0" type="move" name="O"/>
    </contour>
    <contour>
      <point x="504" y="870" type="move" name="R"/>
    </contour>
    <contour>
      <point x="357" y="1000" type="move" name="U"/>
    </contour>
  </outline>
</glyph>
<glyph name="LtnCapODotBlw" format="1">
  <advance width="1116"/>
  <unicode hex="1ECC"/>
  <outline>
    <component base="LtnCapO"/>
    <component base="CombDotBlw" xOffset="1007"/>
    <contour>
      <point x="500" y="0" type="move" name="H"/>
    </contour>
    <contour>
      <point x="436" y="-600" type="move" name="L"/>
    </contour>
    <contour>
      <point x="560" y="0" type="move" name="O"/>
    </contour>
    <contour>
      <point x="1202" y="1072" type="move" name="R"/>
    </contour>
    <contour>
      <point x="700" y="1320" type="move" name="U"/>
    </contour>
  </outline>
</glyph>
<glyph name="LtnSmOHookAbv" format="1">
  <advance width="864"/>
  <unicode hex="1ECF"/>
  <outline>
    <component base="LtnSmO"/>
    <component base="CombHookAbv" xOffset="865"/>
    <contour>
      <point x="374" y="0" type="move" name="H"/>
    </contour>
    <contour>
      <point x="920" y="870" type="move" name="R"/>
    </contour>
    <contour>
      <point x="549" y="1320" type="move" name="U"/>
    </contour>
    <contour>
      <point x="354" y="-100" type="move" name="L"/>
    </contour>
    <contour>
      <point x="429" y="0" type="move" name="O"/>
    </contour>
  </outline>
</glyph>
<glyph name="LtnSmOCircumAcute" format="1">
  <advance width="864"/>
  <unicode hex="1ED1"/>
  <outline>
    <component base="LtnSmO"/>
    <component base="CombCircum" xOffset="857"/>
    <component base="CombAcute" xOffset="931" yOffset="490"/>
    <contour>
      <point x="374" y="0" type="move" name="H"/>
    </contour>
    <contour>
      <point x="920" y="870" type="move" name="R"/>
    </contour>
    <contour>
      <point x="629" y="1860" type="move" name="U"/>
    </contour>
    <contour>
      <point x="354" y="-100" type="move" name="L"/>
    </contour>
    <contour>
      <point x="429" y="0" type="move" name="O"/>
    </contour>
  </outline>
</glyph>
<glyph name="LtnCapOCircumHookAbv" format="1">
  <advance width="1116"/>
  <unicode hex="1ED4"/>
  <outline>
    <component base="LtnCapO"/>
    <component base="CombCircum.LP" xOffset="1052" yOffset="320"/>
    <component base="CombHookAbv" xOffset="1119" yOffset="735"/>
    <contour>
      <point x="500" y="0" type="move" name="H"/>
    </contour>
    <contour>
      <point x="505" y="-100" type="move" name="L"/>
    </contour>
    <contour>
      <point x="560" y="0" type="move" name="O"/>
    </contour>
    <contour>
      <point x="1202" y="1072" type="move" name="R"/>
    </contour>
    <contour>
      <point x="803" y="2055" type="move" name="U"/>
    </contour>
  </outline>
</glyph>
<glyph name="LtnSmOCircumHookAbv" format="1">
  <advance width="864"/>
  <unicode hex="1ED5"/>
  <outline>
    <component base="LtnSmO"/>
    <component base="CombCircum" xOffset="857"/>
    <component base="CombHookAbv" xOffset="938" yOffset="490"/>
    <contour>
      <point x="374" y="0" type="move" name="H"/>
    </contour>
    <contour>
      <point x="354" y="-100" type="move" name="L"/>
    </contour>
    <contour>
      <point x="429" y="0" type="move" name="O"/>
    </contour>
    <contour>
      <point x="920" y="870" type="move" name="R"/>
    </contour>
    <contour>
      <point x="622" y="1810" type="move" name="U"/>
    </contour>
  </outline>
</glyph>
<glyph name="LtnCapOCircumTilde" format="1">
  <advance width="1116"/>
  <unicode hex="1ED6"/>
  <outline>
    <component base="LtnCapO"/>
    <component base="CombCircum.LP" xOffset="1052" yOffset="320"/>
    <component base="CombTilde.LP" xOffset="1114" yOffset="735"/>
    <contour>
      <point x="500" y="0" type="move" name="H"/>
    </contour>
    <contour>
      <point x="505" y="-100" type="move" name="L"/>
    </contour>
    <contour>
      <point x="560" y="0" type="move" name="O"/>
    </contour>
    <contour>
      <point x="1202" y="1072" type="move" name="R"/>
    </contour>
    <contour>
      <point x="803" y="2055" type="move" name="U"/>
    </contour>
  </outline>
</glyph>
<glyph name="LtnSmOCircumTilde" format="1">
  <advance width="864"/>
  <unicode hex="1ED7"/>
  <outline>
    <component base="LtnSmO"/>
    <component base="CombCircum" xOffset="857"/>
    <component base="CombTilde" xOffset="933" yOffset="490"/>
    <contour>
      <point x="374" y="0" type="move" name="H"/>
    </contour>
    <contour>
      <point x="920" y="870" type="move" name="R"/>
    </contour>
    <contour>
      <point x="627" y="1843" type="move" name="U"/>
    </contour>
    <contour>
      <point x="354" y="-100" type="move" name="L"/>
    </contour>
    <contour>
      <point x="429" y="0" type="move" name="O"/>
    </contour>
  </outline>
</glyph>
<glyph name="LtnCapOHornGrave" format="1">
  <advance width="1174"/>
  <unicode hex="1EDC"/>
  <outline>
    <component base="LtnCapO"/>
    <component base="CombHorn" xOffset="1086" yOffset="380"/>
    <component base="CombGrave.LP" xOffset="975" yOffset="320"/>
    <contour>
      <point x="507" y="-100" type="move" name="L"/>
    </contour>
    <contour>
      <point x="743" y="1640" type="move" name="U"/>
    </contour>
  </outline>
</glyph>
